SplineFontDB: 1.0
FontName: THMaliGrade6
FullName: THMaliGrade6
FamilyName: TH Mali Grade 6
Weight: Book
Copyright: Copyright (c) 2006 by Department of Intellectual Property (DIP), Ministry of Commerce and Software Industry Promotion Agency (Public Organization) (SIPA). All rights reserved.
Version: 1.1
ItalicAngle: 0
UnderlinePosition: -55
UnderlineWidth: 50
Ascent: 1638
Descent: 410
Order2: 1
XUID: [1021 375 425136265 10787122]
FSType: 0
OS2Version: 3
OS2_WeightWidthSlopeOnly: 0
OS2_UseTypoMetrics: 1
CreationTime: 1152588240
ModificationTime: 1174406880
PfmFamily: 17
TTFWeight: 400
TTFWidth: 5
LineGap: 123
VLineGap: 0
Panose: 2 0 5 6 0 0 0 2 0 4
OS2TypoAscent: 0
OS2TypoAOffset: 1
OS2TypoDescent: 0
OS2TypoDOffset: 1
OS2TypoLinegap: 0
OS2WinAscent: -35
OS2WinAOffset: 1
OS2WinDescent: 190
OS2WinDOffset: 1
HheadAscent: -35
HheadAOffset: 1
HheadDescent: 239
HheadDOffset: 1
OS2SubXSize: 1434
OS2SubYSize: 1331
OS2SubXOff: 0
OS2SubYOff: 287
OS2SupXSize: 1434
OS2SupYSize: 1331
OS2SupXOff: 0
OS2SupYOff: 977
OS2StrikeYSize: 49
OS2StrikeYPos: 399
OS2FamilyClass: 773
OS2Vendor: 'IPTH'
ScriptLang: 2
 1 latn 1 dflt 
 0 
ChainSub: coverage 0 0 'liga' 0 0 0 1
 1 0 1
  Coverage: 64 uni0E48.alt2 uni0E49.alt2 uni0E4A.alt2 uni0E4B.alt2 uni0E4C.alt2
  FCoverage: 7 uni0E33
 1
  SeqLookup: 0 'L027'
EndFPST
ChainSub: coverage 0 0 'liga' 0 0 0 1
 1 1 0
  Coverage: 7 uni0E47
  BCoverage: 12 uni0E2C.alt1
 1
  SeqLookup: 0 'L026'
EndFPST
ChainSub: coverage 0 0 'liga' 0 0 0 1
 1 0 1
  Coverage: 7 uni0E2C
  FCoverage: 39 uni0E34 uni0E35 uni0E36 uni0E37 uni0E47
 1
  SeqLookup: 0 'L026'
EndFPST
ChainSub: coverage 0 0 'liga' 0 0 0 1
 1 0 1
  Coverage: 15 uni0E0E uni0E0F
  FCoverage: 38 uni0E38.alt1 uni0E39.alt1 uni0E3A.alt1
 1
  SeqLookup: 0 'L026'
EndFPST
ChainSub: coverage 0 0 'liga' 0 0 0 1
 1 1 0
  Coverage: 5 a b c
  BCoverage: 23 uni0E1B uni0E1D uni0E1F
 1
  SeqLookup: 0 'L026'
EndFPST
ChainSub: coverage 0 0 'liga' 0 0 0 1
 1 0 1
  Coverage: 5 a b c

StartChar: .notdef
Encoding: 65536 -1 0
Width: 1024
Flags: W
Fore
872 1399 m 0,0,1
 872 1376 872 1376 872 1306.5 c 128,-1,2
 872 1237 872 1237 871 1137.5 c 128,-1,3
 870 1038 870 1038 870 918.5 c 128,-1,4
 870 799 870 799 869 677 c 128,-1,5
 868 555 868 555 867 440.5 c 128,-1,6
 866 326 866 326 865 236.5 c 128,-1,7
 864 147 864 147 863 94 c 128,-1,8
 862 42 862 42 862 41 c 0,9,10
 866 14 866 14 840 14 c 0,11,12
 655 23 655 23 530.5 25 c 128,-1,13
 406 27 406 27 324 27 c 128,-1,14
 242 27 242 27 200 25 c 128,-1,15
 158 23 158 23 139 20 c 0,16,17
 135 20 135 20 129 21.5 c 128,-1,18
 123 23 123 23 123 37 c 0,19,20
 123 57 123 57 123 127 c 128,-1,21
 123 197 123 197 124 295 c 128,-1,22
 125 393 125 393 126 513 c 128,-1,23
 127 633 127 633 127 755 c 128,-1,24
 127 877 127 877 128 991.5 c 128,-1,25
 129 1106 129 1106 130 1195 c 128,-1,26
 131 1284 131 1284 131 1338.5 c 128,-1,27
 131 1392 131 1392 131 1393 c 0,28,29
 131 1413 131 1413 148.5 1417 c 128,-1,30
 166 1421 166 1421 188 1419 c 0,31,32
 362 1413 362 1413 481 1411 c 128,-1,33
 600 1409 600 1409 678 1409 c 128,-1,34
 756 1409 756 1409 797 1411 c 128,-1,35
 838 1413 838 1413 856 1415 c 0,36,37
 860 1415 860 1415 866 1414 c 128,-1,38
 872 1413 872 1413 872 1399 c 0,0,1
645 1358 m 2,39,40
 557 1358 557 1358 440.5 1359 c 128,-1,41
 324 1360 324 1360 188 1364 c 0,42,43
 180 1364 180 1364 177 1364 c 128,-1,44
 174 1364 174 1364 174 1358 c 0,45,46
 174 1335 174 1335 173 1271.5 c 128,-1,47
 172 1208 172 1208 172 1119 c 128,-1,48
 172 1030 172 1030 171 922.5 c 128,-1,49
 170 815 170 815 169 705.5 c 128,-1,50
 168 596 168 596 167 489.5 c 128,-1,51
 166 383 166 383 165 297 c 128,-1,52
 164 211 164 211 163 152.5 c 128,-1,53
 162 94 162 94 162 78 c 1,54,55
 250 76 250 76 354 76 c 0,56,57
 444 74 444 74 564 74 c 128,-1,58
 684 74 684 74 821 70 c 1,59,60
 821 92 821 92 822 190.5 c 128,-1,61
 823 289 823 289 824 425 c 128,-1,62
 825 561 825 561 826 714.5 c 128,-1,63
 827 868 827 868 828 1004.5 c 128,-1,64
 829 1141 829 1141 830 1238 c 128,-1,65
 831 1335 831 1335 834 1358 c 1,66,-1
 645 1358 l 2,39,40
EndSplineSet
EndChar
StartChar: exclam
Encoding: 33 33 4
Width: 317
Flags: W
Fore
178 199 m 1,0,1
 173 181 173 181 152 181 c 0,2,3
 137 181 137 181 133 199 c 1,4,-1
 104 801 l 2,5,6
 105 824 105 824 120 835 c 128,-1,7
 135 846 135 846 153 846 c 0,8,9
 172 846 172 846 188.5 834.5 c 128,-1,10
 205 823 205 823 207 801 c 2,11,-1
 178 199 l 1,0,1
211 63 m 0,12,13
 209 41 209 41 194.5 25.5 c 128,-1,14
 180 10 180 10 158 10 c 0,15,16
 131 10 131 10 115.5 27.5 c 128,-1,17
 100 45 100 45 100 68 c 0,18,19
 100 90 100 90 115.5 105.5 c 128,-1,20
 131 121 131 121 158 121 c 0,21,22
 186 121 186 121 198.5 102.5 c 128,-1,23
 211 84 211 84 211 63 c 0,12,13
EndSplineSet
EndChar
StartChar: quotedbl
Encoding: 34 34 5
Width: 444
Flags: W
Fore
150 727 m 1,0,1
 145 711 145 711 131 710 c 128,-1,2
 117 709 117 709 113 727 c 1,3,-1
 102 961 l 2,4,5
 102 973 102 973 112.5 979 c 128,-1,6
 123 985 123 985 133 985 c 128,-1,7
 143 985 143 985 152.5 979 c 128,-1,8
 162 973 162 973 162 961 c 2,9,-1
 150 727 l 1,0,1
311 727 m 2,10,11
 308 709 308 709 293.5 709 c 128,-1,12
 279 709 279 709 274 727 c 1,13,-1
 264 961 l 2,14,15
 264 973 264 973 274.5 979 c 128,-1,16
 285 985 285 985 295 985 c 128,-1,17
 305 985 305 985 314.5 979 c 128,-1,18
 324 973 324 973 324 961 c 2,19,-1
 311 727 l 2,10,11
EndSplineSet
EndChar
StartChar: numbersign
Encoding: 35 35 6
Width: 737
Flags: W
Fore
444 371 m 1,0,-1
 475 532 l 1,1,-1
 305 532 l 1,2,-1
 283 369 l 1,3,-1
 444 371 l 1,0,-1
238 369 m 1,4,-1
 262 535 l 1,5,-1
 201 535 l 1,6,7
 180 539 180 539 179 560 c 0,8,9
 178 582 178 582 199 582 c 2,10,-1
 268 582 l 1,11,-1
 291 731 l 2,12,13
 295 757 295 757 316 756 c 0,14,15
 338 754 338 754 334 729 c 2,16,-1
 311 580 l 1,17,-1
 479 580 l 1,18,-1
 508 743 l 2,19,20
 510 754 510 754 518.5 757.5 c 128,-1,21
 527 761 527 761 536 759.5 c 128,-1,22
 545 758 545 758 551 751.5 c 128,-1,23
 557 745 557 745 555 737 c 2,24,-1
 524 578 l 1,25,-1
 594 578 l 1,26,27
 616 574 616 574 616 552 c 0,28,29
 616 532 616 532 594 532 c 2,30,-1
 518 532 l 1,31,-1
 489 371 l 1,32,-1
 580 371 l 2,33,34
 590 370 590 370 595 362.5 c 128,-1,35
 600 355 600 355 600 346.5 c 128,-1,36
 600 338 600 338 595 331 c 128,-1,37
 590 324 590 324 580 324 c 2,38,-1
 483 324 l 1,39,-1
 459 166 l 1,40,41
 455 156 455 156 447.5 153 c 128,-1,42
 440 150 440 150 432 151 c 0,43,44
 423 153 423 153 419 158 c 0,45,46
 414 164 414 164 438 324 c 1,47,-1
 276 324 l 1,48,-1
 254 166 l 2,49,50
 252 155 252 155 244.5 150.5 c 128,-1,51
 237 146 237 146 228.5 147 c 128,-1,52
 220 148 220 148 214 154.5 c 128,-1,53
 208 161 208 161 209 172 c 2,54,-1
 233 324 l 1,55,-1
 158 324 l 2,56,57
 147 324 147 324 141 331 c 128,-1,58
 135 338 135 338 135 346.5 c 128,-1,59
 135 355 135 355 141 362 c 128,-1,60
 147 369 147 369 158 369 c 2,61,-1
 238 369 l 1,4,-1
EndSplineSet
EndChar
StartChar: dollar
Encoding: 36 36 7
Width: 782
Flags: W
Fore
377 954 m 2,0,1
 377 967 377 967 384 974 c 128,-1,2
 391 981 391 981 400.5 981 c 128,-1,3
 410 981 410 981 418 974 c 128,-1,4
 426 967 426 967 426 954 c 2,5,-1
 426 862 l 1,6,7
 506 852 506 852 557 797.5 c 128,-1,8
 608 743 608 743 610 651 c 1,9,10
 606 629 606 629 590.5 627 c 128,-1,11
 575 625 575 625 573 645 c 0,12,13
 571 672 571 672 562 701.5 c 128,-1,14
 553 731 553 731 534.5 755.5 c 128,-1,15
 516 780 516 780 489.5 799.5 c 128,-1,16
 463 819 463 819 426 825 c 1,17,-1
 426 459 l 1,18,19
 492 446 492 446 530.5 419.5 c 128,-1,20
 569 393 569 393 588.5 360.5 c 128,-1,21
 608 328 608 328 614.5 290 c 128,-1,22
 621 252 621 252 618 219 c 0,23,24
 614 156 614 156 569 102.5 c 128,-1,25
 524 49 524 49 426 41 c 1,26,-1
 426 -53 l 2,27,28
 426 -66 426 -66 418 -73 c 128,-1,29
 410 -80 410 -80 400.5 -80 c 128,-1,30
 391 -80 391 -80 384 -73 c 128,-1,31
 377 -66 377 -66 377 -53 c 2,32,-1
 377 41 l 1,33,34
 274 45 274 45 202.5 94 c 128,-1,35
 131 143 131 143 115 236 c 0,36,37
 111 256 111 256 130.5 255 c 128,-1,38
 150 254 150 254 152 238 c 0,39,40
 166 172 166 172 221 127 c 128,-1,41
 276 82 276 82 377 78 c 1,42,-1
 377 426 l 1,43,44
 373 426 373 426 372 427 c 128,-1,45
 371 428 371 428 369 428 c 0,46,47
 268 438 268 438 210 491.5 c 128,-1,48
 152 545 152 545 143 633 c 0,49,50
 139 680 139 680 154.5 722 c 128,-1,51
 170 764 170 764 200.5 795.5 c 128,-1,52
 231 827 231 827 276.5 845.5 c 128,-1,53
 322 864 322 864 377 866 c 1,54,-1
 377 954 l 2,0,1
184 633 m 0,55,56
 186 608 186 608 194.5 582.5 c 128,-1,57
 203 557 203 557 224.5 534.5 c 128,-1,58
 246 512 246 512 281.5 492.5 c 128,-1,59
 317 473 317 473 377 465 c 1,60,-1
 377 829 l 1,61,62
 281 825 281 825 230.5 768 c 128,-1,63
 180 711 180 711 184 633 c 0,55,56
582 219 m 0,64,65
 584 309 584 309 546 356 c 128,-1,66
 508 403 508 403 426 420 c 1,67,-1
 426 78 l 1,68,69
 477 82 477 82 507 99.5 c 128,-1,70
 537 117 537 117 553 138.5 c 128,-1,71
 569 160 569 160 575.5 182.5 c 128,-1,72
 582 205 582 205 582 219 c 0,64,65
EndSplineSet
EndChar
StartChar: percent
Encoding: 37 37 8
Width: 985
Flags: W
Fore
338 16 m 1,0,1
 319 -6 319 -6 300 -2 c 128,-1,2
 281 2 281 2 291 29 c 2,3,-1
 639 879 l 2,4,5
 645 891 645 891 655.5 894 c 128,-1,6
 666 897 666 897 674 893 c 128,-1,7
 682 889 682 889 685 878.5 c 128,-1,8
 688 868 688 868 680 856 c 1,9,-1
 338 16 l 1,0,1
440 678 m 0,10,11
 440 627 440 627 406.5 581 c 128,-1,12
 373 535 373 535 303 535 c 0,13,14
 231 535 231 535 192.5 582 c 128,-1,15
 154 629 154 629 154 682 c 256,16,17
 154 735 154 735 191.5 781 c 128,-1,18
 229 827 229 827 303 827 c 0,19,20
 340 827 340 827 365.5 813 c 128,-1,21
 391 799 391 799 407.5 777.5 c 128,-1,22
 424 756 424 756 432 729 c 128,-1,23
 440 702 440 702 440 678 c 0,10,11
403 676 m 0,24,25
 403 713 403 713 378.5 747.5 c 128,-1,26
 354 782 354 782 305 782 c 0,27,28
 258 782 258 782 228.5 753.5 c 128,-1,29
 199 725 199 725 199 684 c 0,30,31
 199 641 199 641 227.5 609.5 c 128,-1,32
 256 578 256 578 305 578 c 0,33,34
 346 578 346 578 372.5 606.5 c 128,-1,35
 399 635 399 635 403 676 c 0,24,25
829 203 m 0,36,37
 829 152 829 152 795.5 105.5 c 128,-1,38
 762 59 762 59 692 59 c 0,39,40
 621 59 621 59 582 106.5 c 128,-1,41
 543 154 543 154 543 207 c 256,42,43
 543 260 543 260 580.5 306 c 128,-1,44
 618 352 618 352 692 352 c 0,45,46
 729 352 729 352 754.5 338 c 128,-1,47
 780 324 780 324 796.5 302.5 c 128,-1,48
 813 281 813 281 821 254 c 128,-1,49
 829 227 829 227 829 203 c 0,36,37
793 201 m 0,50,51
 793 238 793 238 768 272.5 c 128,-1,52
 743 307 743 307 694 307 c 0,53,54
 647 307 647 307 617.5 278.5 c 128,-1,55
 588 250 588 250 588 209 c 0,56,57
 588 166 588 166 616.5 134 c 128,-1,58
 645 102 645 102 694 102 c 0,59,60
 735 102 735 102 761.5 131 c 128,-1,61
 788 160 788 160 793 201 c 0,50,51
EndSplineSet
EndChar
StartChar: ampersand
Encoding: 38 38 9
Width: 829
Flags: W
Fore
528 131 m 1,0,1
 442 182 442 182 382 260 c 128,-1,2
 322 338 322 338 281 432 c 1,3,4
 244 428 244 428 217 399.5 c 128,-1,5
 190 371 190 371 176 330 c 128,-1,6
 162 289 162 289 163 242 c 128,-1,7
 164 195 164 195 183.5 156 c 128,-1,8
 203 117 203 117 243 89 c 128,-1,9
 283 61 283 61 348 61 c 0,10,11
 406 59 406 59 453 78.5 c 128,-1,12
 500 98 500 98 528 131 c 1,0,1
309 506 m 1,13,14
 375 512 375 512 406.5 553 c 128,-1,15
 438 594 438 594 438 640 c 128,-1,16
 438 686 438 686 408.5 725 c 128,-1,17
 379 764 379 764 322 768 c 0,18,19
 250 774 250 774 214 737 c 128,-1,20
 178 700 178 700 176 651 c 128,-1,21
 174 602 174 602 207 558 c 128,-1,22
 240 514 240 514 309 506 c 1,13,14
653 408 m 0,23,24
 666 383 666 383 673 352.5 c 128,-1,25
 680 322 680 322 679 287 c 128,-1,26
 678 252 678 252 666.5 216 c 128,-1,27
 655 180 655 180 629 145 c 1,28,29
 647 129 647 129 661.5 120 c 128,-1,30
 676 111 676 111 689 103.5 c 128,-1,31
 702 96 702 96 717.5 89 c 128,-1,32
 733 82 733 82 756 72 c 0,33,34
 766 66 766 66 768 57.5 c 128,-1,35
 770 49 770 49 765 42 c 128,-1,36
 760 35 760 35 751.5 31 c 128,-1,37
 743 27 743 27 735 31 c 0,38,39
 688 47 688 47 659.5 64.5 c 128,-1,40
 631 82 631 82 596 115 c 1,41,42
 541 70 541 70 481.5 43 c 128,-1,43
 422 16 422 16 356 14 c 0,44,45
 279 12 279 12 226.5 41 c 128,-1,46
 174 70 174 70 144.5 117 c 128,-1,47
 115 164 115 164 108.5 220 c 128,-1,48
 102 276 102 276 116.5 328.5 c 128,-1,49
 131 381 131 381 168 421 c 128,-1,50
 205 461 205 461 260 475 c 1,51,52
 188 487 188 487 154.5 544.5 c 128,-1,53
 121 602 121 602 127 664.5 c 128,-1,54
 133 727 133 727 183 774 c 128,-1,55
 233 821 233 821 330 815 c 0,56,57
 401 813 401 813 442 762 c 128,-1,58
 483 711 483 711 487.5 648.5 c 128,-1,59
 492 586 492 586 453 529.5 c 128,-1,60
 414 473 414 473 326 461 c 1,61,62
 369 362 369 362 424 292.5 c 128,-1,63
 479 223 479 223 571 164 c 1,64,65
 623 213 623 213 626 274.5 c 128,-1,66
 629 336 629 336 606 401 c 1,67,68
 600 410 600 410 605 417 c 128,-1,69
 610 424 610 424 618.5 426 c 128,-1,70
 627 428 627 428 637 424 c 128,-1,71
 647 420 647 420 653 408 c 0,23,24
EndSplineSet
EndChar
StartChar: quotesingle
Encoding: 39 39 10
Width: 236
Flags: W
Fore
135 582 m 1,0,1
 131 565 131 565 116.5 564 c 128,-1,2
 102 563 102 563 98 582 c 1,3,-1
 88 815 l 2,4,5
 88 827 88 827 98.5 833.5 c 128,-1,6
 109 840 109 840 119 840 c 128,-1,7
 129 840 129 840 138 833.5 c 128,-1,8
 147 827 147 827 147 815 c 2,9,-1
 135 582 l 1,0,1
EndSplineSet
EndChar
StartChar: parenleft
Encoding: 40 40 11
Width: 489
Flags: W
Fore
324 -98 m 0,0,1
 336 -111 336 -111 338 -123 c 128,-1,2
 340 -135 340 -135 334 -144.5 c 128,-1,3
 328 -154 328 -154 315.5 -156 c 128,-1,4
 303 -158 303 -158 289 -147 c 0,5,6
 184 -39 184 -39 131 85 c 128,-1,7
 78 209 78 209 78 358 c 0,8,9
 78 506 78 506 134 638 c 128,-1,10
 190 770 190 770 297 877 c 1,11,12
 309 885 309 885 319.5 879.5 c 128,-1,13
 330 874 330 874 335 864 c 128,-1,14
 340 854 340 854 339 839.5 c 128,-1,15
 338 825 338 825 326 817 c 1,16,17
 233 723 233 723 183 606 c 128,-1,18
 133 489 133 489 133 358 c 0,19,20
 133 225 133 225 182 111.5 c 128,-1,21
 231 -2 231 -2 324 -98 c 0,0,1
EndSplineSet
EndChar
StartChar: parenright
Encoding: 41 41 12
Width: 489
Flags: W
Fore
152 -98 m 0,0,1
 244 -2 244 -2 293 111.5 c 128,-1,2
 342 225 342 225 342 358 c 0,3,4
 342 489 342 489 292 606 c 128,-1,5
 242 723 242 723 150 817 c 1,6,7
 137 825 137 825 136 839.5 c 128,-1,8
 135 854 135 854 140 864 c 128,-1,9
 145 874 145 874 155.5 879.5 c 128,-1,10
 166 885 166 885 178 877 c 1,11,12
 285 770 285 770 341 638 c 128,-1,13
 397 506 397 506 397 358 c 0,14,15
 397 209 397 209 344 85 c 128,-1,16
 291 -39 291 -39 186 -147 c 0,17,18
 172 -158 172 -158 159.5 -156 c 128,-1,19
 147 -154 147 -154 141 -144.5 c 128,-1,20
 135 -135 135 -135 137 -123 c 128,-1,21
 139 -111 139 -111 152 -98 c 0,0,1
EndSplineSet
EndChar
StartChar: asterisk
Encoding: 42 42 13
Width: 600
Flags: W
Fore
352 582 m 1,0,-1
 506 494 l 1,1,2
 520 481 520 481 510 465 c 128,-1,3
 500 449 500 449 483 459 c 2,4,-1
 340 543 l 1,5,-1
 340 391 l 2,6,7
 340 381 340 381 334 376 c 128,-1,8
 328 371 328 371 318.5 371 c 128,-1,9
 309 371 309 371 302 376 c 128,-1,10
 295 381 295 381 295 391 c 2,11,-1
 293 547 l 1,12,-1
 156 467 l 2,13,14
 139 459 139 459 131 475.5 c 128,-1,15
 123 492 123 492 135 502 c 1,16,-1
 268 582 l 1,17,-1
 115 672 l 2,18,19
 96 684 96 684 106.5 700.5 c 128,-1,20
 117 717 117 717 135 707 c 2,21,-1
 293 616 l 1,22,23
 293 662 293 662 292 701.5 c 128,-1,24
 291 741 291 741 291 786 c 0,25,26
 293 813 293 813 314.5 811 c 128,-1,27
 336 809 336 809 336 786 c 2,28,-1
 338 621 l 1,29,-1
 477 700 l 2,30,31
 504 713 504 713 512 694.5 c 128,-1,32
 520 676 520 676 498 666 c 2,33,-1
 352 582 l 1,0,-1
EndSplineSet
EndChar
StartChar: plus
Encoding: 43 43 14
Width: 635
Flags: W
Fore
295 440 m 1,0,1
 295 482 295 482 294.5 521 c 128,-1,2
 294 560 294 560 295 600 c 1,3,4
 299 616 299 616 320 616 c 0,5,6
 342 616 342 616 342 600 c 0,7,8
 342 589 342 589 340.5 566.5 c 128,-1,9
 339 544 339 544 338.5 519.5 c 128,-1,10
 338 495 338 495 338 472.5 c 128,-1,11
 338 450 338 450 340 440 c 1,12,13
 374 440 374 440 391 439.5 c 128,-1,14
 408 439 408 439 420.5 439.5 c 128,-1,15
 433 440 433 440 446.5 442 c 128,-1,16
 460 444 460 444 489 449 c 0,17,18
 506 453 506 453 511 441.5 c 128,-1,19
 516 430 516 430 514 418 c 1,20,21
 510 408 510 408 487.5 404 c 128,-1,22
 465 400 465 400 437 399.5 c 128,-1,23
 409 399 409 399 382 400 c 128,-1,24
 355 401 355 401 342 401 c 1,25,26
 342 389 342 389 341.5 367 c 128,-1,27
 341 345 341 345 340.5 321 c 128,-1,28
 340 297 340 297 339 275 c 128,-1,29
 338 253 338 253 337 241 c 0,30,31
 337 230 337 230 331.5 224 c 128,-1,32
 326 218 326 218 316 219 c 0,33,34
 297 220 297 220 297 244 c 2,35,-1
 297 397 l 1,36,-1
 127 403 l 1,37,38
 111 406 111 406 111 426 c 256,39,40
 111 446 111 446 127 446 c 2,41,-1
 295 440 l 1,0,1
EndSplineSet
EndChar
StartChar: comma
Encoding: 44 44 15
Width: 352
Flags: W
Fore
61 -78 m 1,0,1
 139 -90 139 -90 189 -55 c 0,2,3
 240 -21 240 -21 246 39 c 1,4,5
 236 23 236 23 214.5 17.5 c 128,-1,6
 193 12 193 12 170 23 c 0,7,8
 156 28 156 28 146.5 38 c 128,-1,9
 137 48 137 48 131.5 61 c 128,-1,10
 126 74 126 74 125 89 c 128,-1,11
 124 104 124 104 129 119 c 0,12,13
 134 133 134 133 145 144 c 128,-1,14
 156 155 156 155 170 161 c 128,-1,15
 184 167 184 167 200.5 167 c 128,-1,16
 217 167 217 167 233 159 c 0,17,18
 250 150 250 150 261.5 132.5 c 128,-1,19
 273 115 273 115 277.5 92 c 128,-1,20
 282 69 282 69 278.5 43 c 128,-1,21
 275 17 275 17 262 -8 c 0,22,23
 247 -43 247 -43 222.5 -65 c 128,-1,24
 198 -87 198 -87 170 -97.5 c 128,-1,25
 142 -108 142 -108 114.5 -108.5 c 128,-1,26
 87 -109 87 -109 66 -102 c 0,27,28
 49 -96 49 -96 50 -87 c 128,-1,29
 51 -78 51 -78 61 -78 c 1,0,1
162 111 m 0,30,31
 154 94 154 94 161 74.5 c 128,-1,32
 168 55 168 55 182 51 c 0,33,34
 199 45 199 45 217.5 53 c 128,-1,35
 236 61 236 61 244 78 c 0,36,37
 249 94 249 94 240 108 c 128,-1,38
 231 122 231 122 216.5 129 c 128,-1,39
 202 136 202 136 186.5 132.5 c 128,-1,40
 171 129 171 129 162 111 c 0,30,31
EndSplineSet
EndChar
StartChar: hyphen
Encoding: 45 45 16
Width: 594
Flags: W
Fore
286 450 m 2,0,1
 452 456 452 456 480 461 c 0,2,3
 497 465 497 465 502 453.5 c 128,-1,4
 507 442 507 442 505 430 c 1,5,6
 501 420 501 420 478.5 416.5 c 128,-1,7
 456 413 456 413 362 410 c 128,-1,8
 268 407 268 407 118 415 c 0,9,10
 102 418 102 418 102 438 c 128,-1,11
 102 458 102 458 118 458 c 2,12,-1
 286 450 l 2,0,1
EndSplineSet
EndChar
StartChar: period
Encoding: 46 46 17
Width: 352
Flags: W
Fore
123 80 m 0,0,1
 126 88 126 88 133 95 c 128,-1,2
 140 102 140 102 149 106.5 c 128,-1,3
 158 111 158 111 167.5 112.5 c 128,-1,4
 177 114 177 114 184 111 c 0,5,6
 207 104 207 104 217 82.5 c 128,-1,7
 227 61 227 61 221 45 c 0,8,9
 215 23 215 23 193.5 12.5 c 128,-1,10
 172 2 172 2 150 10 c 0,11,12
 133 14 133 14 124 35.5 c 128,-1,13
 115 57 115 57 123 80 c 0,0,1
EndSplineSet
EndChar
StartChar: slash
Encoding: 47 47 18
Width: 604
Flags: W
Fore
154 -6 m 1,0,1
 145 -18 145 -18 136 -22.5 c 128,-1,2
 127 -27 127 -27 119 -26 c 128,-1,3
 111 -25 111 -25 107.5 -16.5 c 128,-1,4
 104 -8 104 -8 109 4 c 2,5,-1
 430 993 l 2,6,7
 434 1008 434 1008 443.5 1012 c 128,-1,8
 453 1016 453 1016 461 1012 c 128,-1,9
 469 1008 469 1008 472 998.5 c 128,-1,10
 475 989 475 989 469 975 c 2,11,-1
 154 -6 l 1,0,1
EndSplineSet
EndChar
StartChar: zero
Encoding: 48 48 19
Width: 717
Flags: W
Fore
668 371 m 0,0,1
 668 305 668 305 648.5 241.5 c 128,-1,2
 629 178 629 178 590 128 c 128,-1,3
 551 78 551 78 490.5 46 c 128,-1,4
 430 14 430 14 348 14 c 0,5,6
 264 14 264 14 205.5 47 c 128,-1,7
 147 80 147 80 110.5 132 c 128,-1,8
 74 184 74 184 56.5 247.5 c 128,-1,9
 39 311 39 311 39 371 c 0,10,11
 39 428 39 428 54.5 498.5 c 128,-1,12
 70 569 70 569 105.5 631.5 c 128,-1,13
 141 694 141 694 201.5 736 c 128,-1,14
 262 778 262 778 352 778 c 256,15,16
 442 778 442 778 502.5 737 c 128,-1,17
 563 696 563 696 600 635.5 c 128,-1,18
 637 575 637 575 652.5 503.5 c 128,-1,19
 668 432 668 432 668 371 c 0,0,1
614 371 m 0,20,21
 614 438 614 438 600 501.5 c 128,-1,22
 586 565 586 565 554 614.5 c 128,-1,23
 522 664 522 664 473 693.5 c 128,-1,24
 424 723 424 723 354 723 c 0,25,26
 283 723 283 723 233.5 692.5 c 128,-1,27
 184 662 184 662 153.5 611.5 c 128,-1,28
 123 561 123 561 109.5 497.5 c 128,-1,29
 96 434 96 434 96 371 c 0,30,31
 96 309 96 309 109.5 254 c 128,-1,32
 123 199 123 199 153.5 157 c 128,-1,33
 184 115 184 115 231.5 91.5 c 128,-1,34
 279 68 279 68 346 68 c 0,35,36
 416 68 416 68 467 91.5 c 128,-1,37
 518 115 518 115 551 156 c 128,-1,38
 584 197 584 197 599 252 c 128,-1,39
 614 307 614 307 614 371 c 0,20,21
EndSplineSet
EndChar
StartChar: one
Encoding: 49 49 20
Width: 528
Flags: W
Fore
315 707 m 1,0,1
 305 684 305 684 282.5 656.5 c 128,-1,2
 260 629 260 629 238 604 c 0,3,4
 211 575 211 575 180 547 c 1,5,6
 170 541 170 541 161 544 c 128,-1,7
 152 547 152 547 145.5 553 c 128,-1,8
 139 559 139 559 140 569.5 c 128,-1,9
 141 580 141 580 152 590 c 0,10,11
 209 643 209 643 242.5 689 c 128,-1,12
 276 735 276 735 305 788 c 0,13,14
 309 797 309 797 318.5 795 c 128,-1,15
 328 793 328 793 338 785.5 c 128,-1,16
 348 778 348 778 356.5 769 c 128,-1,17
 365 760 365 760 367 754 c 1,18,-1
 375 33 l 2,19,20
 375 23 375 23 365.5 18.5 c 128,-1,21
 356 14 356 14 345 13 c 128,-1,22
 334 12 334 12 324.5 16 c 128,-1,23
 315 20 315 20 315 31 c 2,24,-1
 319 303 l 1,25,-1
 315 707 l 1,0,1
EndSplineSet
EndChar
StartChar: two
Encoding: 50 50 21
Width: 653
Flags: W
Fore
145 51 m 1,0,1
 209 55 209 55 258 56.5 c 128,-1,2
 307 58 307 58 351.5 57 c 128,-1,3
 396 56 396 56 443 53.5 c 128,-1,4
 490 51 490 51 551 47 c 0,5,6
 562 45 562 45 566 38 c 128,-1,7
 570 31 570 31 568.5 23 c 128,-1,8
 567 15 567 15 562 8.5 c 128,-1,9
 557 2 557 2 551 2 c 0,10,11
 534 4 534 4 506 5.5 c 128,-1,12
 478 7 478 7 442.5 8 c 128,-1,13
 407 9 407 9 367.5 9.5 c 128,-1,14
 328 10 328 10 289 10 c 0,15,16
 243 10 243 10 193 9 c 128,-1,17
 143 8 143 8 88 6 c 0,18,19
 80 6 80 6 80 12 c 0,20,21
 88 90 88 90 152.5 178 c 128,-1,22
 217 266 217 266 354 350 c 0,23,24
 392 374 392 374 421 404 c 128,-1,25
 450 434 450 434 470 467.5 c 128,-1,26
 490 501 490 501 500 536 c 128,-1,27
 510 571 510 571 510 606 c 0,28,29
 510 676 510 676 463 732 c 256,30,31
 416 788 416 788 319 788 c 0,32,33
 272 788 272 788 238.5 774 c 128,-1,34
 205 760 205 760 182.5 735 c 128,-1,35
 160 710 160 710 148 675 c 128,-1,36
 136 640 136 640 133 598 c 0,37,38
 131 586 131 586 110 586 c 0,39,40
 90 586 90 586 90 612 c 0,41,42
 90 656 90 656 107.5 695.5 c 128,-1,43
 125 735 125 735 155.5 765 c 128,-1,44
 186 795 186 795 227 813 c 128,-1,45
 268 831 268 831 315 831 c 0,46,47
 376 831 376 831 421.5 812.5 c 128,-1,48
 467 794 467 794 497 763 c 128,-1,49
 527 732 527 732 542 690.5 c 128,-1,50
 557 649 557 649 557 604 c 0,51,52
 557 565 557 565 546.5 525.5 c 128,-1,53
 536 486 536 486 514.5 448.5 c 128,-1,54
 493 411 493 411 460.5 378 c 128,-1,55
 428 345 428 345 385 319 c 0,56,57
 334 289 334 289 290 254 c 128,-1,58
 246 219 246 219 214 183 c 128,-1,59
 182 147 182 147 163.5 113 c 128,-1,60
 145 79 145 79 145 51 c 1,0,1
EndSplineSet
EndChar
StartChar: three
Encoding: 51 51 22
Width: 678
Flags: W
Fore
158 543 m 1,0,1
 143 598 143 598 155.5 647 c 128,-1,2
 168 696 168 696 200.5 731 c 128,-1,3
 233 766 233 766 281.5 786.5 c 128,-1,4
 330 807 330 807 385 807 c 0,5,6
 428 807 428 807 469 792.5 c 128,-1,7
 510 778 510 778 540.5 751.5 c 128,-1,8
 571 725 571 725 590.5 687 c 128,-1,9
 610 649 610 649 610 604 c 0,10,11
 610 555 610 555 583.5 500.5 c 128,-1,12
 557 446 557 446 481 426 c 1,13,14
 524 416 524 416 552 393.5 c 128,-1,15
 580 371 580 371 596 340 c 128,-1,16
 612 309 612 309 619.5 275.5 c 128,-1,17
 627 242 627 242 627 211 c 0,18,19
 627 182 627 182 614.5 145.5 c 128,-1,20
 602 109 602 109 572.5 76 c 128,-1,21
 543 43 543 43 494.5 21.5 c 128,-1,22
 446 0 446 0 375 0 c 0,23,24
 309 0 309 0 252 12.5 c 128,-1,25
 195 25 195 25 150.5 57.5 c 128,-1,26
 106 90 106 90 80.5 145.5 c 128,-1,27
 55 201 55 201 55 287 c 0,28,29
 55 319 55 319 76 319 c 0,30,31
 98 319 98 319 98 297 c 0,32,33
 98 223 98 223 120.5 174 c 128,-1,34
 143 125 143 125 180 95.5 c 128,-1,35
 217 66 217 66 265 53.5 c 128,-1,36
 313 41 313 41 365 41 c 0,37,38
 426 41 426 41 469 57.5 c 128,-1,39
 512 74 512 74 537.5 98.5 c 128,-1,40
 563 123 563 123 574.5 151.5 c 128,-1,41
 586 180 586 180 586 205 c 0,42,43
 586 309 586 309 525.5 355 c 128,-1,44
 465 401 465 401 371 401 c 0,45,46
 354 401 354 401 349 418.5 c 128,-1,47
 344 436 344 436 362 440 c 0,48,49
 473 453 473 453 520 500 c 128,-1,50
 567 547 567 547 567 616 c 0,51,52
 567 643 567 643 556 668.5 c 128,-1,53
 545 694 545 694 522.5 715.5 c 128,-1,54
 500 737 500 737 466 750.5 c 128,-1,55
 432 764 432 764 387 764 c 256,56,57
 342 764 342 764 303 748.5 c 128,-1,58
 264 733 264 733 237.5 705.5 c 128,-1,59
 211 678 211 678 199.5 639 c 128,-1,60
 188 600 188 600 199 551 c 1,61,62
 197 535 197 535 180.5 529.5 c 128,-1,63
 164 524 164 524 160 541 c 1,64,-1
 158 543 l 1,0,1
EndSplineSet
EndChar
StartChar: four
Encoding: 52 52 23
Width: 653
Flags: W
Fore
389 788 m 0,0,1
 373 771 373 771 331 718 c 256,2,3
 289 665 289 665 241 598 c 0,4,5
 217 564 217 564 193 529 c 128,-1,6
 145 459 l 0,7,8
 122 424 122 424 103.5 393 c 128,-1,9
 85 362 85 362 72 336 c 1,10,11
 63 323 63 323 109 316 c 0,12,13
 132 312 132 312 160 310 c 128,-1,14
 188 308 188 308 220 306 c 0,15,16
 284 303 284 303 349 303 c 0,17,18
 381 303 381 303 404.5 304 c 128,-1,19
 428 305 428 305 442 307 c 1,20,-1
 455 608 l 2,21,22
 455 630 455 630 476 629 c 0,23,24
 498 628 498 628 498 604 c 2,25,-1
 487 319 l 1,26,27
 547 326 547 326 584 332 c 128,-1,28
 621 338 621 338 623 338 c 2,29,30
 631 340 631 340 637.5 337 c 128,-1,31
 644 334 644 334 647.5 328.5 c 128,-1,32
 651 323 651 323 651.5 316 c 128,-1,33
 652 309 652 309 647 303 c 1,34,35
 647 301 647 301 641 300 c 128,-1,36
 635 299 635 299 617.5 296 c 128,-1,37
 600 293 600 293 568 288 c 128,-1,38
 536 283 536 283 483 274 c 1,39,-1
 475 25 l 2,40,41
 475 6 475 6 453 6 c 0,42,43
 432 6 432 6 432 29 c 2,44,-1
 440 264 l 1,45,46
 408 262 408 262 361.5 261 c 128,-1,47
 315 260 315 260 265 261 c 128,-1,48
 215 262 215 262 167 266 c 128,-1,49
 119 270 119 270 83 278 c 128,-1,50
 47 286 47 286 29.5 298 c 128,-1,51
 12 310 12 310 23 328 c 1,52,53
 40 371 40 371 72.5 428.5 c 128,-1,54
 105 486 105 486 148.5 550.5 c 128,-1,55
 192 615 192 615 244.5 684 c 128,-1,56
 297 753 297 753 356 819 c 0,57,58
 364 826 364 826 373 825 c 128,-1,59
 382 824 382 824 388 818.5 c 128,-1,60
 394 813 394 813 395 804.5 c 128,-1,61
 396 796 396 796 389 788 c 0,0,1
EndSplineSet
EndChar
StartChar: five
Encoding: 53 53 24
Width: 686
Flags: W
Fore
129 457 m 1,0,1
 135 584 135 584 139 655.5 c 128,-1,2
 143 727 143 727 145 762 c 128,-1,3
 147 797 147 797 148.5 806 c 128,-1,4
 150 815 150 815 150 817 c 1,5,6
 152 819 152 819 185.5 817 c 128,-1,7
 219 815 219 815 274.5 813 c 128,-1,8
 330 811 330 811 401.5 811 c 128,-1,9
 473 811 473 811 553 817 c 0,10,11
 571 819 571 819 570 799.5 c 128,-1,12
 569 780 569 780 553 776 c 0,13,14
 465 766 465 766 373 764 c 128,-1,15
 281 762 281 762 195 766 c 1,16,-1
 184 528 l 1,17,18
 260 541 260 541 324 541 c 0,19,20
 403 543 403 543 458.5 520.5 c 128,-1,21
 514 498 514 498 548 460 c 128,-1,22
 582 422 582 422 597 369.5 c 128,-1,23
 612 317 612 317 612 258 c 0,24,25
 610 129 610 129 529.5 65.5 c 128,-1,26
 449 2 449 2 336 0 c 0,27,28
 289 -2 289 -2 238.5 8 c 128,-1,29
 188 18 188 18 148.5 47 c 128,-1,30
 109 76 109 76 87.5 127 c 128,-1,31
 66 178 66 178 78 260 c 0,32,33
 80 272 80 272 88 277.5 c 128,-1,34
 96 283 96 283 105.5 282 c 128,-1,35
 115 281 115 281 121 274.5 c 128,-1,36
 127 268 127 268 127 256 c 0,37,38
 121 190 121 190 137.5 147 c 128,-1,39
 154 104 154 104 183.5 79.5 c 128,-1,40
 213 55 213 55 252 46 c 128,-1,41
 291 37 291 37 332 39 c 0,42,43
 377 41 377 41 421 55.5 c 128,-1,44
 465 70 465 70 498.5 97.5 c 128,-1,45
 532 125 532 125 552.5 166 c 128,-1,46
 573 207 573 207 573 260 c 0,47,48
 573 365 573 365 509.5 432.5 c 128,-1,49
 446 500 446 500 336 500 c 0,50,51
 289 500 289 500 238.5 489.5 c 128,-1,52
 188 479 188 479 129 457 c 1,0,1
EndSplineSet
EndChar
StartChar: six
Encoding: 54 54 25
Width: 711
Flags: W
Fore
578 621 m 0,0,1
 559 668 559 668 537.5 693.5 c 128,-1,2
 516 719 516 719 480 739.5 c 128,-1,3
 444 760 444 760 391 760 c 0,4,5
 305 760 305 760 246.5 717 c 128,-1,6
 188 674 188 674 154.5 607.5 c 128,-1,7
 121 541 121 541 108.5 462 c 128,-1,8
 96 383 96 383 102 311 c 1,9,10
 119 365 119 365 150.5 395.5 c 128,-1,11
 182 426 182 426 220 441.5 c 128,-1,12
 258 457 258 457 297 461 c 128,-1,13
 336 465 336 465 367 465 c 0,14,15
 436 465 436 465 485.5 440.5 c 128,-1,16
 535 416 535 416 565.5 380 c 128,-1,17
 596 344 596 344 609.5 303 c 128,-1,18
 623 262 623 262 623 229 c 0,19,20
 623 135 623 135 563.5 68.5 c 128,-1,21
 504 2 504 2 367 0 c 0,22,23
 209 -2 209 -2 134 88 c 128,-1,24
 59 178 59 178 59 369 c 0,25,26
 59 459 59 459 80.5 537.5 c 128,-1,27
 102 616 102 616 143 674.5 c 128,-1,28
 184 733 184 733 242.5 767 c 128,-1,29
 301 801 301 801 375 801 c 0,30,31
 426 801 426 801 463 792.5 c 128,-1,32
 500 784 500 784 528.5 763.5 c 128,-1,33
 557 743 557 743 579.5 708.5 c 128,-1,34
 602 674 602 674 625 623 c 1,35,36
 625 602 625 602 605.5 602 c 128,-1,37
 586 602 586 602 578 621 c 0,0,1
129 250 m 0,38,39
 129 162 129 162 187.5 99.5 c 128,-1,40
 246 37 246 37 367 41 c 0,41,42
 430 43 430 43 472 60.5 c 128,-1,43
 514 78 514 78 538.5 104.5 c 128,-1,44
 563 131 563 131 573.5 162 c 128,-1,45
 584 193 584 193 584 221 c 0,46,47
 584 248 584 248 574.5 283.5 c 128,-1,48
 565 319 565 319 541.5 352 c 128,-1,49
 518 385 518 385 476 406.5 c 128,-1,50
 434 428 434 428 367 428 c 0,51,52
 266 428 266 428 197.5 382 c 128,-1,53
 129 336 129 336 129 250 c 0,38,39
EndSplineSet
EndChar
StartChar: seven
Encoding: 55 55 26
Width: 653
Flags: W
Fore
299 414 m 0,0,1
 319 416 319 416 333.5 419 c 128,-1,2
 348 422 348 422 360.5 424 c 128,-1,3
 373 426 373 426 387 428 c 128,-1,4
 401 430 401 430 426 434 c 1,5,6
 434 469 434 469 449.5 532.5 c 128,-1,7
 465 596 465 596 465 653 c 0,8,9
 465 729 465 729 416 752.5 c 128,-1,10
 367 776 367 776 291 776 c 0,11,12
 260 776 260 776 228.5 771 c 128,-1,13
 197 766 197 766 167 760 c 128,-1,14
 137 754 137 754 112.5 748.5 c 128,-1,15
 88 743 88 743 70 743 c 0,16,17
 53 743 53 743 46 749.5 c 128,-1,18
 39 756 39 756 39 762 c 0,19,20
 39 772 39 772 68.5 783.5 c 128,-1,21
 98 795 98 795 140 804 c 128,-1,22
 182 813 182 813 226 819 c 128,-1,23
 270 825 270 825 299 825 c 0,24,25
 342 825 342 825 380 817 c 128,-1,26
 418 809 418 809 447.5 790.5 c 128,-1,27
 477 772 477 772 494.5 740.5 c 128,-1,28
 512 709 512 709 512 664 c 0,29,30
 512 627 512 627 499.5 563.5 c 128,-1,31
 487 500 487 500 471 432 c 1,32,33
 520 432 520 432 545.5 433 c 128,-1,34
 571 434 571 434 580 426 c 0,35,36
 586 420 586 420 586 407.5 c 128,-1,37
 586 395 586 395 565 391 c 0,38,39
 549 387 549 387 529.5 387 c 128,-1,40
 510 387 510 387 455 385 c 1,41,42
 444 348 444 348 427 290.5 c 128,-1,43
 410 233 410 233 389.5 176 c 128,-1,44
 369 119 369 119 347.5 72 c 128,-1,45
 326 25 326 25 307 8 c 0,46,47
 295 -2 295 -2 282.5 6 c 128,-1,48
 270 14 270 14 279 25 c 0,49,50
 293 45 293 45 306 69.5 c 128,-1,51
 319 94 319 94 334.5 132 c 128,-1,52
 350 170 350 170 369.5 230.5 c 128,-1,53
 389 291 389 291 414 385 c 1,54,55
 385 383 385 383 365.5 381 c 128,-1,56
 346 379 346 379 334 377 c 128,-1,57
 322 375 322 375 312.5 373 c 128,-1,58
 303 371 303 371 295 371 c 1,59,60
 283 369 283 369 275.5 375 c 128,-1,61
 268 381 268 381 268 388 c 128,-1,62
 268 395 268 395 275.5 403.5 c 128,-1,63
 283 412 283 412 299 414 c 0,0,1
EndSplineSet
EndChar
StartChar: eight
Encoding: 56 56 27
Width: 700
Flags: W
Fore
469 500 m 1,0,1
 543 467 543 467 598 405.5 c 128,-1,2
 653 344 653 344 653 248 c 0,3,4
 653 186 653 186 629.5 140 c 128,-1,5
 606 94 606 94 565 62.5 c 128,-1,6
 524 31 524 31 469 15.5 c 128,-1,7
 414 0 414 0 352 0 c 0,8,9
 289 0 289 0 231.5 17.5 c 128,-1,10
 174 35 174 35 131 67.5 c 128,-1,11
 88 100 88 100 63.5 148.5 c 128,-1,12
 39 197 39 197 39 260 c 0,13,14
 39 348 39 348 96.5 405.5 c 128,-1,15
 154 463 154 463 236 496 c 1,16,17
 205 524 205 524 188.5 562 c 128,-1,18
 172 600 172 600 172 641 c 0,19,20
 172 684 172 684 188.5 716 c 128,-1,21
 205 748 205 748 230.5 769.5 c 128,-1,22
 256 791 256 791 287.5 802 c 128,-1,23
 319 813 319 813 352 813 c 0,24,25
 422 813 422 813 473 770 c 128,-1,26
 524 727 524 727 524 649 c 0,27,28
 524 602 524 602 513 569.5 c 128,-1,29
 502 537 502 537 469 500 c 1,0,1
356 467 m 0,30,31
 297 467 297 467 247 450.5 c 128,-1,32
 197 434 197 434 160 406.5 c 128,-1,33
 123 379 123 379 102.5 342 c 128,-1,34
 82 305 82 305 82 264 c 0,35,36
 82 221 82 221 98.5 181 c 128,-1,37
 115 141 115 141 148.5 110.5 c 128,-1,38
 182 80 182 80 233.5 61.5 c 128,-1,39
 285 43 285 43 352 43 c 0,40,41
 422 43 422 43 471 60.5 c 128,-1,42
 520 78 520 78 551 107.5 c 128,-1,43
 582 137 582 137 596 173 c 128,-1,44
 610 209 610 209 610 246 c 0,45,46
 610 291 610 291 591.5 332 c 128,-1,47
 573 373 573 373 540.5 402.5 c 128,-1,48
 508 432 508 432 461 449.5 c 128,-1,49
 414 467 414 467 356 467 c 0,30,31
481 647 m 1,50,-1
 481 649 l 2,51,52
 481 696 481 696 448.5 733 c 128,-1,53
 416 770 416 770 356 770 c 0,54,55
 293 770 293 770 254 732 c 128,-1,56
 215 694 215 694 215 641 c 0,57,58
 215 578 215 578 256 544 c 128,-1,59
 297 510 297 510 356 510 c 0,60,61
 403 510 403 510 441 541.5 c 128,-1,62
 479 573 479 573 481 649 c 1,63,-1
 481 647 l 1,50,-1
EndSplineSet
EndChar
StartChar: nine
Encoding: 57 57 28
Width: 688
Flags: W
Fore
94 250 m 0,0,1
 98 209 98 209 114.5 172 c 128,-1,2
 131 135 131 135 160.5 105.5 c 128,-1,3
 190 76 190 76 233 58.5 c 128,-1,4
 276 41 276 41 336 41 c 0,5,6
 467 41 467 41 535.5 162 c 128,-1,7
 604 283 604 283 604 494 c 1,8,9
 586 440 586 440 556 405.5 c 128,-1,10
 526 371 526 371 489.5 351.5 c 128,-1,11
 453 332 453 332 415 323.5 c 128,-1,12
 377 315 377 315 344 315 c 0,13,14
 197 315 197 315 137.5 387 c 128,-1,15
 78 459 78 459 78 573 c 0,16,17
 78 674 78 674 144.5 744.5 c 128,-1,18
 211 815 211 815 340 815 c 0,19,20
 475 815 475 815 559 723 c 128,-1,21
 643 631 643 631 643 457 c 0,22,23
 643 360 643 360 624.5 277.5 c 128,-1,24
 606 195 606 195 569 133.5 c 128,-1,25
 532 72 532 72 475 37 c 128,-1,26
 418 2 418 2 340 2 c 0,27,28
 268 2 268 2 215 22.5 c 128,-1,29
 162 43 162 43 126 77 c 128,-1,30
 90 111 90 111 71.5 154 c 128,-1,31
 53 197 53 197 53 244 c 0,32,33
 53 264 53 264 71.5 269 c 128,-1,34
 90 274 90 274 94 250 c 0,0,1
559 637 m 0,35,36
 530 696 530 696 483 734 c 128,-1,37
 436 772 436 772 340 772 c 0,38,39
 281 772 281 772 239 753.5 c 128,-1,40
 197 735 197 735 170 706.5 c 128,-1,41
 143 678 143 678 132 643 c 128,-1,42
 121 608 121 608 121 575 c 0,43,44
 121 539 121 539 131 500 c 128,-1,45
 141 461 141 461 167 429 c 128,-1,46
 193 397 193 397 236 377.5 c 128,-1,47
 279 358 279 358 344 358 c 0,48,49
 387 358 387 358 428 374.5 c 128,-1,50
 469 391 469 391 502 418.5 c 128,-1,51
 535 446 535 446 554 484 c 128,-1,52
 573 522 573 522 573 565 c 0,53,54
 573 602 573 602 559 637 c 0,35,36
EndSplineSet
EndChar
StartChar: colon
Encoding: 58 58 29
Width: 352
Flags: W
Fore
96 440 m 0,0,1
 96 471 96 471 119.5 494.5 c 128,-1,2
 143 518 143 518 174 518 c 0,3,4
 207 518 207 518 230.5 494.5 c 128,-1,5
 254 471 254 471 254 440 c 0,6,7
 254 424 254 424 247.5 409.5 c 128,-1,8
 241 395 241 395 230.5 384 c 128,-1,9
 220 373 220 373 205 366.5 c 128,-1,10
 190 360 190 360 174 360 c 0,11,12
 159 360 159 360 144.5 366.5 c 128,-1,13
 130 373 130 373 119.5 384 c 128,-1,14
 109 395 109 395 102.5 409.5 c 128,-1,15
 96 424 96 424 96 440 c 0,0,1
133 442 m 0,16,17
 133 426 133 426 146.5 411.5 c 128,-1,18
 160 397 160 397 172 397 c 0,19,20
 188 397 188 397 202.5 411.5 c 128,-1,21
 217 426 217 426 217 442 c 0,22,23
 217 455 217 455 202.5 468 c 128,-1,24
 188 481 188 481 172 481 c 0,25,26
 160 481 160 481 146.5 468 c 128,-1,27
 133 455 133 455 133 442 c 0,16,17
111 131 m 0,28,29
 111 146 111 146 117.5 160.5 c 128,-1,30
 124 175 124 175 134.5 185.5 c 128,-1,31
 145 196 145 196 159 202.5 c 128,-1,32
 173 209 173 209 188 209 c 0,33,34
 221 209 221 209 244.5 185.5 c 128,-1,35
 268 162 268 162 268 131 c 0,36,37
 268 98 268 98 244.5 74.5 c 128,-1,38
 221 51 221 51 188 51 c 0,39,40
 158 51 158 51 134.5 74.5 c 128,-1,41
 111 98 111 98 111 131 c 0,28,29
147 133 m 0,42,43
 147 117 147 117 160.5 102.5 c 128,-1,44
 174 88 174 88 186 88 c 0,45,46
 203 88 203 88 217 102.5 c 128,-1,47
 231 117 231 117 231 133 c 0,48,49
 231 145 231 145 217 158.5 c 128,-1,50
 203 172 203 172 186 172 c 0,51,52
 174 172 174 172 160.5 158.5 c 128,-1,53
 147 145 147 145 147 133 c 0,42,43
EndSplineSet
EndChar
StartChar: semicolon
Encoding: 59 59 30
Width: 352
Flags: W
Fore
123 -76 m 1,0,1
 201 -59 201 -59 233.5 -8 c 128,-1,2
 266 43 266 43 250 100 c 1,3,4
 246 82 246 82 228.5 69.5 c 128,-1,5
 211 57 211 57 186 57 c 0,6,7
 158 57 158 57 135.5 78.5 c 128,-1,8
 113 100 113 100 113 131 c 0,9,10
 113 160 113 160 134.5 182.5 c 128,-1,11
 156 205 156 205 190 205 c 0,12,13
 223 205 223 205 254 173 c 128,-1,14
 285 141 285 141 283 63 c 0,15,16
 279 -16 279 -16 230.5 -53 c 128,-1,17
 182 -90 182 -90 135 -98 c 1,18,19
 119 -98 119 -98 116 -89 c 128,-1,20
 113 -80 113 -80 123 -76 c 1,0,1
115 463 m 0,21,22
 115 494 115 494 138.5 517.5 c 128,-1,23
 162 541 162 541 193 541 c 0,24,25
 225 541 225 541 248.5 517.5 c 128,-1,26
 272 494 272 494 272 463 c 0,27,28
 272 430 272 430 248.5 406.5 c 128,-1,29
 225 383 225 383 193 383 c 0,30,31
 162 383 162 383 138.5 406.5 c 128,-1,32
 115 430 115 430 115 463 c 0,21,22
145 135 m 0,33,34
 145 117 145 117 158.5 102.5 c 128,-1,35
 172 88 172 88 186 88 c 0,36,37
 205 88 205 88 219 102.5 c 128,-1,38
 233 117 233 117 233 135 c 0,39,40
 233 150 233 150 219 163 c 128,-1,41
 205 176 205 176 186 176 c 0,42,43
 172 176 172 176 158.5 163 c 128,-1,44
 145 150 145 150 145 135 c 0,33,34
152 465 m 0,45,46
 152 449 152 449 165 434.5 c 128,-1,47
 178 420 178 420 190 420 c 0,48,49
 207 420 207 420 221.5 434.5 c 128,-1,50
 236 449 236 449 236 465 c 0,51,52
 236 477 236 477 221.5 490.5 c 128,-1,53
 207 504 207 504 190 504 c 0,54,55
 178 504 178 504 165 490.5 c 128,-1,56
 152 477 152 477 152 465 c 0,45,46
EndSplineSet
EndChar
StartChar: less
Encoding: 60 60 31
Width: 786
Flags: W
Fore
664 123 m 0,0,1
 676 117 676 117 681 104.5 c 128,-1,2
 686 92 686 92 682 84 c 128,-1,3
 678 76 678 76 662.5 73 c 128,-1,4
 647 70 647 70 616 82 c 0,5,6
 582 94 582 94 529.5 110.5 c 128,-1,7
 477 127 477 127 421 144.5 c 128,-1,8
 365 162 365 162 309.5 181.5 c 128,-1,9
 254 201 254 201 209 221.5 c 128,-1,10
 164 242 164 242 136.5 263.5 c 128,-1,11
 109 285 109 285 109 307 c 0,12,13
 109 332 109 332 147.5 357.5 c 128,-1,14
 186 383 186 383 245.5 407.5 c 128,-1,15
 305 432 305 432 375.5 455.5 c 128,-1,16
 446 479 446 479 507.5 496.5 c 128,-1,17
 569 514 569 514 613 524.5 c 128,-1,18
 657 535 657 535 664 537 c 1,19,20
 700 537 700 537 696 520.5 c 128,-1,21
 692 504 692 504 666 496 c 0,22,23
 653 492 653 492 611 480.5 c 128,-1,24
 569 469 569 469 513 451.5 c 128,-1,25
 457 434 457 434 394.5 413.5 c 128,-1,26
 332 393 332 393 278.5 373.5 c 128,-1,27
 225 354 225 354 191.5 336.5 c 128,-1,28
 158 319 158 319 158 307 c 0,29,30
 158 293 158 293 193.5 274.5 c 128,-1,31
 229 256 229 256 282.5 236.5 c 128,-1,32
 336 217 336 217 399.5 198.5 c 128,-1,33
 463 180 463 180 518 165 c 128,-1,34
 573 150 573 150 614 138.5 c 128,-1,35
 655 127 655 127 664 123 c 0,0,1
EndSplineSet
EndChar
StartChar: equal
Encoding: 61 61 32
Width: 635
Flags: W
Fore
80 459 m 1,0,1
 68 461 68 461 60.5 470 c 128,-1,2
 53 479 53 479 54 488.5 c 128,-1,3
 55 498 55 498 64.5 504 c 128,-1,4
 74 510 74 510 94 508 c 2,5,-1
 539 512 l 2,6,7
 551 512 551 512 557 505 c 128,-1,8
 563 498 563 498 564 488.5 c 128,-1,9
 565 479 565 479 558 471 c 128,-1,10
 551 463 551 463 535 463 c 2,11,-1
 80 459 l 1,0,1
80 309 m 1,12,13
 68 311 68 311 60.5 320.5 c 128,-1,14
 53 330 53 330 54 339 c 128,-1,15
 55 348 55 348 64.5 354 c 128,-1,16
 74 360 74 360 94 358 c 2,17,-1
 543 371 l 2,18,19
 555 371 555 371 561 363.5 c 128,-1,20
 567 356 567 356 568 347 c 128,-1,21
 569 338 569 338 562 330 c 128,-1,22
 555 322 555 322 539 322 c 2,23,-1
 80 309 l 1,12,13
EndSplineSet
EndChar
StartChar: greater
Encoding: 62 62 33
Width: 786
Flags: W
Fore
137 123 m 0,0,1
 145 127 145 127 186 138.5 c 128,-1,2
 227 150 227 150 282.5 165 c 128,-1,3
 338 180 338 180 401.5 198.5 c 128,-1,4
 465 217 465 217 518 236.5 c 128,-1,5
 571 256 571 256 607 274.5 c 128,-1,6
 643 293 643 293 643 307 c 0,7,8
 643 319 643 319 609 336.5 c 128,-1,9
 575 354 575 354 522 373.5 c 128,-1,10
 469 393 469 393 406.5 413.5 c 128,-1,11
 344 434 344 434 287.5 451.5 c 128,-1,12
 231 469 231 469 188 480.5 c 128,-1,13
 145 492 145 492 135 496 c 0,14,15
 109 504 109 504 104.5 520.5 c 128,-1,16
 100 537 100 537 137 537 c 1,17,18
 143 535 143 535 187 524.5 c 128,-1,19
 231 514 231 514 292.5 496.5 c 128,-1,20
 354 479 354 479 425 455.5 c 128,-1,21
 496 432 496 432 555 407.5 c 128,-1,22
 614 383 614 383 653 357.5 c 128,-1,23
 692 332 692 332 692 307 c 0,24,25
 692 285 692 285 664.5 263.5 c 128,-1,26
 637 242 637 242 592 221.5 c 128,-1,27
 547 201 547 201 491.5 181.5 c 128,-1,28
 436 162 436 162 380 144.5 c 128,-1,29
 324 127 324 127 272.5 110.5 c 128,-1,30
 221 94 221 94 184 82 c 0,31,32
 154 70 154 70 138.5 73 c 128,-1,33
 123 76 123 76 119 84 c 128,-1,34
 115 92 115 92 120 104.5 c 128,-1,35
 125 117 125 117 137 123 c 0,0,1
EndSplineSet
EndChar
StartChar: question
Encoding: 63 63 34
Width: 618
Flags: W
Fore
254 78 m 0,0,1
 254 96 254 96 268.5 110.5 c 128,-1,2
 283 125 283 125 303 125 c 0,3,4
 322 125 322 125 336 110.5 c 128,-1,5
 350 96 350 96 350 78 c 0,6,7
 350 57 350 57 336 43 c 128,-1,8
 322 29 322 29 303 29 c 0,9,10
 283 29 283 29 268.5 43 c 128,-1,11
 254 57 254 57 254 78 c 0,0,1
211 502 m 1,12,13
 156 510 156 510 115 549 c 128,-1,14
 74 588 74 588 74 649 c 0,15,16
 74 745 74 745 135.5 800.5 c 128,-1,17
 197 856 197 856 307 856 c 0,18,19
 365 856 365 856 409 835.5 c 128,-1,20
 453 815 453 815 480.5 782.5 c 128,-1,21
 508 750 508 750 522.5 709 c 128,-1,22
 537 668 537 668 537 627 c 0,23,24
 537 559 537 559 504 514 c 128,-1,25
 471 469 471 469 432 428 c 128,-1,26
 393 387 393 387 360.5 343 c 128,-1,27
 328 299 328 299 328 233 c 0,28,29
 328 223 328 223 319.5 217 c 128,-1,30
 311 211 311 211 301 209 c 1,31,32
 285 215 285 215 280.5 234.5 c 128,-1,33
 276 254 276 254 287 301 c 0,34,35
 299 354 299 354 332 391 c 128,-1,36
 365 428 365 428 399.5 462 c 128,-1,37
 434 496 434 496 460.5 533.5 c 128,-1,38
 487 571 487 571 487 627 c 0,39,40
 487 696 487 696 442 750.5 c 128,-1,41
 397 805 397 805 309 805 c 0,42,43
 209 805 209 805 166 761 c 128,-1,44
 123 717 123 717 123 649 c 0,45,46
 123 610 123 610 150.5 586.5 c 128,-1,47
 178 563 178 563 211 553 c 0,48,49
 238 543 238 543 232.5 524.5 c 128,-1,50
 227 506 227 506 211 502 c 1,12,13
EndSplineSet
EndChar
StartChar: at
Encoding: 64 64 35
Width: 1051
Flags: W
Fore
657 475 m 2,0,1
 653 539 653 539 611 573.5 c 128,-1,2
 569 608 569 608 524 612 c 0,3,4
 475 614 475 614 441.5 593.5 c 128,-1,5
 408 573 408 573 386.5 543.5 c 128,-1,6
 365 514 365 514 354.5 483.5 c 128,-1,7
 344 453 344 453 342 434 c 0,8,9
 340 403 340 403 344 368.5 c 128,-1,10
 348 334 348 334 364.5 303 c 128,-1,11
 381 272 381 272 411.5 249.5 c 128,-1,12
 442 227 442 227 492 223 c 0,13,14
 541 219 541 219 582 237.5 c 128,-1,15
 623 256 623 256 639 297 c 0,16,17
 645 315 645 315 649 337.5 c 128,-1,18
 653 360 653 360 657 412 c 2,19,-1
 657 475 l 2,0,1
881 469 m 0,20,21
 881 537 881 537 855 595 c 128,-1,22
 829 653 829 653 783 695 c 128,-1,23
 737 737 737 737 672.5 760.5 c 128,-1,24
 608 784 608 784 530 784 c 0,25,26
 451 784 451 784 382 755.5 c 128,-1,27
 313 727 313 727 262 677 c 128,-1,28
 211 627 211 627 182.5 558 c 128,-1,29
 154 489 154 489 154 412 c 0,30,31
 154 307 154 307 204 224 c 128,-1,32
 254 141 254 141 340 92 c 256,33,34
 426 43 426 43 553 43 c 0,35,36
 571 43 571 43 593.5 45 c 128,-1,37
 616 47 616 47 639 51 c 128,-1,38
 662 55 662 55 682 59 c 128,-1,39
 702 63 702 63 715 68 c 1,40,41
 729 63 729 63 731 50 c 128,-1,42
 733 37 733 37 711 27 c 0,43,44
 676 14 676 14 635 8 c 128,-1,45
 594 2 594 2 553 2 c 0,46,47
 455 2 455 2 373 32.5 c 128,-1,48
 291 63 291 63 231.5 117.5 c 128,-1,49
 172 172 172 172 139 248 c 128,-1,50
 106 324 106 324 106 414 c 0,51,52
 106 500 106 500 139 575.5 c 128,-1,53
 172 651 172 651 229.5 707.5 c 128,-1,54
 287 764 287 764 365.5 795.5 c 128,-1,55
 444 827 444 827 535 827 c 0,56,57
 616 827 616 827 688 799.5 c 128,-1,58
 760 772 760 772 812 724 c 128,-1,59
 864 676 864 676 894 610.5 c 128,-1,60
 924 545 924 545 924 469 c 0,61,62
 924 418 924 418 911.5 360.5 c 128,-1,63
 899 303 899 303 873.5 258 c 128,-1,64
 848 213 848 213 808 189.5 c 128,-1,65
 768 166 768 166 713 180 c 1,66,67
 690 178 690 178 674.5 197.5 c 128,-1,68
 659 217 659 217 649 242 c 1,69,70
 627 207 627 207 584 194.5 c 128,-1,71
 541 182 541 182 492 186 c 0,72,73
 426 190 426 190 388 217 c 128,-1,74
 350 244 350 244 330.5 281.5 c 128,-1,75
 311 319 311 319 307 361 c 128,-1,76
 303 403 303 403 305 438 c 0,77,78
 307 465 307 465 319.5 502 c 128,-1,79
 332 539 332 539 357.5 571.5 c 128,-1,80
 383 604 383 604 424 626.5 c 128,-1,81
 465 649 465 649 524 645 c 0,82,83
 571 641 571 641 605 621.5 c 128,-1,84
 639 602 639 602 670 559 c 1,85,-1
 678 612 l 1,86,87
 684 631 684 631 705.5 626 c 128,-1,88
 727 621 727 621 727 610 c 1,89,90
 719 588 719 588 712 537.5 c 128,-1,91
 705 487 705 487 700 434 c 0,92,93
 692 371 692 371 688 299 c 0,94,95
 684 258 684 258 697.5 239.5 c 128,-1,96
 711 221 711 221 727 217 c 0,97,98
 770 209 770 209 799.5 235.5 c 128,-1,99
 829 262 829 262 846.5 304 c 128,-1,100
 864 346 864 346 872.5 392 c 128,-1,101
 881 438 881 438 881 469 c 0,20,21
EndSplineSet
EndChar
StartChar: A
Encoding: 65 65 36
Width: 768
Flags: W
Fore
655 272 m 1,0,1
 662 270 662 270 666 264.5 c 128,-1,2
 670 259 670 259 670 253 c 128,-1,3
 670 247 670 247 666 242.5 c 128,-1,4
 662 238 662 238 653 238 c 2,5,-1
 637 238 l 1,6,-1
 694 29 l 1,7,8
 692 12 692 12 673 11 c 0,9,10
 655 10 655 10 651 20 c 2,11,-1
 596 238 l 1,12,-1
 203 238 l 1,13,-1
 137 25 l 1,14,15
 132 16 132 16 124.5 12 c 128,-1,16
 117 8 117 8 109.5 8.5 c 128,-1,17
 102 9 102 9 97.5 13.5 c 128,-1,18
 93 18 93 18 94 27 c 1,19,-1
 170 276 l 1,20,-1
 256 528 l 2,21,22
 280 601 280 601 299.5 658.5 c 128,-1,23
 319 716 319 716 336.5 756 c 128,-1,24
 354 796 354 796 370 817 c 128,-1,25
 386 838 386 838 403 838 c 0,26,27
 436 838 436 838 468 754 c 0,28,29
 484 712 484 712 504 654.5 c 128,-1,30
 524 597 524 597 547 524 c 0,31,32
 565 470 565 470 585.5 406 c 128,-1,33
 606 342 606 342 631 272 c 1,34,-1
 655 272 l 1,0,1
575 276 m 1,35,36
 565 308 565 308 549 358.5 c 128,-1,37
 533 409 533 409 515 466 c 128,-1,38
 497 523 497 523 478.5 580 c 128,-1,39
 460 637 460 637 444 683.5 c 128,-1,40
 428 730 428 730 416.5 759 c 128,-1,41
 405 788 405 788 401 788 c 256,42,43
 397 788 397 788 382 750.5 c 128,-1,44
 367 713 367 713 347 656.5 c 128,-1,45
 327 600 327 600 304.5 534.5 c 128,-1,46
 282 469 282 469 262 412 c 0,47,48
 250 373 250 373 237.5 336 c 128,-1,49
 225 299 225 299 217 281 c 1,50,-1
 575 276 l 1,35,36
EndSplineSet
EndChar
StartChar: B
Encoding: 66 66 37
Width: 688
Flags: W
Fore
57 31 m 1,0,1
 35 35 35 35 36 53.5 c 128,-1,2
 37 72 37 72 57 76 c 1,3,-1
 92 76 l 1,4,5
 102 180 102 180 106.5 293 c 128,-1,6
 111 406 111 406 111 512 c 0,7,8
 111 571 111 571 110 627.5 c 128,-1,9
 109 684 109 684 106 739 c 1,10,11
 100 739 100 739 90 738 c 128,-1,12
 80 737 80 737 74 737 c 1,13,14
 59 748 59 748 65.5 763 c 128,-1,15
 72 778 72 778 100 788 c 0,16,17
 152 809 152 809 207 820 c 128,-1,18
 262 831 262 831 317 831 c 0,19,20
 377 831 377 831 431 818 c 128,-1,21
 485 805 485 805 527 778.5 c 128,-1,22
 569 752 569 752 593.5 709 c 128,-1,23
 618 666 618 666 618 608 c 0,24,25
 618 578 618 578 604 547 c 128,-1,26
 590 516 590 516 565.5 489.5 c 128,-1,27
 541 463 541 463 509 443.5 c 128,-1,28
 477 424 477 424 444 416 c 1,29,30
 516 397 516 397 563 341 c 128,-1,31
 610 285 610 285 606 213 c 0,32,33
 602 127 602 127 552 88 c 128,-1,34
 502 49 502 49 430 36 c 128,-1,35
 358 23 358 23 278.5 27 c 128,-1,36
 199 31 199 31 133 31 c 1,37,38
 127 8 127 8 109.5 8 c 128,-1,39
 92 8 92 8 90 31 c 1,40,-1
 57 31 l 1,0,1
152 770 m 1,41,42
 156 596 156 596 155 422 c 128,-1,43
 154 248 154 248 133 66 c 1,44,45
 178 68 178 68 251 64.5 c 128,-1,46
 324 61 324 61 394.5 70.5 c 128,-1,47
 465 80 465 80 516 110.5 c 128,-1,48
 567 141 567 141 569 211 c 0,49,50
 571 307 571 307 498.5 352 c 128,-1,51
 426 397 426 397 299 399 c 2,52,-1
 258 399 l 2,53,54
 231 399 231 399 231 420 c 0,55,56
 231 434 231 434 238.5 436 c 128,-1,57
 246 438 246 438 268 438 c 0,58,59
 276 438 276 438 285.5 438 c 128,-1,60
 295 438 295 438 305 440 c 2,61,62
 356 438 356 438 406.5 448.5 c 128,-1,63
 457 459 457 459 496 479.5 c 128,-1,64
 535 500 535 500 558.5 532.5 c 128,-1,65
 582 565 582 565 582 608 c 0,66,67
 582 657 582 657 557 693 c 128,-1,68
 532 729 532 729 492.5 752.5 c 128,-1,69
 453 776 453 776 402.5 786.5 c 128,-1,70
 352 797 352 797 301 797 c 0,71,72
 211 797 211 797 150 768 c 1,73,-1
 152 770 l 1,41,42
EndSplineSet
EndChar
StartChar: C
Encoding: 67 67 38
Width: 809
Flags: W
Fore
731 821 m 1,0,-1
 731 754 l 2,1,2
 731 725 731 725 730 697.5 c 128,-1,3
 729 670 729 670 727 653 c 0,4,5
 723 637 723 637 709.5 637 c 128,-1,6
 696 637 696 637 686 647 c 0,7,8
 655 684 655 684 627.5 710.5 c 128,-1,9
 600 737 600 737 573.5 755.5 c 128,-1,10
 547 774 547 774 518 784.5 c 128,-1,11
 489 795 489 795 455 795 c 0,12,13
 387 797 387 797 322.5 769 c 128,-1,14
 258 741 258 741 209 688 c 128,-1,15
 160 635 160 635 130 558 c 128,-1,16
 100 481 100 481 100 385 c 256,17,18
 100 289 100 289 131 223.5 c 128,-1,19
 162 158 162 158 211 117 c 128,-1,20
 260 76 260 76 320.5 58.5 c 128,-1,21
 381 41 381 41 438 41 c 0,22,23
 553 41 553 41 630 97.5 c 128,-1,24
 707 154 707 154 729 281 c 0,25,26
 733 303 733 303 754.5 302 c 128,-1,27
 776 301 776 301 774 276 c 0,28,29
 764 201 764 201 734.5 147.5 c 128,-1,30
 705 94 705 94 659.5 61.5 c 128,-1,31
 614 29 614 29 558 13.5 c 128,-1,32
 502 -2 502 -2 438 -2 c 0,33,34
 375 -2 375 -2 308.5 17.5 c 128,-1,35
 242 37 242 37 186.5 83 c 128,-1,36
 131 129 131 129 95 201.5 c 128,-1,37
 59 274 59 274 59 383 c 0,38,39
 59 489 59 489 92 574 c 128,-1,40
 125 659 125 659 180.5 717.5 c 128,-1,41
 236 776 236 776 307.5 807 c 128,-1,42
 379 838 379 838 455 838 c 0,43,44
 524 838 524 838 581.5 803 c 128,-1,45
 639 768 639 768 690 719 c 1,46,47
 690 743 690 743 691 770 c 128,-1,48
 692 797 692 797 692 814 c 128,-1,49
 692 831 692 831 710.5 832.5 c 128,-1,50
 729 834 729 834 731 821 c 1,0,-1
EndSplineSet
EndChar
StartChar: D
Encoding: 68 68 39
Width: 791
Flags: W
Fore
162 776 m 1,0,1
 111 775 111 775 104.5 790 c 128,-1,2
 98 805 98 805 109.5 814.5 c 128,-1,3
 121 824 121 824 160 821 c 1,4,5
 162 838 162 838 180.5 838 c 128,-1,6
 199 838 199 838 203 821 c 1,7,8
 307 819 307 819 401.5 795.5 c 128,-1,9
 496 772 496 772 567.5 725 c 128,-1,10
 639 678 639 678 684 603 c 128,-1,11
 729 528 729 528 735 426 c 0,12,13
 733 328 733 328 693 249 c 128,-1,14
 653 170 653 170 584.5 115.5 c 128,-1,15
 516 61 516 61 421 32.5 c 128,-1,16
 326 4 326 4 213 6 c 0,17,18
 190 6 190 6 166.5 7 c 128,-1,19
 143 8 143 8 123 12 c 0,20,21
 106 14 106 14 105 33.5 c 128,-1,22
 104 53 104 53 119 55 c 1,23,-1
 184 47 l 1,24,-1
 162 776 l 1,0,1
225 49 m 1,25,26
 317 45 317 45 402 72.5 c 128,-1,27
 487 100 487 100 550.5 151.5 c 128,-1,28
 614 203 614 203 651 273.5 c 128,-1,29
 688 344 688 344 684 424 c 0,30,31
 680 524 680 524 637 590.5 c 128,-1,32
 594 657 594 657 526.5 698 c 128,-1,33
 459 739 459 739 375 757.5 c 128,-1,34
 291 776 291 776 203 778 c 1,35,-1
 225 49 l 1,25,26
EndSplineSet
EndChar
StartChar: E
Encoding: 69 69 40
Width: 629
Flags: W
Fore
94 63 m 1,0,1
 106 143 106 143 110.5 231 c 128,-1,2
 115 319 115 319 119 412 c 1,3,-1
 90 416 l 2,4,5
 80 416 80 416 73 422 c 128,-1,6
 66 428 66 428 72 438 c 0,7,8
 78 449 78 449 84 452 c 128,-1,9
 90 455 90 455 119 453 c 1,10,11
 119 471 119 471 121 504 c 128,-1,12
 123 537 123 537 123 581 c 128,-1,13
 123 625 123 625 122 676 c 128,-1,14
 121 727 121 727 117 780 c 1,15,16
 92 778 92 778 90 795.5 c 128,-1,17
 88 813 88 813 117 813 c 0,18,19
 176 817 176 817 247.5 818 c 128,-1,20
 319 819 319 819 386 818 c 128,-1,21
 453 817 453 817 505 814 c 128,-1,22
 557 811 557 811 575 807 c 0,23,24
 590 803 590 803 586 787.5 c 128,-1,25
 582 772 582 772 565 770 c 1,26,27
 543 772 543 772 497 774 c 128,-1,28
 451 776 451 776 393.5 778 c 128,-1,29
 336 780 336 780 274.5 779 c 128,-1,30
 213 778 213 778 160 774 c 1,31,32
 162 733 162 733 162 679 c 128,-1,33
 162 625 162 625 162 575 c 0,34,35
 162 518 162 518 160 457 c 1,36,37
 190 455 190 455 229 455 c 128,-1,38
 268 455 268 455 311 455 c 128,-1,39
 354 455 354 455 395 454 c 128,-1,40
 436 453 436 453 471 449 c 0,41,42
 483 446 483 446 486 429 c 128,-1,43
 489 412 489 412 475 412 c 2,44,45
 473 408 473 408 438 410 c 128,-1,46
 403 412 403 412 354 413 c 128,-1,47
 305 414 305 414 252 415 c 128,-1,48
 199 416 199 416 162 412 c 1,49,50
 162 377 162 377 159 333 c 128,-1,51
 156 289 156 289 153 243 c 128,-1,52
 150 197 150 197 146.5 151.5 c 128,-1,53
 143 106 143 106 143 72 c 1,54,55
 201 68 201 68 248 62.5 c 128,-1,56
 295 57 295 57 342 54 c 128,-1,57
 389 51 389 51 439 52 c 128,-1,58
 489 53 489 53 551 63 c 1,59,60
 563 63 563 63 571.5 57 c 128,-1,61
 580 51 580 51 580 45 c 0,62,63
 580 31 580 31 549 24.5 c 128,-1,64
 518 18 518 18 470 16 c 128,-1,65
 422 14 422 14 363.5 17 c 128,-1,66
 305 20 305 20 250 22.5 c 128,-1,67
 195 25 195 25 150.5 27 c 128,-1,68
 106 29 106 29 83.5 27 c 128,-1,69
 61 25 61 25 57 34 c 128,-1,70
 53 43 53 43 53 55 c 0,71,72
 53 68 53 68 64 69 c 128,-1,73
 75 70 75 70 94 63 c 1,0,1
EndSplineSet
EndChar
StartChar: F
Encoding: 70 70 41
Width: 608
Flags: W
Fore
51 410 m 1,0,-1
 129 424 l 1,1,2
 129 528 129 528 124 618.5 c 128,-1,3
 119 709 119 709 115 774 c 1,4,-1
 59 772 l 2,5,6
 39 772 39 772 38 791.5 c 128,-1,7
 37 811 37 811 59 811 c 2,8,-1
 111 813 l 1,9,-1
 106 854 l 2,10,11
 106 866 106 866 113.5 871.5 c 128,-1,12
 121 877 121 877 129 875.5 c 128,-1,13
 137 874 137 874 144.5 866 c 128,-1,14
 152 858 152 858 152 846 c 1,15,-1
 158 819 l 1,16,17
 184 819 184 819 251.5 822 c 128,-1,18
 319 825 319 825 391 824 c 128,-1,19
 463 823 463 823 518 815 c 128,-1,20
 573 807 573 807 573 786 c 0,21,22
 573 772 573 772 555 764 c 1,23,24
 524 770 524 770 490.5 773 c 128,-1,25
 457 776 457 776 412 778 c 128,-1,26
 367 780 367 780 305.5 780 c 128,-1,27
 244 780 244 780 158 778 c 1,28,29
 166 700 166 700 170 612 c 128,-1,30
 174 524 174 524 174 434 c 1,31,32
 180 434 180 434 206.5 436 c 128,-1,33
 233 438 233 438 269 439 c 128,-1,34
 305 440 305 440 346 441 c 128,-1,35
 387 442 387 442 421 439 c 128,-1,36
 455 436 455 436 477.5 429 c 128,-1,37
 500 422 500 422 500 410 c 0,38,39
 500 389 500 389 481 389 c 0,40,41
 408 395 408 395 334 398 c 128,-1,42
 260 401 260 401 174 391 c 1,43,44
 174 317 174 317 174 248.5 c 128,-1,45
 174 180 174 180 171 127 c 128,-1,46
 168 74 168 74 163 41 c 128,-1,47
 158 8 158 8 145 8 c 0,48,49
 135 8 135 8 126 8 c 128,-1,50
 117 8 117 8 115 20 c 1,51,52
 127 129 127 129 128 214 c 128,-1,53
 129 299 129 299 129 391 c 1,54,55
 106 383 106 383 87 376 c 128,-1,56
 68 369 68 369 57 369 c 0,57,58
 41 369 41 369 41 387.5 c 128,-1,59
 41 406 41 406 53 410 c 1,60,-1
 51 410 l 1,0,-1
EndSplineSet
EndChar
StartChar: G
Encoding: 71 71 42
Width: 858
Flags: W
Fore
772 393 m 0,0,1
 791 391 791 391 788.5 374.5 c 128,-1,2
 786 358 786 358 772 358 c 2,3,-1
 741 358 l 1,4,5
 743 299 743 299 730 235.5 c 128,-1,6
 717 172 717 172 683 121 c 128,-1,7
 649 70 649 70 589.5 37 c 128,-1,8
 530 4 530 4 442 4 c 0,9,10
 350 4 350 4 279.5 38 c 128,-1,11
 209 72 209 72 160 128 c 128,-1,12
 111 184 111 184 85 257 c 128,-1,13
 59 330 59 330 59 410 c 0,14,15
 59 487 59 487 85 559 c 128,-1,16
 111 631 111 631 159 686 c 128,-1,17
 207 741 207 741 273.5 774 c 128,-1,18
 340 807 340 807 420 809 c 0,19,20
 504 811 504 811 569.5 789.5 c 128,-1,21
 635 768 635 768 707 692 c 1,22,23
 717 694 717 694 718 707.5 c 128,-1,24
 719 721 719 721 715 754 c 0,25,26
 713 770 713 770 730.5 770 c 128,-1,27
 748 770 748 770 748 758 c 1,28,29
 754 719 754 719 747.5 685 c 128,-1,30
 741 651 741 651 721 653 c 1,31,32
 694 649 694 649 673.5 665.5 c 128,-1,33
 653 682 653 682 631 702 c 0,34,35
 596 733 596 733 552 749.5 c 128,-1,36
 508 766 508 766 418 764 c 0,37,38
 354 764 354 764 298 737.5 c 128,-1,39
 242 711 242 711 200 663.5 c 128,-1,40
 158 616 158 616 133.5 550.5 c 128,-1,41
 109 485 109 485 109 410 c 0,42,43
 109 332 109 332 131.5 266.5 c 128,-1,44
 154 201 154 201 196 151.5 c 128,-1,45
 238 102 238 102 300 74.5 c 128,-1,46
 362 47 362 47 442 47 c 0,47,48
 516 47 516 47 565 70.5 c 128,-1,49
 614 94 614 94 644 135 c 128,-1,50
 674 176 674 176 685 231.5 c 128,-1,51
 696 287 696 287 696 350 c 1,52,53
 700 350 700 350 686 351 c 128,-1,54
 672 352 672 352 629 356 c 0,55,56
 616 358 616 358 610 365.5 c 128,-1,57
 604 373 604 373 605 380 c 128,-1,58
 606 387 606 387 611 393 c 128,-1,59
 616 399 616 399 627 399 c 0,60,61
 672 395 672 395 693.5 395 c 128,-1,62
 715 395 715 395 727 395 c 128,-1,63
 739 395 739 395 746.5 395 c 128,-1,64
 754 395 754 395 772 393 c 0,0,1
EndSplineSet
EndChar
StartChar: H
Encoding: 72 72 43
Width: 782
Flags: W
Fore
141 395 m 1,0,-1
 176 827 l 2,1,2
 178 840 178 840 186.5 844 c 128,-1,3
 195 848 195 848 204 847 c 128,-1,4
 213 846 213 846 219 840 c 128,-1,5
 225 834 225 834 223 825 c 2,6,-1
 182 395 l 1,7,-1
 618 389 l 1,8,-1
 600 827 l 2,9,10
 600 838 600 838 607 843 c 128,-1,11
 614 848 614 848 623.5 848 c 128,-1,12
 633 848 633 848 640 843 c 128,-1,13
 647 838 647 838 645 829 c 1,14,-1
 662 389 l 1,15,-1
 709 387 l 2,16,17
 731 385 731 385 731 365.5 c 128,-1,18
 731 346 731 346 711 346 c 2,19,-1
 662 346 l 1,20,-1
 668 39 l 2,21,22
 668 27 668 27 661.5 19.5 c 128,-1,23
 655 12 655 12 646 10 c 128,-1,24
 637 8 637 8 630 11 c 128,-1,25
 623 14 623 14 623 27 c 2,26,-1
 623 346 l 1,27,-1
 174 354 l 1,28,-1
 152 14 l 1,29,30
 147 0 147 0 126.5 3 c 128,-1,31
 106 6 106 6 111 20 c 1,32,-1
 135 356 l 1,33,-1
 84 358 l 1,34,35
 63 362 63 362 66.5 379.5 c 128,-1,36
 70 397 70 397 86 397 c 2,37,-1
 141 395 l 1,0,-1
EndSplineSet
EndChar
StartChar: I
Encoding: 73 73 44
Width: 455
Flags: W
Fore
213 53 m 1,0,1
 215 78 215 78 218 135.5 c 128,-1,2
 221 193 221 193 223 265.5 c 128,-1,3
 225 338 225 338 228 419 c 128,-1,4
 231 500 231 500 233.5 573.5 c 128,-1,5
 236 647 236 647 237 704.5 c 128,-1,6
 238 762 238 762 238 786 c 1,7,8
 215 788 215 788 198.5 788 c 128,-1,9
 182 788 182 788 163.5 788 c 128,-1,10
 145 788 145 788 121.5 787 c 128,-1,11
 98 786 98 786 63 784 c 0,12,13
 45 782 45 782 36 790.5 c 128,-1,14
 27 799 27 799 31 809 c 1,15,16
 33 819 33 819 83 824 c 128,-1,17
 133 829 133 829 196.5 831.5 c 128,-1,18
 260 834 260 834 322.5 831.5 c 128,-1,19
 385 829 385 829 414 825 c 0,20,21
 434 821 434 821 428 803.5 c 128,-1,22
 422 786 422 786 410 786 c 0,23,24
 356 791 356 791 332.5 791 c 128,-1,25
 309 791 309 791 279 788 c 1,26,27
 279 764 279 764 277.5 707.5 c 128,-1,28
 276 651 276 651 274 577.5 c 128,-1,29
 272 504 272 504 269 422 c 128,-1,30
 266 340 266 340 264 266.5 c 128,-1,31
 262 193 262 193 259 135.5 c 128,-1,32
 256 78 256 78 254 53 c 1,33,34
 276 49 276 49 304 47 c 128,-1,35
 332 45 332 45 354 45 c 0,36,37
 381 43 381 43 408 45 c 1,38,39
 430 43 430 43 428 24.5 c 128,-1,40
 426 6 426 6 408 6 c 2,41,-1
 51 12 l 1,42,43
 33 18 33 18 37 34.5 c 128,-1,44
 41 51 41 51 51 51 c 0,45,46
 86 49 86 49 117 49 c 0,47,48
 143 49 143 49 170 49 c 128,-1,49
 197 49 197 49 213 53 c 1,0,1
EndSplineSet
EndChar
StartChar: J
Encoding: 74 74 45
Width: 575
Flags: W
Fore
496 784 m 1,0,1
 492 717 492 717 490.5 657.5 c 128,-1,2
 489 598 489 598 489 540.5 c 128,-1,3
 489 483 489 483 490.5 426 c 128,-1,4
 492 369 492 369 489 305 c 0,5,6
 487 223 487 223 468 166 c 128,-1,7
 449 109 449 109 418 72 c 128,-1,8
 387 35 387 35 347 18.5 c 128,-1,9
 307 2 307 2 268 2 c 0,10,11
 231 2 231 2 188 12.5 c 128,-1,12
 145 23 145 23 108.5 54.5 c 128,-1,13
 72 86 72 86 49.5 143.5 c 128,-1,14
 27 201 27 201 29 295 c 0,15,16
 29 322 29 322 48.5 319.5 c 128,-1,17
 68 317 68 317 68 295 c 0,18,19
 68 209 68 209 87 157.5 c 128,-1,20
 106 106 106 106 137 80.5 c 128,-1,21
 168 55 168 55 202 48 c 128,-1,22
 236 41 236 41 264 41 c 0,23,24
 297 41 297 41 327.5 55.5 c 128,-1,25
 358 70 358 70 384 100.5 c 128,-1,26
 410 131 410 131 426 181 c 128,-1,27
 442 231 442 231 446 303 c 0,28,29
 451 373 451 373 451 433.5 c 128,-1,30
 451 494 451 494 450 551 c 128,-1,31
 449 608 449 608 447.5 665.5 c 128,-1,32
 446 723 446 723 451 784 c 1,33,34
 408 784 408 784 360 782 c 0,35,36
 340 780 340 780 337 793.5 c 128,-1,37
 334 807 334 807 342 815 c 0,38,39
 348 821 348 821 377 823 c 128,-1,40
 406 825 406 825 441.5 825 c 128,-1,41
 477 825 477 825 514 824 c 128,-1,42
 551 823 551 823 571 821 c 0,43,44
 594 819 594 819 598 813 c 128,-1,45
 602 807 602 807 598 797 c 0,46,47
 594 784 594 784 568.5 785 c 128,-1,48
 543 786 543 786 496 784 c 1,0,1
EndSplineSet
EndChar
StartChar: K
Encoding: 75 75 46
Width: 688
Flags: W
Fore
203 453 m 1,0,1
 207 434 207 434 246 390 c 128,-1,2
 285 346 285 346 346.5 291 c 128,-1,3
 408 236 408 236 484.5 174.5 c 128,-1,4
 561 113 561 113 643 57 c 0,5,6
 651 51 651 51 651 43 c 128,-1,7
 651 35 651 35 647 27.5 c 128,-1,8
 643 20 643 20 634 17 c 128,-1,9
 625 14 625 14 616 23 c 1,10,11
 532 82 532 82 467.5 131 c 128,-1,12
 403 180 403 180 350 227 c 128,-1,13
 297 274 297 274 251 323.5 c 128,-1,14
 205 373 205 373 156 430 c 1,15,-1
 150 45 l 1,16,17
 147 31 147 31 139 23.5 c 128,-1,18
 131 16 131 16 123 17 c 128,-1,19
 115 18 115 18 107.5 25.5 c 128,-1,20
 100 33 100 33 102 47 c 0,21,22
 104 170 104 170 106.5 271.5 c 128,-1,23
 109 373 109 373 109 465 c 128,-1,24
 109 557 109 557 109 643 c 128,-1,25
 109 729 109 729 106 819 c 0,26,27
 106 827 106 827 113.5 831.5 c 128,-1,28
 121 836 121 836 129 835 c 128,-1,29
 137 834 137 834 144.5 828.5 c 128,-1,30
 152 823 152 823 152 815 c 0,31,32
 150 717 150 717 151 638 c 128,-1,33
 152 559 152 559 156 481 c 1,34,35
 272 557 272 557 373 625 c 0,36,37
 416 653 416 653 459 683 c 128,-1,38
 502 713 502 713 538.5 739.5 c 128,-1,39
 575 766 575 766 604 787.5 c 128,-1,40
 633 809 633 809 647 823 c 1,41,42
 666 834 666 834 674 814.5 c 128,-1,43
 682 795 682 795 672 786 c 0,44,45
 655 770 655 770 627.5 747.5 c 128,-1,46
 600 725 600 725 563 699.5 c 128,-1,47
 526 674 526 674 485 644 c 128,-1,48
 444 614 444 614 406 588 c 0,49,50
 311 522 311 522 203 453 c 1,0,1
EndSplineSet
EndChar
StartChar: L
Encoding: 76 76 47
Width: 592
Flags: W
Fore
113 203 m 0,0,1
 111 172 111 172 115 144.5 c 128,-1,2
 119 117 119 117 135.5 95.5 c 128,-1,3
 152 74 152 74 182.5 63.5 c 128,-1,4
 213 53 213 53 266 57 c 0,5,6
 324 61 324 61 384 70.5 c 128,-1,7
 444 80 444 80 520 90 c 0,8,9
 530 92 530 92 538.5 87 c 128,-1,10
 547 82 547 82 550 72.5 c 128,-1,11
 553 63 553 63 548 54 c 128,-1,12
 543 45 543 45 528 43 c 0,13,14
 487 37 487 37 456.5 32 c 128,-1,15
 426 27 426 27 397.5 22.5 c 128,-1,16
 369 18 369 18 338 16 c 128,-1,17
 307 14 307 14 270 14 c 0,18,19
 217 14 217 14 179 18.5 c 128,-1,20
 141 23 141 23 117.5 42 c 128,-1,21
 94 61 94 61 83 104 c 128,-1,22
 72 147 72 147 72 227 c 0,23,24
 76 358 76 358 83 466.5 c 128,-1,25
 90 575 90 575 100 655 c 0,26,27
 111 748 111 748 123 823 c 0,28,29
 125 831 125 831 132 836.5 c 128,-1,30
 139 842 139 842 148.5 841 c 128,-1,31
 158 840 158 840 164 833.5 c 128,-1,32
 170 827 170 827 168 817 c 0,33,34
 139 664 139 664 130 506 c 128,-1,35
 121 348 121 348 113 203 c 0,0,1
EndSplineSet
EndChar
StartChar: M
Encoding: 77 77 48
Width: 956
Flags: W
Fore
834 27 m 0,0,1
 836 10 836 10 829.5 5 c 128,-1,2
 823 0 823 0 813 0 c 256,3,4
 803 0 803 0 788 6 c 1,5,6
 786 57 786 57 783 136 c 128,-1,7
 780 215 780 215 777 303 c 128,-1,8
 774 391 774 391 769 479 c 128,-1,9
 764 567 764 567 758 638 c 128,-1,10
 752 709 752 709 745.5 752 c 128,-1,11
 739 795 739 795 733 795 c 1,12,13
 694 788 694 788 654 737 c 128,-1,14
 614 686 614 686 579.5 614.5 c 128,-1,15
 545 543 545 543 520.5 462 c 128,-1,16
 496 381 496 381 489 315 c 0,17,18
 487 293 487 293 471 293 c 128,-1,19
 455 293 455 293 451 309 c 0,20,21
 440 369 440 369 416.5 453 c 128,-1,22
 393 537 393 537 361.5 613.5 c 128,-1,23
 330 690 330 690 294 743.5 c 128,-1,24
 258 797 258 797 223 797 c 0,25,26
 211 797 211 797 198.5 734.5 c 128,-1,27
 186 672 186 672 177 564.5 c 128,-1,28
 168 457 168 457 162 315.5 c 128,-1,29
 156 174 156 174 156 18 c 1,30,31
 150 6 150 6 135.5 6 c 128,-1,32
 121 6 121 6 111 14 c 1,33,34
 113 426 113 426 135.5 634 c 128,-1,35
 158 842 158 842 217 842 c 0,36,37
 254 842 254 842 291 809 c 128,-1,38
 328 776 328 776 360.5 719 c 128,-1,39
 393 662 393 662 422 583 c 128,-1,40
 451 504 451 504 471 412 c 1,41,42
 485 504 485 504 516 583 c 128,-1,43
 547 662 547 662 586 719 c 128,-1,44
 625 776 625 776 668 809 c 128,-1,45
 711 842 711 842 748 842 c 0,46,47
 774 842 774 842 787.5 782.5 c 128,-1,48
 801 723 801 723 808 614.5 c 128,-1,49
 815 506 815 506 819 356.5 c 128,-1,50
 823 207 823 207 834 27 c 0,0,1
EndSplineSet
EndChar
StartChar: N
Encoding: 78 78 49
Width: 877
Flags: W
Fore
164 762 m 1,0,1
 153 588 153 588 158 397 c 0,2,3
 160 301 160 301 161 209.5 c 128,-1,4
 162 118 162 118 162 27 c 0,5,6
 162 20 162 20 154.5 16.5 c 128,-1,7
 147 13 147 13 137.5 13 c 128,-1,8
 128 13 128 13 120.5 16.5 c 128,-1,9
 113 20 113 20 113 27 c 0,10,11
 115 92 115 92 114.5 178 c 128,-1,12
 114 264 114 264 113.5 354 c 128,-1,13
 113 444 113 444 113 531 c 128,-1,14
 113 618 113 618 116.5 686 c 128,-1,15
 120 754 120 754 127.5 796 c 128,-1,16
 135 838 135 838 150 838 c 0,17,18
 168 838 168 838 213 781 c 256,19,20
 258 724 258 724 315 638.5 c 128,-1,21
 372 553 372 553 435 453 c 2,22,-1
 552 268 l 2,23,24
 579 225 579 225 602 189.5 c 128,-1,25
 625 154 625 154 645 125 c 0,26,27
 684 68 684 68 692 66 c 0,28,29
 697 64 697 64 701.5 91 c 128,-1,30
 706 118 706 118 709 167.5 c 128,-1,31
 712 217 712 217 714.5 287 c 128,-1,32
 717 357 717 357 718.5 441.5 c 128,-1,33
 720 526 720 526 720.5 621 c 128,-1,34
 721 716 721 716 721 817 c 1,35,36
 726 840 726 840 745 837 c 0,37,38
 766 834 766 834 766 813 c 2,39,-1
 766 546 l 2,40,41
 766 476 766 476 764.5 411.5 c 128,-1,42
 763 347 763 347 761 287 c 0,43,44
 757 170 757 170 741 91 c 0,45,46
 727 14 727 14 696 16 c 0,47,48
 670 18 670 18 625 75 c 0,49,50
 602 104 602 104 576 140 c 128,-1,51
 550 176 550 176 521 220 c 256,52,53
 492 264 492 264 461 311.5 c 128,-1,54
 430 359 430 359 396 413 c 0,55,56
 363 467 363 467 329.5 518.5 c 128,-1,57
 296 570 296 570 262 621 c 2,58,-1
 213 692 l 2,59,60
 204 706 204 706 195 718 c 128,-1,61
 186 730 186 730 178 741 c 256,62,63
 170 752 170 752 166.5 757.5 c 128,-1,64
 163 763 163 763 164 762 c 1,0,1
EndSplineSet
EndChar
StartChar: O
Encoding: 79 79 50
Width: 922
Flags: W
Fore
850 389 m 0,0,1
 846 289 846 289 810 217 c 128,-1,2
 774 145 774 145 716.5 100 c 128,-1,3
 659 55 659 55 586.5 33.5 c 128,-1,4
 514 12 514 12 438 12 c 0,5,6
 373 12 373 12 306.5 33.5 c 128,-1,7
 240 55 240 55 186.5 101 c 128,-1,8
 133 147 133 147 99.5 218 c 128,-1,9
 66 289 66 289 66 387 c 0,10,11
 66 487 66 487 92.5 569 c 128,-1,12
 119 651 119 651 168 708.5 c 128,-1,13
 217 766 217 766 285.5 797.5 c 128,-1,14
 354 829 354 829 440 829 c 256,15,16
 526 829 526 829 602 798.5 c 128,-1,17
 678 768 678 768 734.5 710.5 c 128,-1,18
 791 653 791 653 821.5 571 c 128,-1,19
 852 489 852 489 850 389 c 0,0,1
805 389 m 0,20,21
 797 582 797 582 694.5 683 c 128,-1,22
 592 784 592 784 440 782 c 0,23,24
 371 782 371 782 311.5 756.5 c 128,-1,25
 252 731 252 731 208 682 c 128,-1,26
 164 633 164 633 139.5 559 c 128,-1,27
 115 485 115 485 115 387 c 0,28,29
 115 293 115 293 147.5 229.5 c 128,-1,30
 180 166 180 166 229.5 128 c 128,-1,31
 279 90 279 90 336 73.5 c 128,-1,32
 393 57 393 57 442 57 c 0,33,34
 506 57 506 57 569.5 72.5 c 128,-1,35
 633 88 633 88 684 126 c 128,-1,36
 735 164 735 164 769 228.5 c 128,-1,37
 803 293 803 293 805 389 c 0,20,21
EndSplineSet
EndChar
StartChar: P
Encoding: 80 80 51
Width: 678
Flags: W
Fore
139 743 m 1,0,1
 143 682 143 682 147.5 585.5 c 128,-1,2
 152 489 152 489 158 403 c 1,3,4
 236 375 236 375 314.5 372 c 128,-1,5
 393 369 393 369 457.5 390.5 c 128,-1,6
 522 412 522 412 562 458 c 128,-1,7
 602 504 602 504 604 575 c 0,8,9
 606 639 606 639 564 688 c 128,-1,10
 522 737 522 737 454.5 762.5 c 128,-1,11
 387 788 387 788 303 785 c 128,-1,12
 219 782 219 782 139 743 c 1,0,1
133 780 m 1,13,14
 207 817 207 817 296 822 c 128,-1,15
 385 827 385 827 463 801.5 c 128,-1,16
 541 776 541 776 593 719 c 128,-1,17
 645 662 645 662 643 573 c 0,18,19
 641 487 641 487 597 431 c 128,-1,20
 553 375 553 375 483.5 349.5 c 128,-1,21
 414 324 414 324 328 327 c 128,-1,22
 242 330 242 330 156 362 c 1,23,-1
 154 12 l 2,24,25
 154 4 154 4 144.5 -1 c 128,-1,26
 135 -6 135 -6 126 -7 c 128,-1,27
 117 -8 117 -8 109.5 -3 c 128,-1,28
 102 2 102 2 102 14 c 0,29,30
 115 231 115 231 107.5 416.5 c 128,-1,31
 100 602 100 602 100 723 c 1,32,-1
 82 715 l 1,33,34
 72 705 72 705 62.5 715 c 128,-1,35
 53 725 53 725 64 739 c 0,36,37
 78 754 78 754 88 760 c 0,38,39
 94 764 94 764 98 766 c 1,40,-1
 96 811 l 2,41,42
 94 827 94 827 102.5 828 c 128,-1,43
 111 829 111 829 121 828 c 128,-1,44
 131 827 131 827 132 802.5 c 128,-1,45
 133 778 133 778 133 780 c 1,13,14
EndSplineSet
EndChar
StartChar: Q
Encoding: 81 81 52
Width: 901
Flags: W
Fore
817 63 m 2,0,1
 827 51 827 51 819 35.5 c 128,-1,2
 811 20 811 20 795 27 c 2,3,4
 791.5 29 l 130,-1,5
 788 31 788 31 779 39 c 128,-1,6
 770 47 770 47 751.5 65.5 c 128,-1,7
 733 84 733 84 700 119 c 1,8,9
 647 72 647 72 577.5 45 c 128,-1,10
 508 18 508 18 432 18 c 0,11,12
 260 18 260 18 164 122.5 c 128,-1,13
 68 227 68 227 63 414 c 0,14,15
 61 512 61 512 95 591 c 128,-1,16
 129 670 129 670 183.5 724 c 128,-1,17
 238 778 238 778 308.5 806 c 128,-1,18
 379 834 379 834 451 834 c 0,19,20
 518 834 518 834 586.5 806 c 128,-1,21
 655 778 655 778 710.5 725 c 128,-1,22
 766 672 766 672 800 593 c 128,-1,23
 834 514 834 514 834 412 c 0,24,25
 834 322 834 322 811 262.5 c 128,-1,26
 788 203 788 203 735 143 c 1,27,-1
 817 63 l 2,0,1
705 176 m 1,28,29
 748 227 748 227 770.5 282.5 c 128,-1,30
 793 338 793 338 788 416 c 0,31,32
 782 498 782 498 752.5 566.5 c 128,-1,33
 723 635 723 635 676 684 c 128,-1,34
 629 733 629 733 570.5 759.5 c 128,-1,35
 512 786 512 786 451 786 c 0,36,37
 391 786 391 786 330.5 760.5 c 128,-1,38
 270 735 270 735 221 686 c 128,-1,39
 172 637 172 637 141.5 568.5 c 128,-1,40
 111 500 111 500 111 414 c 0,41,42
 111 334 111 334 133.5 269.5 c 128,-1,43
 156 205 156 205 199 159 c 128,-1,44
 242 113 242 113 301 88 c 128,-1,45
 360 63 360 63 432 63 c 0,46,47
 496 63 496 63 558.5 86 c 128,-1,48
 621 109 621 109 668 154 c 1,49,-1
 567 256 l 2,50,51
 557 268 557 268 573.5 283.5 c 128,-1,52
 590 299 590 299 600 291 c 0,53,54
 608 285 608 285 612 279.5 c 128,-1,55
 616 274 616 274 624.5 264 c 128,-1,56
 633 254 633 254 650.5 234.5 c 128,-1,57
 668 215 668 215 705 176 c 1,28,29
EndSplineSet
EndChar
StartChar: R
Encoding: 82 82 53
Width: 731
Flags: W
Fore
137 733 m 1,0,1
 141 672 141 672 140 588 c 128,-1,2
 139 504 139 504 150 418 c 1,3,4
 201 393 201 393 278.5 388 c 128,-1,5
 356 383 356 383 428 400.5 c 128,-1,6
 500 418 500 418 552 461 c 128,-1,7
 604 504 604 504 604 575 c 0,8,9
 604 641 604 641 565 689 c 128,-1,10
 526 737 526 737 461.5 760.5 c 128,-1,11
 397 784 397 784 312 779 c 128,-1,12
 227 774 227 774 137 733 c 1,0,1
137 778 m 1,13,14
 221 815 221 815 312 821 c 128,-1,15
 403 827 403 827 479 802.5 c 128,-1,16
 555 778 555 778 602 721 c 128,-1,17
 649 664 649 664 647 571 c 0,18,19
 645 489 645 489 591 438 c 128,-1,20
 537 387 537 387 460 364.5 c 128,-1,21
 383 342 383 342 300 345 c 128,-1,22
 217 348 217 348 158 377 c 1,23,-1
 621 55 l 1,24,25
 629 47 629 47 628 39 c 128,-1,26
 627 31 627 31 621.5 23.5 c 128,-1,27
 616 16 616 16 607 14 c 128,-1,28
 598 12 598 12 592 16 c 2,29,-1
 152 334 l 1,30,31
 152 287 152 287 152 236.5 c 128,-1,32
 152 186 152 186 152 141 c 128,-1,33
 152 96 152 96 151 62.5 c 128,-1,34
 150 29 150 29 147 14 c 1,35,36
 147 6 147 6 139 1 c 128,-1,37
 131 -4 131 -4 123 -4 c 128,-1,38
 115 -4 115 -4 108.5 1 c 128,-1,39
 102 6 102 6 102 18 c 0,40,41
 115 236 115 236 106.5 418 c 128,-1,42
 98 600 98 600 98 721 c 1,43,-1
 80 713 l 1,44,45
 70 702 70 702 60.5 712.5 c 128,-1,46
 51 723 51 723 61 733 c 0,47,48
 76 752 76 752 86 758 c 0,49,50
 92 762 92 762 96 764 c 1,51,-1
 94 809 l 2,52,53
 92 825 92 825 109.5 825 c 128,-1,54
 127 825 127 825 133 817 c 1,55,-1
 137 778 l 1,13,14
EndSplineSet
EndChar
StartChar: S
Encoding: 83 83 54
Width: 621
Flags: W
Fore
500 610 m 0,0,1
 498 641 498 641 487.5 673 c 128,-1,2
 477 705 477 705 455.5 730.5 c 128,-1,3
 434 756 434 756 401.5 772 c 128,-1,4
 369 788 369 788 322 788 c 0,5,6
 221 791 221 791 170 734.5 c 128,-1,7
 119 678 119 678 123 598 c 0,8,9
 125 573 125 573 133 550.5 c 128,-1,10
 141 528 141 528 163.5 506.5 c 128,-1,11
 186 485 186 485 226 465.5 c 128,-1,12
 266 446 266 446 330 428 c 0,13,14
 406 408 406 408 451 378 c 128,-1,15
 496 348 496 348 518.5 314.5 c 128,-1,16
 541 281 541 281 547 246 c 128,-1,17
 553 211 553 211 551 180 c 0,18,19
 549 152 549 152 535.5 121 c 128,-1,20
 522 90 522 90 496.5 64.5 c 128,-1,21
 471 39 471 39 431 21.5 c 128,-1,22
 391 4 391 4 336 2 c 0,23,24
 274 0 274 0 227 18.5 c 128,-1,25
 180 37 180 37 146.5 70.5 c 128,-1,26
 113 104 113 104 95.5 149.5 c 128,-1,27
 78 195 78 195 78 246 c 1,28,29
 76 256 76 256 82 261 c 128,-1,30
 88 266 88 266 97 267 c 128,-1,31
 106 268 106 268 115.5 263 c 128,-1,32
 125 258 125 258 125 248 c 0,33,34
 127 207 127 207 139.5 170 c 128,-1,35
 152 133 152 133 176.5 105.5 c 128,-1,36
 201 78 201 78 241 61.5 c 128,-1,37
 281 45 281 45 336 45 c 0,38,39
 387 45 387 45 421 60.5 c 128,-1,40
 455 76 455 76 473.5 97.5 c 128,-1,41
 492 119 492 119 499 142.5 c 128,-1,42
 506 166 506 166 508 180 c 0,43,44
 516 254 516 254 470 307 c 128,-1,45
 424 360 424 360 301 389 c 0,46,47
 203 412 203 412 143.5 461 c 128,-1,48
 84 510 84 510 76 598 c 0,49,50
 72 647 72 647 88 689 c 128,-1,51
 104 731 104 731 137 764 c 128,-1,52
 170 797 170 797 217 814 c 128,-1,53
 264 831 264 831 322 831 c 0,54,55
 418 829 418 829 478.5 771 c 128,-1,56
 539 713 539 713 543 616 c 1,57,58
 539 594 539 594 520.5 592 c 128,-1,59
 502 590 502 590 500 610 c 0,0,1
EndSplineSet
EndChar
StartChar: T
Encoding: 84 84 55
Width: 643
Flags: W
Fore
365 780 m 1,0,1
 358 745 358 745 353 679.5 c 128,-1,2
 348 614 348 614 344 536.5 c 128,-1,3
 340 459 340 459 337 376 c 128,-1,4
 334 293 334 293 332 221.5 c 128,-1,5
 330 150 330 150 329 98.5 c 128,-1,6
 328 47 328 47 328 31 c 0,7,8
 328 20 328 20 318.5 15 c 128,-1,9
 309 10 309 10 298 10 c 128,-1,10
 287 10 287 10 277.5 15 c 128,-1,11
 268 20 268 20 268 31 c 0,12,13
 268 45 268 45 270 97.5 c 128,-1,14
 272 150 272 150 274 222.5 c 128,-1,15
 276 295 276 295 280.5 379 c 128,-1,16
 285 463 285 463 288 542 c 128,-1,17
 291 621 291 621 294 684.5 c 128,-1,18
 297 748 297 748 299 778 c 1,19,20
 256 778 256 778 228.5 777 c 128,-1,21
 201 776 201 776 177.5 774 c 128,-1,22
 154 772 154 772 130 771 c 128,-1,23
 106 770 106 770 70 768 c 0,24,25
 63 768 63 768 59 775 c 128,-1,26
 55 782 55 782 54 790.5 c 128,-1,27
 53 799 53 799 56 806 c 128,-1,28
 59 813 59 813 68 813 c 0,29,30
 193 827 193 827 330 827 c 128,-1,31
 467 827 467 827 573 819 c 0,32,33
 594 817 594 817 592 794.5 c 128,-1,34
 590 772 590 772 575 770 c 0,35,36
 559 770 559 770 542.5 772 c 128,-1,37
 526 774 526 774 503.5 776 c 128,-1,38
 481 778 481 778 448.5 779 c 128,-1,39
 416 780 416 780 365 780 c 1,0,1
EndSplineSet
EndChar
StartChar: U
Encoding: 85 85 56
Width: 772
Flags: W
Fore
612 141 m 1,0,1
 590 82 590 82 532.5 44 c 128,-1,2
 475 6 475 6 373 4 c 0,3,4
 293 2 293 2 239.5 30.5 c 128,-1,5
 186 59 186 59 153.5 103 c 128,-1,6
 121 147 121 147 107.5 199.5 c 128,-1,7
 94 252 94 252 94 295 c 0,8,9
 96 414 96 414 97 500 c 128,-1,10
 98 586 98 586 99 647.5 c 128,-1,11
 100 709 100 709 101 746.5 c 128,-1,12
 102 784 102 784 102 807 c 0,13,14
 102 815 102 815 110.5 820 c 128,-1,15
 119 825 119 825 129 824 c 128,-1,16
 139 823 139 823 148.5 818 c 128,-1,17
 158 813 158 813 158 805 c 2,18,-1
 150 358 l 2,19,20
 147 309 147 309 155.5 256 c 128,-1,21
 164 203 164 203 188.5 158 c 128,-1,22
 213 113 213 113 259 83 c 128,-1,23
 305 53 305 53 379 55 c 256,24,25
 453 57 453 57 498 85 c 128,-1,26
 543 113 543 113 568.5 158 c 128,-1,27
 594 203 594 203 603 258 c 128,-1,28
 612 313 612 313 612 369 c 2,29,-1
 612 811 l 2,30,31
 612 821 612 821 620.5 826 c 128,-1,32
 629 831 629 831 638 831 c 128,-1,33
 647 831 647 831 656.5 826 c 128,-1,34
 666 821 666 821 666 813 c 2,35,-1
 674 23 l 2,36,37
 674 12 674 12 665.5 6 c 128,-1,38
 657 0 657 0 647 -1 c 128,-1,39
 637 -2 637 -2 627.5 3 c 128,-1,40
 618 8 618 8 616 25 c 1,41,42
 618 57 618 57 618 84 c 0,43,44
 618 106 618 106 617 124.5 c 128,-1,45
 616 143 616 143 612 141 c 1,0,1
EndSplineSet
EndChar
StartChar: V
Encoding: 86 86 57
Width: 780
Flags: W
Fore
358 76 m 1,0,-1
 416 72 l 1,1,-1
 633 815 l 2,2,3
 635 825 635 825 645 828 c 128,-1,4
 655 831 655 831 665.5 829 c 128,-1,5
 676 827 676 827 682 820 c 128,-1,6
 688 813 688 813 686 805 c 0,7,8
 633 610 633 610 588 451 c 0,9,10
 569 383 569 383 548.5 315.5 c 128,-1,11
 528 248 528 248 512 191.5 c 128,-1,12
 496 135 496 135 482.5 95 c 128,-1,13
 469 55 469 55 463 41 c 0,14,15
 457 23 457 23 435.5 12.5 c 128,-1,16
 414 2 414 2 389.5 1 c 128,-1,17
 365 0 365 0 344.5 9 c 128,-1,18
 324 18 324 18 317 41 c 2,19,20
 309 53 309 53 296 92 c 128,-1,21
 283 131 283 131 264.5 188.5 c 128,-1,22
 246 246 246 246 225.5 313.5 c 128,-1,23
 205 381 205 381 184 451 c 0,24,25
 135 612 135 612 80 813 c 1,26,27
 80 821 80 821 88 826 c 128,-1,28
 96 831 96 831 106.5 831 c 128,-1,29
 117 831 117 831 127 826 c 128,-1,30
 137 821 137 821 139 813 c 2,31,-1
 358 76 l 1,0,-1
EndSplineSet
EndChar
StartChar: W
Encoding: 87 87 58
Width: 1053
Flags: W
Fore
338 78 m 1,0,1
 408 221 408 221 440.5 298 c 128,-1,2
 473 375 473 375 488.5 409.5 c 128,-1,3
 504 444 504 444 510 450.5 c 128,-1,4
 516 457 516 457 532 459 c 0,5,6
 547 459 547 459 556 450.5 c 128,-1,7
 565 442 565 442 584.5 406.5 c 128,-1,8
 604 371 604 371 640 294 c 128,-1,9
 676 217 676 217 741 80 c 1,10,11
 762 176 762 176 786 291 c 0,12,13
 809 389 809 389 838.5 522 c 128,-1,14
 868 655 868 655 909 811 c 0,15,16
 911 821 911 821 920.5 824 c 128,-1,17
 930 827 930 827 940 824 c 128,-1,18
 950 821 950 821 957.5 814 c 128,-1,19
 965 807 965 807 963 799 c 0,20,21
 930 678 930 678 899 551 c 0,22,23
 872 440 872 440 841.5 305 c 128,-1,24
 811 170 811 170 786 35 c 0,25,26
 782 18 782 18 772 12 c 128,-1,27
 762 6 762 6 749.5 7 c 128,-1,28
 737 8 737 8 726 16.5 c 128,-1,29
 715 25 715 25 711 37 c 1,30,-1
 535 389 l 1,31,32
 518 354 518 354 493.5 303 c 128,-1,33
 469 252 469 252 444.5 199.5 c 128,-1,34
 420 147 420 147 398.5 102 c 128,-1,35
 377 57 377 57 369 37 c 0,36,37
 358 6 358 6 331.5 5 c 128,-1,38
 305 4 305 4 295 29 c 1,39,40
 260 186 260 186 224 326.5 c 128,-1,41
 188 467 188 467 160 571 c 0,42,43
 125 694 125 694 92 799 c 0,44,45
 88 809 88 809 94 817 c 128,-1,46
 100 825 100 825 109.5 827 c 128,-1,47
 119 829 119 829 129 824 c 128,-1,48
 139 819 139 819 145 805 c 0,49,50
 188 680 188 680 224 551 c 128,-1,51
 260 422 260 422 285 317 c 0,52,53
 313 193 313 193 338 78 c 1,0,1
EndSplineSet
EndChar
StartChar: X
Encoding: 88 88 59
Width: 784
Flags: W
Fore
346 428 m 1,0,1
 283 520 283 520 214 619.5 c 128,-1,2
 145 719 145 719 84 811 c 1,3,4
 80 821 80 821 84 828.5 c 128,-1,5
 88 836 88 836 96 839 c 128,-1,6
 104 842 104 842 114.5 841 c 128,-1,7
 125 840 125 840 131 834 c 1,8,9
 190 748 190 748 257 654.5 c 128,-1,10
 324 561 324 561 383 473 c 1,11,12
 449 559 449 559 517.5 651 c 128,-1,13
 586 743 586 743 651 829 c 0,14,15
 657 838 657 838 667.5 838 c 128,-1,16
 678 838 678 838 686 832.5 c 128,-1,17
 694 827 694 827 698 819 c 128,-1,18
 702 811 702 811 696 803 c 2,19,-1
 418 428 l 1,20,-1
 705 35 l 2,21,22
 709 29 709 29 703.5 22.5 c 128,-1,23
 698 16 698 16 689 13 c 128,-1,24
 680 10 680 10 668.5 10 c 128,-1,25
 657 10 657 10 651 16 c 1,26,-1
 381 385 l 1,27,-1
 127 25 l 2,28,29
 119 16 119 16 108.5 15 c 128,-1,30
 98 14 98 14 89 19.5 c 128,-1,31
 80 25 80 25 76 32 c 128,-1,32
 72 39 72 39 78 45 c 1,33,-1
 76 45 l 1,34,-1
 346 428 l 1,0,1
EndSplineSet
EndChar
StartChar: Y
Encoding: 89 89 60
Width: 770
Flags: W
Fore
416 31 m 2,0,1
 416 18 416 18 406.5 12 c 128,-1,2
 397 6 397 6 387 6 c 128,-1,3
 377 6 377 6 367.5 11 c 128,-1,4
 358 16 358 16 358 27 c 2,5,-1
 354 389 l 1,6,7
 326 397 326 397 287 447.5 c 128,-1,8
 248 498 248 498 209 563.5 c 128,-1,9
 170 629 170 629 137 697.5 c 128,-1,10
 104 766 104 766 88 815 c 0,11,12
 86 823 86 823 93 828.5 c 128,-1,13
 100 834 100 834 110.5 835 c 128,-1,14
 121 836 121 836 130 832.5 c 128,-1,15
 139 829 139 829 143 821 c 1,16,17
 156 778 156 778 186.5 712.5 c 128,-1,18
 217 647 217 647 252 584.5 c 128,-1,19
 287 522 287 522 322.5 478 c 128,-1,20
 358 434 358 434 383 434 c 0,21,22
 406 434 406 434 437.5 474 c 128,-1,23
 469 514 469 514 503 573.5 c 128,-1,24
 537 633 537 633 568.5 699.5 c 128,-1,25
 600 766 600 766 625 819 c 0,26,27
 629 827 629 827 639 830.5 c 128,-1,28
 649 834 649 834 659.5 831.5 c 128,-1,29
 670 829 670 829 677 822 c 128,-1,30
 684 815 684 815 680 805 c 0,31,32
 651 743 651 743 615.5 671.5 c 128,-1,33
 580 600 580 600 543 537.5 c 128,-1,34
 506 475 506 475 470 432 c 128,-1,35
 434 389 434 389 410 387 c 1,36,-1
 416 31 l 2,0,1
EndSplineSet
EndChar
StartChar: Z
Encoding: 90 90 61
Width: 768
Flags: W
Fore
106 66 m 0,0,1
 113 66 113 66 127 66 c 128,-1,2
 141 66 141 66 160 68 c 0,3,4
 201 70 201 70 262.5 73 c 128,-1,5
 324 76 324 76 395 76 c 0,6,7
 467 76 467 76 538.5 71 c 128,-1,8
 610 66 610 66 676 55 c 0,9,10
 692 51 692 51 691 33.5 c 128,-1,11
 690 16 690 16 670 18 c 0,12,13
 596 29 596 29 540.5 32 c 128,-1,14
 485 35 485 35 438 35 c 0,15,16
 401 35 401 35 369.5 34 c 128,-1,17
 338 33 338 33 303 31 c 0,18,19
 260 29 260 29 212 26 c 128,-1,20
 164 23 164 23 100 25 c 0,21,22
 92 25 92 25 81 27 c 128,-1,23
 70 29 70 29 62.5 35 c 128,-1,24
 55 41 55 41 53 51 c 128,-1,25
 51 61 51 61 59 76 c 0,26,27
 80 106 80 106 115 150.5 c 128,-1,28
 150 195 150 195 194 244 c 128,-1,29
 238 293 238 293 286 344 c 128,-1,30
 334 395 334 395 381 442 c 0,31,32
 422 485 422 485 463 529 c 128,-1,33
 504 573 504 573 543 616 c 128,-1,34
 582 659 582 659 614.5 699 c 128,-1,35
 647 739 647 739 672 774 c 1,36,37
 625 770 625 770 573.5 765 c 128,-1,38
 522 760 522 760 463 760 c 0,39,40
 403 760 403 760 343 762 c 128,-1,41
 283 764 283 764 233.5 767 c 128,-1,42
 184 770 184 770 151.5 774 c 128,-1,43
 119 778 119 778 115 784 c 1,44,45
 92 807 92 807 102.5 816 c 128,-1,46
 113 825 113 825 139 821 c 0,47,48
 215 811 215 811 273.5 805 c 128,-1,49
 332 799 332 799 389 799 c 0,50,51
 442 799 442 799 498.5 803 c 128,-1,52
 555 807 555 807 625 811 c 2,53,-1
 688 817 l 2,54,55
 705 819 705 819 722 806 c 128,-1,56
 739 793 739 793 729 770 c 1,57,58
 707 737 707 737 665 686 c 128,-1,59
 623 635 623 635 568.5 574.5 c 128,-1,60
 514 514 514 514 454.5 450.5 c 128,-1,61
 395 387 395 387 340 328 c 0,62,63
 293 279 293 279 248 231.5 c 128,-1,64
 203 184 203 184 169 147.5 c 128,-1,65
 135 111 135 111 117.5 88.5 c 128,-1,66
 100 66 100 66 106 66 c 0,0,1
EndSplineSet
EndChar
StartChar: bracketleft
Encoding: 91 91 62
Width: 334
Flags: W
Fore
276 825 m 0,0,1
 231 829 231 829 201.5 830 c 128,-1,2
 172 831 172 831 115 827 c 1,3,4
 121 659 121 659 123 488 c 128,-1,5
 125 317 125 317 125 178 c 0,6,7
 125 14 125 14 121 -137 c 1,8,9
 154 -141 154 -141 183.5 -141 c 128,-1,10
 213 -141 213 -141 236 -139 c 0,11,12
 260 -137 260 -137 283 -133 c 0,13,14
 305 -129 305 -129 307 -150.5 c 128,-1,15
 309 -172 309 -172 285 -176 c 0,16,17
 246 -180 246 -180 209 -182 c 0,18,19
 176 -184 176 -184 136 -183 c 128,-1,20
 96 -182 96 -182 61 -174 c 1,21,22
 70 -45 70 -45 74 117 c 0,23,24
 78 256 78 256 77 445.5 c 128,-1,25
 76 635 76 635 63 868 c 1,26,27
 109 872 109 872 147.5 873 c 128,-1,28
 186 874 186 874 215 872 c 0,29,30
 250 870 250 870 276 866 c 1,31,32
 289 866 289 866 295 859 c 128,-1,33
 301 852 301 852 301 844 c 128,-1,34
 301 836 301 836 295 830.5 c 128,-1,35
 289 825 289 825 276 825 c 0,0,1
EndSplineSet
EndChar
StartChar: backslash
Encoding: 92 92 63
Width: 571
Flags: W
Fore
461 51 m 2,0,1
 467 37 467 37 464 27.5 c 128,-1,2
 461 18 461 18 452.5 14 c 128,-1,3
 444 10 444 10 435 14 c 128,-1,4
 426 18 426 18 422 33 c 2,5,-1
 86 1057 l 2,6,7
 82 1069 82 1069 86 1078 c 128,-1,8
 90 1087 90 1087 99.5 1089.5 c 128,-1,9
 109 1092 109 1092 118 1086.5 c 128,-1,10
 127 1081 127 1081 131 1067 c 2,11,-1
 461 51 l 2,0,1
EndSplineSet
EndChar
StartChar: bracketright
Encoding: 93 93 64
Width: 334
Flags: W
Fore
45 825 m 0,0,1
 33 825 33 825 26.5 830.5 c 128,-1,2
 20 836 20 836 20 844 c 128,-1,3
 20 852 20 852 26.5 859 c 128,-1,4
 33 866 33 866 45 866 c 1,5,6
 72 870 72 870 106 872 c 0,7,8
 135 874 135 874 173 873 c 128,-1,9
 211 872 211 872 258 868 c 1,10,11
 246 635 246 635 244 444.5 c 128,-1,12
 242 254 242 254 246 117 c 0,13,14
 250 -43 250 -43 260 -172 c 1,15,16
 223 -180 223 -180 184 -181 c 128,-1,17
 145 -182 145 -182 113 -180 c 0,18,19
 76 -178 76 -178 37 -174 c 0,20,21
 12 -170 12 -170 14 -148.5 c 128,-1,22
 16 -127 16 -127 39 -131 c 0,23,24
 61 -135 61 -135 86 -137 c 0,25,26
 109 -139 109 -139 137.5 -139 c 128,-1,27
 166 -139 166 -139 201 -135 c 1,28,29
 197 16 197 16 197 178 c 0,30,31
 197 317 197 317 198 488 c 128,-1,32
 199 659 199 659 207 827 c 1,33,34
 150 831 150 831 120 830 c 128,-1,35
 90 829 90 829 45 825 c 0,0,1
EndSplineSet
EndChar
StartChar: asciicircum
Encoding: 94 94 65
Width: 717
Flags: W
Fore
573 268 m 0,0,1
 569 276 569 276 557 317 c 128,-1,2
 545 358 545 358 526.5 414.5 c 128,-1,3
 508 471 508 471 485.5 534.5 c 128,-1,4
 463 598 463 598 440.5 651.5 c 128,-1,5
 418 705 418 705 396.5 740.5 c 128,-1,6
 375 776 375 776 360 776 c 0,7,8
 348 776 348 776 328.5 742.5 c 128,-1,9
 309 709 309 709 287.5 655.5 c 128,-1,10
 266 602 266 602 242.5 539.5 c 128,-1,11
 219 477 219 477 199.5 421 c 128,-1,12
 180 365 180 365 167 322 c 128,-1,13
 154 279 154 279 152 268 c 0,14,15
 150 258 150 258 140.5 253 c 128,-1,16
 131 248 131 248 122 248 c 128,-1,17
 113 248 113 248 106.5 253 c 128,-1,18
 100 258 100 258 102 270 c 1,19,20
 104 276 104 276 116.5 320.5 c 128,-1,21
 129 365 129 365 150.5 426 c 128,-1,22
 172 487 172 487 197.5 558 c 128,-1,23
 223 629 223 629 252 688.5 c 128,-1,24
 281 748 281 748 308.5 786.5 c 128,-1,25
 336 825 336 825 360 825 c 0,26,27
 383 825 383 825 406.5 795.5 c 128,-1,28
 430 766 430 766 453.5 720 c 128,-1,29
 477 674 477 674 499.5 616.5 c 128,-1,30
 522 559 522 559 542.5 501.5 c 128,-1,31
 563 444 563 444 579.5 394 c 128,-1,32
 596 344 596 344 606 311 c 0,33,34
 614 283 614 283 612 268.5 c 128,-1,35
 610 254 610 254 603 250 c 128,-1,36
 596 246 596 246 587 251 c 128,-1,37
 578 256 578 256 573 268 c 0,0,1
EndSplineSet
EndChar
StartChar: underscore
Encoding: 95 95 66
Width: 1026
Flags: W
Fore
991 23 m 0,0,1
 1008 23 1008 23 1009 2.5 c 128,-1,2
 1010 -18 1010 -18 989 -20 c 0,3,4
 836 -18 836 -18 747.5 -18 c 128,-1,5
 659 -18 659 -18 602 -18 c 128,-1,6
 545 -18 545 -18 505 -19 c 128,-1,7
 465 -20 465 -20 409.5 -20 c 128,-1,8
 354 -20 354 -20 269 -19 c 128,-1,9
 184 -18 184 -18 37 -14 c 0,10,11
 14 -12 14 -12 14 7.5 c 128,-1,12
 14 27 14 27 37 27 c 0,13,14
 129 23 129 23 192.5 21.5 c 128,-1,15
 256 20 256 20 309 20 c 128,-1,16
 362 20 362 20 416.5 21.5 c 128,-1,17
 471 23 471 23 547 24 c 128,-1,18
 623 25 623 25 728.5 25 c 128,-1,19
 834 25 834 25 991 23 c 0,0,1
EndSplineSet
EndChar
StartChar: grave
Encoding: 96 96 67
Width: 369
Flags: W
Fore
303 606 m 0,0,1
 317 592 317 592 303 576.5 c 128,-1,2
 289 561 289 561 268 580 c 2,3,-1
 63 782 l 2,4,5
 51 795 51 795 52 804 c 128,-1,6
 53 813 53 813 60.5 818 c 128,-1,7
 68 823 68 823 78 821 c 128,-1,8
 88 819 88 819 96 811 c 256,9,10
 104 803 104 803 117.5 790.5 c 128,-1,11
 131 778 131 778 153.5 754.5 c 128,-1,12
 176 731 176 731 213 695 c 128,-1,13
 250 659 250 659 303 606 c 0,0,1
EndSplineSet
EndChar
StartChar: a
Encoding: 97 97 68
Width: 680
Flags: W
Fore
510 375 m 2,0,1
 504 414 504 414 485.5 444.5 c 128,-1,2
 467 475 467 475 440.5 495.5 c 128,-1,3
 414 516 414 516 384 526.5 c 128,-1,4
 354 537 354 537 326 537 c 0,5,6
 264 537 264 537 222 507 c 128,-1,7
 180 477 180 477 155.5 437 c 128,-1,8
 131 397 131 397 121 356 c 128,-1,9
 111 315 111 315 111 293 c 0,10,11
 111 254 111 254 119 210 c 128,-1,12
 127 166 127 166 149.5 128 c 128,-1,13
 172 90 172 90 213 64.5 c 128,-1,14
 254 39 254 39 319 39 c 0,15,16
 383 39 383 39 434 65.5 c 128,-1,17
 485 92 485 92 502 147 c 0,18,19
 508 170 508 170 511 198.5 c 128,-1,20
 514 227 514 227 514 293 c 2,21,-1
 510 375 l 2,0,1
633 4 m 1,22,23
 575 -2 575 -2 549.5 13.5 c 128,-1,24
 524 29 524 29 518 76 c 1,25,26
 489 29 489 29 438 10.5 c 128,-1,27
 387 -8 387 -8 322 -8 c 0,28,29
 238 -8 238 -8 187.5 22.5 c 128,-1,30
 137 53 137 53 109.5 99 c 128,-1,31
 82 145 82 145 72.5 197.5 c 128,-1,32
 63 250 63 250 63 295 c 0,33,34
 63 328 63 328 75.5 377 c 128,-1,35
 88 426 88 426 117.5 470 c 128,-1,36
 147 514 147 514 197.5 546 c 128,-1,37
 248 578 248 578 324 578 c 0,38,39
 383 578 383 578 428 556.5 c 128,-1,40
 473 535 473 535 516 481 c 1,41,-1
 522 549 l 2,42,43
 524 561 524 561 534.5 566 c 128,-1,44
 545 571 545 571 555 570 c 128,-1,45
 565 569 565 569 574.5 564 c 128,-1,46
 584 559 584 559 584 553 c 1,47,48
 575 524 575 524 571 459.5 c 128,-1,49
 567 395 567 395 565 326 c 0,50,51
 563 244 563 244 563 152 c 0,52,53
 563 133 563 133 563 114.5 c 128,-1,54
 563 96 563 96 568 81 c 128,-1,55
 573 66 573 66 585.5 55.5 c 128,-1,56
 598 45 598 45 625 45 c 1,57,58
 647 37 647 37 643 20 c 0,59,60
 641 12 641 12 633 4 c 1,22,23
EndSplineSet
Substitution: 0 65534 'L026' uni0E38
Substitution: 0 65534 'L026' uni0E38
EndChar
StartChar: b
Encoding: 98 98 69
Width: 680
Flags: W
Fore
109 223 m 0,0,1
 109 180 109 180 130.5 145.5 c 128,-1,2
 152 111 152 111 183.5 88.5 c 128,-1,3
 215 66 215 66 255 53.5 c 128,-1,4
 295 41 295 41 334 41 c 256,5,6
 373 41 373 41 416 52 c 128,-1,7
 459 63 459 63 493.5 91 c 128,-1,8
 528 119 528 119 551.5 166 c 128,-1,9
 575 213 575 213 575 285 c 0,10,11
 575 420 575 420 508.5 478.5 c 128,-1,12
 442 537 442 537 328 537 c 0,13,14
 268 537 268 537 204.5 510 c 128,-1,15
 141 483 141 483 106 424 c 1,16,17
 102 332 102 332 106 279 c 0,18,19
 106 248 106 248 109 223 c 0,0,1
106 500 m 1,20,21
 160 559 160 559 217 573.5 c 128,-1,22
 274 588 274 588 328 588 c 0,23,24
 459 588 459 588 542 515 c 128,-1,25
 625 442 625 442 625 285 c 0,26,27
 625 195 625 195 593 138.5 c 128,-1,28
 561 82 561 82 516 50 c 128,-1,29
 471 18 471 18 421 5 c 128,-1,30
 371 -8 371 -8 334 -8 c 0,31,32
 223 -12 223 -12 96 102 c 1,33,-1
 94 82 l 1,34,35
 90 72 90 72 84 62.5 c 128,-1,36
 78 53 78 53 72 45 c 1,37,38
 63 37 63 37 57 27 c 1,39,40
 47 16 47 16 36 12 c 128,-1,41
 25 8 25 8 15.5 11 c 128,-1,42
 6 14 6 14 3 21.5 c 128,-1,43
 0 29 0 29 6 41 c 1,44,45
 16 49 16 49 25 59 c 0,46,47
 43 80 43 80 45 102 c 0,48,49
 53 205 53 205 55 344 c 0,50,51
 57 463 57 463 54 635 c 128,-1,52
 51 807 51 807 35 1030 c 1,53,54
 37 1040 37 1040 45 1044.5 c 128,-1,55
 53 1049 53 1049 62.5 1049 c 128,-1,56
 72 1049 72 1049 78 1042.5 c 128,-1,57
 84 1036 84 1036 84 1028 c 0,58,59
 96 850 96 850 100 746.5 c 128,-1,60
 104 643 104 643 106 588 c 0,61,62
 109 522 109 522 106 500 c 1,20,21
EndSplineSet
Substitution: 0 65534 'L026' uni0E39
Substitution: 0 65534 'L026' uni0E39
EndChar
StartChar: c
Encoding: 99 99 70
Width: 614
Flags: W
Fore
522 440 m 1,0,-1
 522 438 l 1,1,2
 494 498 494 498 443.5 525.5 c 128,-1,3
 393 553 393 553 332 553 c 0,4,5
 270 553 270 553 224 530.5 c 128,-1,6
 178 508 178 508 147.5 470 c 128,-1,7
 117 432 117 432 102.5 384 c 128,-1,8
 88 336 88 336 88 287 c 0,9,10
 88 240 88 240 101.5 197 c 128,-1,11
 115 154 115 154 142.5 121 c 128,-1,12
 170 88 170 88 215 69.5 c 128,-1,13
 260 51 260 51 324 51 c 0,14,15
 389 51 389 51 430 72.5 c 128,-1,16
 471 94 471 94 495.5 122 c 128,-1,17
 520 150 520 150 529.5 177.5 c 128,-1,18
 539 205 539 205 543 215 c 0,19,20
 551 244 551 244 572.5 242 c 128,-1,21
 594 240 594 240 594 215 c 0,22,23
 594 193 594 193 579.5 157 c 128,-1,24
 565 121 565 121 533.5 86 c 128,-1,25
 502 51 502 51 450.5 26.5 c 128,-1,26
 399 2 399 2 324 2 c 0,27,28
 246 2 246 2 191.5 26.5 c 128,-1,29
 137 51 137 51 103.5 91 c 128,-1,30
 70 131 70 131 54.5 182 c 128,-1,31
 39 233 39 233 39 287 c 0,32,33
 39 342 39 342 56.5 397.5 c 128,-1,34
 74 453 74 453 108.5 499 c 128,-1,35
 143 545 143 545 198.5 573.5 c 128,-1,36
 254 602 254 602 332 602 c 0,37,38
 371 602 371 602 412 591 c 128,-1,39
 453 580 453 580 487.5 558.5 c 128,-1,40
 522 537 522 537 546.5 506 c 128,-1,41
 571 475 571 475 578 434 c 0,42,43
 580 426 580 426 571.5 421 c 128,-1,44
 563 416 563 416 553 416 c 128,-1,45
 543 416 543 416 533.5 422 c 128,-1,46
 524 428 524 428 522 440 c 1,0,-1
EndSplineSet
Substitution: 0 65534 'L026' uni0E3A
Substitution: 0 65534 'L026' uni0E3A
EndChar
StartChar: d
Encoding: 100 100 71
Width: 680
Flags: W
Fore
563 223 m 0,0,1
 563 248 563 248 565 279 c 0,2,3
 565 305 565 305 566 341 c 128,-1,4
 567 377 567 377 565 424 c 1,5,6
 530 483 530 483 466.5 510 c 128,-1,7
 403 537 403 537 344 537 c 0,8,9
 297 537 297 537 253 522.5 c 128,-1,10
 209 508 209 508 175 477 c 128,-1,11
 141 446 141 446 120.5 399 c 128,-1,12
 100 352 100 352 100 285 c 0,13,14
 100 213 100 213 127 167 c 128,-1,15
 154 121 154 121 191.5 93.5 c 128,-1,16
 229 66 229 66 270 54.5 c 128,-1,17
 311 43 311 43 340 43 c 0,18,19
 379 43 379 43 418 54.5 c 128,-1,20
 457 66 457 66 489.5 89.5 c 128,-1,21
 522 113 522 113 542.5 146.5 c 128,-1,22
 563 180 563 180 563 223 c 0,0,1
565 500 m 1,23,24
 561 522 561 522 563 588 c 0,25,26
 565 643 565 643 570 746.5 c 128,-1,27
 575 850 575 850 588 1028 c 0,28,29
 588 1036 588 1036 594 1042.5 c 128,-1,30
 600 1049 600 1049 609 1049 c 128,-1,31
 618 1049 618 1049 626.5 1044.5 c 128,-1,32
 635 1040 635 1040 637 1030 c 1,33,34
 621 807 621 807 617.5 635 c 128,-1,35
 614 463 614 463 616 344 c 0,36,37
 618 205 618 205 627 102 c 0,38,39
 627 90 627 90 633 80 c 128,-1,40
 639 70 639 70 647 59 c 0,41,42
 655 49 655 49 666 41 c 1,43,44
 672 29 672 29 669 21.5 c 128,-1,45
 666 14 666 14 656.5 11 c 128,-1,46
 647 8 647 8 635 12 c 128,-1,47
 623 16 623 16 614 27 c 0,48,49
 606 37 606 37 598 45 c 0,50,51
 582 63 582 63 578 82 c 2,52,-1
 575 102 l 1,53,54
 514 47 514 47 453.5 22.5 c 128,-1,55
 393 -2 393 -2 340 -6 c 0,56,57
 305 -8 305 -8 256 4 c 128,-1,58
 207 16 207 16 162 49 c 128,-1,59
 117 82 117 82 84 138.5 c 128,-1,60
 51 195 51 195 51 285 c 0,61,62
 51 365 51 365 76.5 422 c 128,-1,63
 102 479 102 479 143 517 c 128,-1,64
 184 555 184 555 236.5 572.5 c 128,-1,65
 289 590 289 590 344 588 c 0,66,67
 397 586 397 586 454.5 572.5 c 128,-1,68
 512 559 512 559 565 500 c 1,23,24
EndSplineSet
EndChar
StartChar: e
Encoding: 101 101 72
Width: 676
Flags: W
Fore
102 293 m 1,0,1
 104 172 104 172 169.5 111.5 c 128,-1,2
 235 51 235 51 344 51 c 0,3,4
 372 51 372 51 402.5 59 c 128,-1,5
 433 67 433 67 461.5 83 c 128,-1,6
 490 99 490 99 514.5 123.5 c 128,-1,7
 539 148 539 148 555 180 c 1,8,9
 561 187 561 187 569 187 c 0,10,11
 579 187 579 187 587.5 179 c 128,-1,12
 596 171 596 171 596 158 c 0,13,14
 596 147 596 147 590 137 c 0,15,16
 573 106 573 106 546.5 80.5 c 128,-1,17
 520 55 520 55 487.5 37 c 128,-1,18
 455 19 455 19 418 9.5 c 128,-1,19
 381 0 381 0 344 0 c 0,20,21
 267 0 267 0 211 26 c 128,-1,22
 155 52 155 52 119 94.5 c 128,-1,23
 83 137 83 137 65.5 191 c 128,-1,24
 48 245 48 245 48 301 c 256,25,26
 48 357 48 357 67.5 411 c 128,-1,27
 87 465 87 465 124.5 507.5 c 128,-1,28
 162 550 162 550 217 576 c 128,-1,29
 272 602 272 602 342 602 c 0,30,31
 405 602 405 602 455.5 581 c 128,-1,32
 506 560 506 560 541 528 c 128,-1,33
 576 496 576 496 595 456.5 c 128,-1,34
 614 417 614 417 614 381 c 256,35,36
 614 345 614 345 607.5 326.5 c 128,-1,37
 601 308 601 308 581 308 c 0,38,39
 460 308 460 308 340.5 306 c 128,-1,40
 221 304 221 304 102 293 c 1,0,1
102 344 m 1,41,42
 124 346 124 346 167.5 347 c 128,-1,43
 211 348 211 348 263 349 c 128,-1,44
 315 350 315 350 369.5 350.5 c 128,-1,45
 424 351 424 351 468 352 c 128,-1,46
 512 353 512 353 540.5 355 c 128,-1,47
 569 357 569 357 569 360 c 0,48,49
 569 381 569 381 558 413.5 c 128,-1,50
 547 446 547 446 520.5 477 c 128,-1,51
 494 508 494 508 450 530.5 c 128,-1,52
 406 553 406 553 340 553 c 0,53,54
 293 553 293 553 253 537.5 c 128,-1,55
 213 522 213 522 182.5 494 c 128,-1,56
 152 466 152 466 131 427.5 c 128,-1,57
 110 389 110 389 102 344 c 1,41,42
EndSplineSet
EndChar
StartChar: f
Encoding: 102 102 73
Width: 369
Flags: W
Fore
23 461 m 2,0,-1
 55 469 l 2,1,2
 70 473 70 473 86 474 c 128,-1,3
 102 475 102 475 119 475 c 1,4,5
 121 530 121 530 120 599 c 128,-1,6
 119 668 119 668 131 728 c 128,-1,7
 143 788 143 788 176 829 c 128,-1,8
 209 870 209 870 281 870 c 0,9,10
 311 870 311 870 338 864 c 128,-1,11
 365 858 365 858 384 839.5 c 128,-1,12
 403 821 403 821 414.5 787.5 c 128,-1,13
 426 754 426 754 426 698 c 0,14,15
 426 672 426 672 401 672 c 0,16,17
 391 672 391 672 382 678 c 128,-1,18
 373 684 373 684 371 694 c 0,19,20
 367 743 367 743 360.5 769 c 128,-1,21
 354 795 354 795 344 806 c 128,-1,22
 334 817 334 817 318.5 819 c 128,-1,23
 303 821 303 821 281 821 c 0,24,25
 246 821 246 821 224.5 797.5 c 128,-1,26
 203 774 203 774 191.5 730 c 128,-1,27
 180 686 180 686 177 622.5 c 128,-1,28
 174 559 174 559 174 477 c 1,29,30
 231 477 231 477 264 472 c 128,-1,31
 297 467 297 467 297 444 c 0,32,33
 297 426 297 426 276 426 c 0,34,35
 248 426 248 426 237.5 428 c 128,-1,36
 227 430 227 430 217 430 c 2,37,-1
 172 430 l 1,38,-1
 184 25 l 1,39,40
 178 0 178 0 156 0 c 0,41,42
 145 0 145 0 138 5 c 128,-1,43
 131 10 131 10 131 20 c 2,44,-1
 117 426 l 1,45,46
 92 424 92 424 81 423 c 128,-1,47
 70 422 70 422 63.5 421 c 128,-1,48
 57 420 57 420 50 419 c 128,-1,49
 43 418 43 418 27 416 c 0,50,51
 6 416 6 416 6 436 c 0,52,53
 6 455 6 455 23 461 c 2,0,-1
EndSplineSet
EndChar
StartChar: g
Encoding: 103 103 74
Width: 631
Flags: W
Fore
465 502 m 1,0,1
 438 543 438 543 393 561.5 c 128,-1,2
 348 580 348 580 295 580 c 0,3,4
 248 580 248 580 208 560.5 c 128,-1,5
 168 541 168 541 140.5 509 c 128,-1,6
 113 477 113 477 97.5 434 c 128,-1,7
 82 391 82 391 82 346 c 0,8,9
 84 276 84 276 102.5 229 c 128,-1,10
 121 182 121 182 150.5 154.5 c 128,-1,11
 180 127 180 127 217 114.5 c 128,-1,12
 254 102 254 102 295 102 c 0,13,14
 334 102 334 102 373 113.5 c 128,-1,15
 412 125 412 125 440.5 143.5 c 128,-1,16
 469 162 469 162 485.5 185.5 c 128,-1,17
 502 209 502 209 500 233 c 0,18,19
 498 252 498 252 495 281.5 c 128,-1,20
 492 311 492 311 487.5 348 c 128,-1,21
 483 385 483 385 478 425 c 128,-1,22
 473 465 473 465 465 502 c 1,0,1
518 145 m 1,23,24
 494 115 494 115 463 95.5 c 128,-1,25
 432 76 432 76 399.5 64.5 c 128,-1,26
 367 53 367 53 334 50 c 128,-1,27
 301 47 301 47 274 47 c 0,28,29
 217 47 217 47 171 72.5 c 128,-1,30
 125 98 125 98 94 140 c 128,-1,31
 63 182 63 182 47 235.5 c 128,-1,32
 31 289 31 289 31 346 c 0,33,34
 31 399 31 399 49.5 450.5 c 128,-1,35
 68 502 68 502 101.5 543 c 128,-1,36
 135 584 135 584 184 608.5 c 128,-1,37
 233 633 233 633 295 633 c 0,38,39
 336 633 336 633 383 623.5 c 128,-1,40
 430 614 430 614 467 573 c 1,41,-1
 487 643 l 2,42,43
 492 659 492 659 503 664.5 c 128,-1,44
 514 670 514 670 523 667 c 128,-1,45
 532 664 532 664 537.5 654.5 c 128,-1,46
 543 645 543 645 537 633 c 1,47,-1
 516 565 l 1,48,49
 518 502 518 502 529.5 408.5 c 128,-1,50
 541 315 541 315 553 227 c 128,-1,51
 565 139 565 139 574.5 75.5 c 128,-1,52
 584 12 584 12 584 8 c 0,53,54
 584 -47 584 -47 568.5 -100.5 c 128,-1,55
 553 -154 553 -154 520 -196 c 128,-1,56
 487 -238 487 -238 439 -264.5 c 128,-1,57
 391 -291 391 -291 328 -293 c 0,58,59
 274 -295 274 -295 232 -280.5 c 128,-1,60
 190 -266 190 -266 159.5 -242.5 c 128,-1,61
 129 -219 129 -219 110.5 -188.5 c 128,-1,62
 92 -158 92 -158 88 -123 c 0,63,64
 86 -111 86 -111 94 -102.5 c 128,-1,65
 102 -94 102 -94 111.5 -91 c 128,-1,66
 121 -88 121 -88 130 -91 c 128,-1,67
 139 -94 139 -94 139 -106 c 0,68,69
 145 -176 145 -176 199.5 -214 c 128,-1,70
 254 -252 254 -252 328 -248 c 0,71,72
 399 -244 399 -244 445.5 -204 c 128,-1,73
 492 -164 492 -164 514.5 -105.5 c 128,-1,74
 537 -47 537 -47 537 19.5 c 128,-1,75
 537 86 537 86 518 145 c 1,23,24
EndSplineSet
EndChar
StartChar: h
Encoding: 104 104 75
Width: 649
Flags: W
Fore
174 444 m 1,0,1
 178 465 178 465 192.5 492.5 c 128,-1,2
 207 520 207 520 232.5 544.5 c 128,-1,3
 258 569 258 569 295 584.5 c 128,-1,4
 332 600 332 600 381 600 c 0,5,6
 463 598 463 598 508 563 c 128,-1,7
 553 528 553 528 574.5 456.5 c 128,-1,8
 596 385 596 385 600 274.5 c 128,-1,9
 604 164 604 164 604 14 c 0,10,11
 604 6 604 6 597 1 c 128,-1,12
 590 -4 590 -4 580.5 -3 c 128,-1,13
 571 -2 571 -2 564 4 c 128,-1,14
 557 10 557 10 557 23 c 0,15,16
 557 156 557 156 553 254 c 128,-1,17
 549 352 549 352 531.5 418.5 c 128,-1,18
 514 485 514 485 478 518 c 128,-1,19
 442 551 442 551 381 551 c 0,20,21
 297 551 297 551 254 498.5 c 128,-1,22
 211 446 211 446 192.5 366.5 c 128,-1,23
 174 287 174 287 173 191.5 c 128,-1,24
 172 96 172 96 172 10 c 0,25,26
 172 2 172 2 165 0 c 128,-1,27
 158 -2 158 -2 149.5 -1 c 128,-1,28
 141 0 141 0 134 4 c 128,-1,29
 127 8 127 8 125 12 c 1,30,31
 117 154 117 154 120 313.5 c 128,-1,32
 123 473 123 473 131 612 c 0,33,34
 139 774 139 774 152 934 c 0,35,36
 152 946 152 946 160 950 c 128,-1,37
 168 954 168 954 177 952 c 128,-1,38
 186 950 186 950 194.5 944 c 128,-1,39
 203 938 203 938 201 926 c 2,40,-1
 174 444 l 1,0,1
EndSplineSet
EndChar
StartChar: i
Encoding: 105 105 76
Width: 334
Flags: W
Fore
244 852 m 0,0,1
 276 834 276 834 285 798 c 128,-1,2
 294 762 294 762 276 730 c 0,3,4
 259 699 259 699 224 689 c 128,-1,5
 189 679 189 679 158 697 c 0,6,7
 123 717 123 717 114 751 c 128,-1,8
 105 785 105 785 123 816 c 0,9,10
 141 848 141 848 176.5 860 c 128,-1,11
 212 872 212 872 244 852 c 0,0,1
203 33 m 2,12,13
 201 18 201 18 193.5 12 c 128,-1,14
 186 6 186 6 178 7 c 128,-1,15
 170 8 170 8 162 14 c 128,-1,16
 154 20 154 20 152 33 c 1,17,-1
 164 567 l 2,18,19
 164 580 164 580 171 586 c 128,-1,20
 178 592 178 592 187.5 592 c 128,-1,21
 197 592 197 592 205 586 c 128,-1,22
 213 580 213 580 213 567 c 2,23,-1
 203 33 l 2,12,13
EndSplineSet
EndChar
StartChar: j
Encoding: 106 106 77
Width: 334
Flags: W
Fore
221 27 m 2,0,1
 223 -63 223 -63 201.5 -126.5 c 128,-1,2
 180 -190 180 -190 144.5 -226 c 128,-1,3
 109 -262 109 -262 67 -273.5 c 128,-1,4
 25 -285 25 -285 -13 -270.5 c 128,-1,5
 -51 -256 -51 -256 -78.5 -218 c 128,-1,6
 -106 -180 -106 -180 -111 -119 c 1,7,8
 -106 -90 -106 -90 -83.5 -93 c 128,-1,9
 -61 -96 -61 -96 -55 -121 c 0,10,11
 -45 -186 -45 -186 -8 -208.5 c 128,-1,12
 29 -231 29 -231 69 -213 c 128,-1,13
 109 -195 109 -195 140.5 -135.5 c 128,-1,14
 172 -76 172 -76 170 27 c 2,15,-1
 180 561 l 2,16,17
 180 573 180 573 188.5 579.5 c 128,-1,18
 197 586 197 586 206 586 c 128,-1,19
 215 586 215 586 223 579.5 c 128,-1,20
 231 573 231 573 231 561 c 2,21,-1
 221 27 l 2,0,1
260 854 m 0,22,23
 291 836 291 836 300 800 c 128,-1,24
 309 764 309 764 291 732 c 0,25,26
 274 701 274 701 239 691 c 128,-1,27
 204 681 204 681 174 699 c 0,28,29
 138 719 138 719 129 753 c 128,-1,30
 120 787 120 787 138 818 c 0,31,32
 156 850 156 850 191.5 862 c 128,-1,33
 227 874 227 874 260 854 c 0,22,23
EndSplineSet
EndChar
StartChar: k
Encoding: 107 107 78
Width: 618
Flags: W
Fore
195 334 m 1,0,-1
 580 37 l 1,1,2
 586 17 586 17 574 8.5 c 128,-1,3
 562 0 562 0 545 2 c 1,4,5
 493 41 493 41 447 76 c 128,-1,6
 401 111 401 111 357 144 c 128,-1,7
 313 177 313 177 269 208.5 c 128,-1,8
 225 240 225 240 179 271 c 1,9,-1
 177 18 l 1,10,11
 175 14 175 14 171.5 8.5 c 128,-1,12
 168 3 168 3 162.5 -0.5 c 128,-1,13
 157 -4 157 -4 150.5 -3 c 128,-1,14
 144 -2 144 -2 136 9 c 1,15,-1
 138 893 l 2,16,17
 138 906 138 906 144 912.5 c 128,-1,18
 150 919 150 919 158 917.5 c 128,-1,19
 166 916 166 916 172.5 907 c 128,-1,20
 179 898 179 898 179 881 c 2,21,-1
 182 386 l 1,22,23
 262 436 262 436 319.5 473.5 c 128,-1,24
 377 511 377 511 417 538.5 c 128,-1,25
 457 566 457 566 483.5 584.5 c 128,-1,26
 510 603 510 603 528 615 c 1,27,28
 563 629 563 629 575 617.5 c 128,-1,29
 587 606 587 606 571 585 c 1,30,-1
 195 334 l 1,0,-1
EndSplineSet
EndChar
StartChar: l
Encoding: 108 108 79
Width: 281
Flags: W
Fore
158 35 m 1,0,1
 156 23 156 23 148.5 16.5 c 128,-1,2
 141 10 141 10 132 10 c 128,-1,3
 123 10 123 10 116 16.5 c 128,-1,4
 109 23 109 23 109 35 c 2,5,-1
 102 985 l 1,6,7
 104 997 104 997 111.5 1003.5 c 128,-1,8
 119 1010 119 1010 128 1010 c 128,-1,9
 137 1010 137 1010 144.5 1003.5 c 128,-1,10
 152 997 152 997 152 985 c 2,11,-1
 158 35 l 1,0,1
EndSplineSet
EndChar
StartChar: m
Encoding: 109 109 80
Width: 940
Flags: W
Fore
166 401 m 1,0,1
 178 467 178 467 193.5 507 c 128,-1,2
 209 547 209 547 228.5 568.5 c 128,-1,3
 248 590 248 590 272.5 597 c 128,-1,4
 297 604 297 604 328 604 c 0,5,6
 401 604 401 604 441 543.5 c 128,-1,7
 481 483 481 483 489 391 c 1,8,9
 502 483 502 483 533.5 545.5 c 128,-1,10
 565 608 565 608 643 608 c 0,11,12
 729 608 729 608 769 558 c 128,-1,13
 809 508 809 508 823.5 425 c 128,-1,14
 838 342 838 342 834.5 235.5 c 128,-1,15
 831 129 831 129 831 18 c 0,16,17
 831 2 831 2 813 0 c 128,-1,18
 795 -2 795 -2 791 14 c 0,19,20
 786 45 786 45 788.5 99.5 c 128,-1,21
 791 154 791 154 792 215 c 128,-1,22
 793 276 793 276 789.5 338.5 c 128,-1,23
 786 401 786 401 772 452.5 c 128,-1,24
 758 504 758 504 727 536.5 c 128,-1,25
 696 569 696 569 645 569 c 0,26,27
 608 569 608 569 584.5 532.5 c 128,-1,28
 561 496 561 496 545.5 439.5 c 128,-1,29
 530 383 530 383 524 314.5 c 128,-1,30
 518 246 518 246 515 185.5 c 128,-1,31
 512 125 512 125 513 78 c 128,-1,32
 514 31 514 31 514 18 c 1,33,34
 510 2 510 2 488.5 2 c 128,-1,35
 467 2 467 2 467 20 c 0,36,37
 465 37 465 37 466 84 c 128,-1,38
 467 131 467 131 466 191.5 c 128,-1,39
 465 252 465 252 460 317.5 c 128,-1,40
 455 383 455 383 439.5 438.5 c 128,-1,41
 424 494 424 494 395.5 528.5 c 128,-1,42
 367 563 367 563 322 563 c 0,43,44
 283 563 283 563 258 529.5 c 128,-1,45
 233 496 233 496 217 444.5 c 128,-1,46
 201 393 201 393 191.5 329.5 c 128,-1,47
 182 266 182 266 178 206.5 c 128,-1,48
 174 147 174 147 172 97 c 128,-1,49
 170 47 170 47 168 23 c 0,50,51
 168 12 168 12 160 8 c 128,-1,52
 152 4 152 4 142.5 4 c 128,-1,53
 133 4 133 4 126 9 c 128,-1,54
 119 14 119 14 119 23 c 2,55,-1
 113 494 l 2,56,57
 113 504 113 504 109 514 c 0,58,59
 102 535 102 535 80 559 c 0,60,61
 74 567 74 567 77 575.5 c 128,-1,62
 80 584 80 584 88 588 c 128,-1,63
 96 592 96 592 107.5 591 c 128,-1,64
 119 590 119 590 129 580 c 0,65,66
 145 559 145 559 156 530 c 0,67,68
 162 514 162 514 166 498 c 1,69,-1
 166 401 l 1,0,1
EndSplineSet
EndChar
StartChar: n
Encoding: 110 110 81
Width: 635
Flags: W
Fore
158 399 m 1,0,1
 168 461 168 461 185.5 500 c 128,-1,2
 203 539 203 539 227.5 560.5 c 128,-1,3
 252 582 252 582 282.5 589 c 128,-1,4
 313 596 313 596 348 596 c 0,5,6
 453 596 453 596 498 531.5 c 128,-1,7
 543 467 543 467 543 319 c 2,8,-1
 543 23 l 1,9,10
 539 10 539 10 518.5 9 c 128,-1,11
 498 8 498 8 498 23 c 2,12,-1
 496 322 l 2,13,14
 494 369 494 369 490.5 411 c 128,-1,15
 487 453 487 453 472 484.5 c 128,-1,16
 457 516 457 516 427 535.5 c 128,-1,17
 397 555 397 555 344 555 c 0,18,19
 297 555 297 555 266.5 523.5 c 128,-1,20
 236 492 236 492 217.5 440.5 c 128,-1,21
 199 389 199 389 190.5 327.5 c 128,-1,22
 182 266 182 266 178 206.5 c 128,-1,23
 174 147 174 147 174 98 c 128,-1,24
 174 49 174 49 172 25 c 0,25,26
 172 14 172 14 164 8 c 128,-1,27
 156 2 156 2 146.5 2 c 128,-1,28
 137 2 137 2 129 8 c 128,-1,29
 121 14 121 14 121 27 c 2,30,-1
 109 485 l 1,31,32
 106 496 106 496 102 508 c 0,33,34
 98 518 98 518 91 530.5 c 128,-1,35
 84 543 84 543 72 557 c 0,36,37
 66 565 66 565 69 573.5 c 128,-1,38
 72 582 72 582 80 586 c 128,-1,39
 88 590 88 590 99.5 589 c 128,-1,40
 111 588 111 588 121 578 c 0,41,42
 137 557 137 557 147 528 c 0,43,44
 154 512 154 512 158 496 c 1,45,-1
 158 399 l 1,0,1
EndSplineSet
EndChar
StartChar: o
Encoding: 111 111 82
Width: 680
Flags: W
Fore
635 291 m 0,0,1
 635 211 635 211 611.5 155.5 c 128,-1,2
 588 100 588 100 547 65.5 c 128,-1,3
 506 31 506 31 450.5 15.5 c 128,-1,4
 395 0 395 0 332 0 c 0,5,6
 285 0 285 0 233.5 13.5 c 128,-1,7
 182 27 182 27 139 59.5 c 128,-1,8
 96 92 96 92 68.5 145.5 c 128,-1,9
 41 199 41 199 41 279 c 0,10,11
 41 432 41 432 117 519 c 128,-1,12
 193 606 193 606 340 606 c 0,13,14
 397 606 397 606 450.5 586.5 c 128,-1,15
 504 567 504 567 545 527 c 128,-1,16
 586 487 586 487 610.5 428 c 128,-1,17
 635 369 635 369 635 291 c 0,0,1
586 274 m 0,18,19
 586 350 586 350 565.5 404.5 c 128,-1,20
 545 459 545 459 510 493.5 c 128,-1,21
 475 528 475 528 431 544.5 c 128,-1,22
 387 561 387 561 340 561 c 0,23,24
 219 561 219 561 154.5 491.5 c 128,-1,25
 90 422 90 422 90 279 c 0,26,27
 90 213 90 213 112.5 169 c 128,-1,28
 135 125 135 125 170 98.5 c 128,-1,29
 205 72 205 72 248 61.5 c 128,-1,30
 291 51 291 51 332 51 c 0,31,32
 385 51 385 51 431 62.5 c 128,-1,33
 477 74 477 74 511 100.5 c 128,-1,34
 545 127 545 127 565.5 170 c 128,-1,35
 586 213 586 213 586 274 c 0,18,19
EndSplineSet
EndChar
StartChar: p
Encoding: 112 112 83
Width: 705
Flags: W
Fore
123 369 m 0,0,1
 121 349 121 349 121 327 c 128,-1,2
 121 305 121 305 121 276 c 0,3,4
 121 251 121 251 121.5 222.5 c 128,-1,5
 122 194 122 194 125 162 c 1,6,7
 143 133 143 133 169 112.5 c 128,-1,8
 195 92 195 92 225 79 c 128,-1,9
 255 66 255 66 287 59.5 c 128,-1,10
 319 53 319 53 348 53 c 0,11,12
 464 57 464 57 528 119.5 c 128,-1,13
 592 182 592 182 592 315 c 0,14,15
 590 387 590 387 566 433.5 c 128,-1,16
 542 480 542 480 506 507 c 128,-1,17
 470 534 470 534 427 544.5 c 128,-1,18
 384 555 384 555 344 555 c 0,19,20
 306 555 306 555 266.5 542 c 128,-1,21
 227 529 227 529 195 505 c 128,-1,22
 163 481 163 481 143 446.5 c 128,-1,23
 123 412 123 412 123 369 c 0,0,1
127 86 m 1,24,25
 124 57 124 57 123 27.5 c 128,-1,26
 122 -2 122 -2 120.5 -39.5 c 128,-1,27
 119 -77 119 -77 117 -126.5 c 128,-1,28
 115 -176 115 -176 111 -244 c 0,29,30
 111 -254 111 -254 103.5 -259 c 128,-1,31
 96 -264 96 -264 86 -264 c 0,32,33
 78 -264 78 -264 70.5 -259.5 c 128,-1,34
 63 -255 63 -255 61 -246 c 1,35,36
 69 -98 69 -98 72 12 c 128,-1,37
 75 122 75 122 75 204 c 0,38,39
 75 296 75 296 72.5 356 c 128,-1,40
 70 416 70 416 63 454.5 c 128,-1,41
 56 493 56 493 45 514 c 128,-1,42
 34 535 34 535 16 549 c 1,43,44
 12 556 12 556 12 562 c 0,45,46
 12 579 12 579 34 579 c 0,47,48
 49 579 49 579 71.5 560 c 128,-1,49
 94 541 94 541 106 510 c 1,50,-1
 109 489 l 1,51,52
 166 545 166 545 225 574.5 c 128,-1,53
 284 604 284 604 337 604 c 0,54,55
 360 604 360 604 392 599.5 c 128,-1,56
 424 595 424 595 457.5 583.5 c 128,-1,57
 491 572 491 572 524 551.5 c 128,-1,58
 557 531 557 531 583 498.5 c 128,-1,59
 609 466 609 466 625 420 c 128,-1,60
 641 374 641 374 641 311 c 0,61,62
 641 234 641 234 619.5 176 c 128,-1,63
 598 118 598 118 559.5 79.5 c 128,-1,64
 521 41 521 41 467.5 21.5 c 128,-1,65
 414 2 414 2 350 2 c 0,66,67
 323 2 323 2 295 4 c 128,-1,68
 267 6 267 6 239 14.5 c 128,-1,69
 211 23 211 23 182.5 40 c 128,-1,70
 154 57 154 57 127 86 c 1,24,25
EndSplineSet
EndChar
StartChar: q
Encoding: 113 113 84
Width: 723
Flags: W
Fore
563 356 m 2,0,-1
 563 363 l 2,1,2
 563 411 563 411 541 446.5 c 128,-1,3
 519 482 519 482 484.5 506 c 128,-1,4
 450 530 450 530 407.5 542 c 128,-1,5
 365 554 365 554 325 554 c 256,6,7
 285 554 285 554 243.5 542 c 128,-1,8
 202 530 202 530 168 500 c 128,-1,9
 134 470 134 470 112.5 420 c 128,-1,10
 91 370 91 370 91 295 c 0,11,12
 91 174 91 174 158 113 c 128,-1,13
 225 52 225 52 342 52 c 0,14,15
 370 52 370 52 400 58 c 128,-1,16
 430 64 430 64 457.5 76 c 128,-1,17
 485 88 485 88 509 106.5 c 128,-1,18
 533 125 533 125 551 150 c 1,19,20
 563 291 563 291 563 356 c 2,0,-1
545 74 m 1,21,22
 520 50 520 50 495.5 35.5 c 128,-1,23
 471 21 471 21 447 13.5 c 128,-1,24
 423 6 423 6 399 3.5 c 128,-1,25
 375 1 375 1 350 1 c 0,26,27
 284 1 284 1 227.5 18.5 c 128,-1,28
 171 36 171 36 130 72.5 c 128,-1,29
 89 109 89 109 65.5 164.5 c 128,-1,30
 42 220 42 220 42 295 c 0,31,32
 42 359 42 359 56.5 406.5 c 128,-1,33
 71 454 71 454 94.5 488 c 128,-1,34
 118 522 118 522 148.5 544 c 128,-1,35
 179 566 179 566 212 579 c 128,-1,36
 245 592 245 592 278 597 c 128,-1,37
 311 602 311 602 338 602 c 0,38,39
 397 602 397 602 457.5 572.5 c 128,-1,40
 518 543 518 543 584 477 c 1,41,-1
 586 496 l 1,42,43
 591 509 591 509 600 521.5 c 128,-1,44
 609 534 609 534 619 543 c 128,-1,45
 629 552 629 552 639 557.5 c 128,-1,46
 649 563 649 563 657 563 c 0,47,48
 668 563 668 563 675.5 558 c 128,-1,49
 683 553 683 553 683 545 c 256,50,51
 683 537 683 537 676.5 529.5 c 128,-1,52
 670 522 670 522 662 514 c 128,-1,53
 654 506 654 506 646 496 c 128,-1,54
 638 486 638 486 635 473 c 0,55,56
 627 443 627 443 619.5 396.5 c 128,-1,57
 612 350 612 350 606 275.5 c 128,-1,58
 600 201 600 201 596.5 92 c 128,-1,59
 593 -17 593 -17 593 -171 c 0,60,61
 593 -193 593 -193 593.5 -216 c 128,-1,62
 594 -239 594 -239 594 -262 c 1,63,64
 592 -271 592 -271 585.5 -275 c 128,-1,65
 579 -279 579 -279 571 -279 c 0,66,67
 561 -279 561 -279 553 -273.5 c 128,-1,68
 545 -268 545 -268 545 -260 c 2,69,-1
 545 -256 l 1,70,-1
 545 74 l 1,21,22
EndSplineSet
EndChar
StartChar: r
Encoding: 114 114 85
Width: 481
Flags: W
Fore
90 596 m 1,0,1
 90 564 90 564 93 511.5 c 128,-1,2
 96 459 96 459 102 373 c 1,3,4
 102 436 102 436 120.5 479.5 c 128,-1,5
 139 523 139 523 166 549.5 c 128,-1,6
 193 576 193 576 224.5 588 c 128,-1,7
 256 600 256 600 283 600 c 0,8,9
 331 598 331 598 361.5 583.5 c 128,-1,10
 392 569 392 569 409.5 546.5 c 128,-1,11
 427 524 427 524 433.5 496 c 128,-1,12
 440 468 440 468 440 440 c 0,13,14
 440 419 440 419 434.5 398.5 c 128,-1,15
 429 378 429 378 418 362 c 128,-1,16
 407 346 407 346 391 336 c 128,-1,17
 375 326 375 326 355 326 c 0,18,19
 337 326 337 326 319.5 329.5 c 128,-1,20
 302 333 302 333 302 343 c 0,21,22
 302 357 302 357 308.5 363.5 c 128,-1,23
 315 370 315 370 325.5 373 c 128,-1,24
 336 376 336 376 347.5 378 c 128,-1,25
 359 380 359 380 369.5 385.5 c 128,-1,26
 380 391 380 391 386.5 403.5 c 128,-1,27
 393 416 393 416 393 440 c 0,28,29
 393 461 393 461 388 480.5 c 128,-1,30
 383 500 383 500 370.5 516 c 128,-1,31
 358 532 358 532 336.5 541.5 c 128,-1,32
 315 551 315 551 283 551 c 0,33,34
 239 551 239 551 210 519.5 c 128,-1,35
 181 488 181 488 163 438.5 c 128,-1,36
 145 389 145 389 136 327.5 c 128,-1,37
 127 266 127 266 123 206.5 c 128,-1,38
 119 147 119 147 118 96 c 128,-1,39
 117 45 117 45 115 16 c 0,40,41
 115 4 115 4 107 -2 c 128,-1,42
 99 -8 99 -8 89 -8 c 256,43,44
 79 -8 79 -8 71 -2 c 128,-1,45
 63 4 63 4 63 16 c 0,46,47
 63 35 63 35 63.5 64 c 128,-1,48
 64 93 64 93 64 136 c 0,49,50
 64 205 64 205 60 316 c 128,-1,51
 56 427 56 427 41 594 c 0,52,53
 41 605 41 605 47.5 610.5 c 128,-1,54
 54 616 54 616 62 616 c 0,55,56
 71 616 71 616 79.5 610.5 c 128,-1,57
 88 605 88 605 90 596 c 1,0,1
EndSplineSet
EndChar
StartChar: s
Encoding: 115 115 86
Width: 475
Flags: W
Fore
375 430 m 1,0,1
 375 431 375 431 375 437.5 c 128,-1,2
 375 444 375 444 373 453.5 c 128,-1,3
 371 463 371 463 367 474.5 c 128,-1,4
 363 486 363 486 356 497 c 0,5,6
 342 520 342 520 310.5 539.5 c 128,-1,7
 279 559 279 559 219 559 c 0,8,9
 176 559 176 559 150.5 545 c 128,-1,10
 125 531 125 531 111.5 512.5 c 128,-1,11
 98 494 98 494 94 475 c 128,-1,12
 90 456 90 456 90 446 c 0,13,14
 90 409 90 409 115.5 388 c 128,-1,15
 141 367 141 367 179 352 c 128,-1,16
 217 337 217 337 261 323.5 c 128,-1,17
 305 310 305 310 343 289 c 128,-1,18
 381 268 381 268 406.5 234 c 128,-1,19
 432 200 432 200 432 145 c 0,20,21
 432 119 432 119 420 92.5 c 128,-1,22
 408 66 408 66 384 45 c 128,-1,23
 360 24 360 24 324.5 11 c 128,-1,24
 289 -2 289 -2 242 -2 c 0,25,26
 198 -2 198 -2 161 12 c 128,-1,27
 124 26 124 26 95.5 49 c 128,-1,28
 67 72 67 72 49 100.5 c 128,-1,29
 31 129 31 129 25 158 c 1,30,31
 35 177 35 177 44.5 179.5 c 128,-1,32
 54 182 54 182 64 173.5 c 128,-1,33
 74 165 74 165 84.5 148 c 128,-1,34
 95 131 95 131 107 113 c 0,35,36
 115 101 115 101 126 89 c 128,-1,37
 137 77 137 77 152.5 67.5 c 128,-1,38
 168 58 168 58 190 52.5 c 128,-1,39
 212 47 212 47 242 47 c 0,40,41
 282 47 282 47 309 57.5 c 128,-1,42
 336 68 336 68 352.5 83 c 128,-1,43
 369 98 369 98 376 115 c 128,-1,44
 383 132 383 132 383 145 c 0,45,46
 383 189 383 189 357.5 215 c 128,-1,47
 332 241 332 241 294 258 c 128,-1,48
 256 275 256 275 212 288 c 128,-1,49
 168 301 168 301 130 319.5 c 128,-1,50
 92 338 92 338 66.5 367.5 c 128,-1,51
 41 397 41 397 41 446 c 0,52,53
 41 463 41 463 48 490.5 c 128,-1,54
 55 518 55 518 74.5 544 c 128,-1,55
 94 570 94 570 128.5 589 c 128,-1,56
 163 608 163 608 219 608 c 0,57,58
 267 609 267 609 305 596.5 c 128,-1,59
 343 584 343 584 369.5 561 c 128,-1,60
 396 538 396 538 410 506 c 128,-1,61
 424 474 424 474 424 436 c 0,62,63
 424 415 424 415 401 413 c 0,64,65
 380 412 380 412 375 432 c 1,66,-1
 375 430 l 1,0,1
EndSplineSet
EndChar
StartChar: t
Encoding: 116 116 87
Width: 420
Flags: W
Fore
139 526 m 1,0,1
 147 584 147 584 150 639.5 c 128,-1,2
 153 695 153 695 155.5 740 c 128,-1,3
 158 785 158 785 161.5 815.5 c 128,-1,4
 165 846 165 846 174 852 c 1,5,6
 186 856 186 856 199 856 c 0,7,8
 217 856 217 856 217 834 c 1,9,10
 214 818 214 818 211 796 c 128,-1,11
 208 774 208 774 205 738 c 128,-1,12
 202 702 202 702 198.5 649 c 128,-1,13
 195 596 195 596 190 520 c 1,14,15
 241 520 241 520 269 517 c 128,-1,16
 297 514 297 514 310 509 c 128,-1,17
 323 504 323 504 325.5 498 c 128,-1,18
 328 492 328 492 328 487 c 1,19,20
 326 477 326 477 309.5 473 c 128,-1,21
 293 469 293 469 271.5 468.5 c 128,-1,22
 250 468 250 468 227 468.5 c 128,-1,23
 204 469 204 469 190 467 c 1,24,-1
 190 418 l 2,25,26
 190 326 190 326 192 260 c 128,-1,27
 194 194 194 194 203 151.5 c 128,-1,28
 212 109 212 109 231 88.5 c 128,-1,29
 250 68 250 68 283 68 c 0,30,31
 315 68 315 68 329.5 93.5 c 128,-1,32
 344 119 344 119 350 158 c 0,33,34
 353 181 353 181 370 181 c 0,35,36
 381 181 381 181 391 171.5 c 128,-1,37
 401 162 401 162 403 145 c 1,38,39
 392 79 392 79 365.5 47 c 128,-1,40
 339 15 339 15 277 15 c 0,41,42
 235 15 235 15 207.5 36.5 c 128,-1,43
 180 58 180 58 163.5 98 c 128,-1,44
 147 138 147 138 140.5 195.5 c 128,-1,45
 134 253 134 253 134 325 c 0,46,47
 134 359 134 359 135.5 396 c 128,-1,48
 137 433 137 433 139 473 c 1,49,50
 116 479 116 479 95 482.5 c 128,-1,51
 74 486 74 486 57 490.5 c 128,-1,52
 40 495 40 495 30 501 c 128,-1,53
 20 507 20 507 20 517 c 0,54,55
 20 530 20 530 32 535 c 128,-1,56
 44 540 44 540 60 540 c 0,57,58
 71 540 71 540 83.5 538 c 128,-1,59
 96 536 96 536 107 534 c 128,-1,60
 118 532 118 532 126.5 529.5 c 128,-1,61
 135 527 135 527 139 526 c 1,0,1
EndSplineSet
EndChar
StartChar: u
Encoding: 117 117 88
Width: 623
Flags: W
Fore
478 202 m 1,0,1
 468 139 468 139 449.5 100 c 128,-1,2
 431 61 431 61 405 39 c 128,-1,3
 379 17 379 17 346.5 9 c 128,-1,4
 314 1 314 1 276 2 c 0,5,6
 224 3 224 3 187 19 c 128,-1,7
 150 35 150 35 127 68 c 128,-1,8
 104 101 104 101 93 153 c 128,-1,9
 82 205 82 205 82 279 c 2,10,-1
 82 575 l 1,11,12
 87 589 87 589 109 589 c 0,13,14
 127 589 127 589 127 575 c 2,15,-1
 129 276 l 2,16,17
 131 229 131 229 134.5 187 c 128,-1,18
 138 145 138 145 152.5 113 c 128,-1,19
 167 81 167 81 197 62 c 128,-1,20
 227 43 227 43 281 43 c 256,21,22
 335 43 335 43 368.5 75.5 c 128,-1,23
 402 108 402 108 420.5 158.5 c 128,-1,24
 439 209 439 209 445.5 271 c 128,-1,25
 452 333 452 333 453 391.5 c 128,-1,26
 454 450 454 450 452.5 499 c 128,-1,27
 451 548 451 548 453 573 c 0,28,29
 453 584 453 584 461 590 c 128,-1,30
 469 596 469 596 478 596 c 0,31,32
 488 596 488 596 495.5 590 c 128,-1,33
 503 584 503 584 504 571 c 2,34,-1
 516 113 l 2,35,36
 516 97 516 97 526 77 c 128,-1,37
 536 57 536 57 553 41 c 1,38,39
 556 35 556 35 556 29 c 0,40,41
 556 20 556 20 549 14 c 128,-1,42
 542 8 542 8 531 8 c 0,43,44
 518 8 518 8 509 15.5 c 128,-1,45
 500 23 500 23 493.5 36 c 128,-1,46
 487 49 487 49 482 65 c 128,-1,47
 477 81 477 81 473 98 c 1,48,-1
 478 202 l 1,0,1
EndSplineSet
EndChar
StartChar: v
Encoding: 118 118 89
Width: 594
Flags: W
Fore
119 567 m 0,0,1
 123 558 123 558 134 517.5 c 128,-1,2
 145 477 145 477 160.5 420.5 c 128,-1,3
 176 364 176 364 194.5 301 c 128,-1,4
 213 238 213 238 232.5 184.5 c 128,-1,5
 252 131 252 131 270 96 c 128,-1,6
 288 61 288 61 303 61 c 0,7,8
 316 61 316 61 333.5 95.5 c 128,-1,9
 351 130 351 130 370.5 182.5 c 128,-1,10
 390 235 390 235 409.5 298 c 128,-1,11
 429 361 429 361 446 417.5 c 128,-1,12
 463 474 463 474 475 516 c 128,-1,13
 487 558 487 558 492 569 c 0,14,15
 497 584 497 584 507.5 594.5 c 128,-1,16
 518 605 518 605 529 605 c 0,17,18
 537 605 537 605 542 598 c 128,-1,19
 547 591 547 591 547 575 c 1,20,21
 545 570 545 570 538 543.5 c 128,-1,22
 531 517 531 517 519.5 476.5 c 128,-1,23
 508 436 508 436 492.5 386 c 128,-1,24
 477 336 477 336 459 284.5 c 128,-1,25
 441 233 441 233 421 184 c 128,-1,26
 401 135 401 135 381 96.5 c 128,-1,27
 361 58 361 58 341 35 c 128,-1,28
 321 12 321 12 303 12 c 0,29,30
 280 12 280 12 256 45 c 128,-1,31
 232 78 232 78 209.5 129 c 128,-1,32
 187 180 187 180 166 241.5 c 128,-1,33
 145 303 145 303 127.5 360 c 128,-1,34
 110 417 110 417 97 462 c 128,-1,35
 84 507 84 507 78 524 c 0,36,37
 73 537 73 537 71 547 c 128,-1,38
 69 557 69 557 69 565 c 0,39,40
 69 578 69 578 74 583 c 128,-1,41
 79 588 79 588 86 588 c 0,42,43
 94 588 94 588 103.5 582.5 c 128,-1,44
 113 577 113 577 119 567 c 0,0,1
EndSplineSet
EndChar
StartChar: w
Encoding: 119 119 90
Width: 918
Flags: W
Fore
834 584 m 1,0,1
 820 422 820 422 800 311 c 128,-1,2
 780 200 780 200 757 131.5 c 128,-1,3
 734 63 734 63 710.5 33.5 c 128,-1,4
 687 4 687 4 667 4 c 0,5,6
 648 4 648 4 619.5 32.5 c 128,-1,7
 591 61 591 61 562 112 c 128,-1,8
 533 163 533 163 506.5 233 c 128,-1,9
 480 303 480 303 465 385 c 1,10,11
 444 303 444 303 422.5 233.5 c 128,-1,12
 401 164 401 164 378.5 113 c 128,-1,13
 356 62 356 62 333 33 c 128,-1,14
 310 4 310 4 287 4 c 0,15,16
 261 4 261 4 233 31.5 c 128,-1,17
 205 59 205 59 179.5 126.5 c 128,-1,18
 154 194 154 194 132.5 308.5 c 128,-1,19
 111 423 111 423 98 596 c 1,20,21
 103 600 103 600 109.5 602.5 c 128,-1,22
 116 605 116 605 122 605 c 0,23,24
 132 605 132 605 141 592 c 1,25,26
 156 448 156 448 176.5 346 c 128,-1,27
 197 244 197 244 217.5 179.5 c 128,-1,28
 238 115 238 115 256.5 85 c 128,-1,29
 275 55 275 55 287 55 c 256,30,31
 299 55 299 55 313.5 76.5 c 128,-1,32
 328 98 328 98 343 133.5 c 128,-1,33
 358 169 358 169 373 213.5 c 128,-1,34
 388 258 388 258 401 304.5 c 128,-1,35
 414 351 414 351 425 395 c 128,-1,36
 436 439 436 439 442 473 c 0,37,38
 446 489 446 489 464 489 c 0,39,40
 484 489 484 489 485 467 c 0,41,42
 486 434 486 434 496 391.5 c 128,-1,43
 506 349 506 349 521 304.5 c 128,-1,44
 536 260 536 260 555 217 c 128,-1,45
 574 174 574 174 594 140.5 c 128,-1,46
 614 107 614 107 632.5 86.5 c 128,-1,47
 651 66 651 66 666 66 c 0,48,49
 675 66 675 66 692 102 c 128,-1,50
 709 138 709 138 727 207 c 128,-1,51
 745 276 745 276 761.5 375.5 c 128,-1,52
 778 475 778 475 786 602 c 1,53,54
 797 608 797 608 805 610 c 1,55,56
 813 610 813 610 820 605 c 128,-1,57
 827 600 827 600 834 584 c 1,0,1
EndSplineSet
EndChar
StartChar: x
Encoding: 120 120 91
Width: 586
Flags: W
Fore
496 14 m 1,0,1
 439 86 439 86 388.5 148.5 c 128,-1,2
 338 211 338 211 293 274 c 1,3,4
 239 205 239 205 187 140.5 c 128,-1,5
 135 76 135 76 100 16 c 0,6,7
 91 4 91 4 80 4 c 256,8,9
 69 4 69 4 63.5 10 c 128,-1,10
 58 16 58 16 58 25 c 0,11,12
 58 29 58 29 65 42.5 c 128,-1,13
 72 56 72 56 84 76 c 128,-1,14
 96 96 96 96 113 121.5 c 128,-1,15
 130 147 130 147 150 175 c 0,16,17
 166 198 166 198 183 220 c 128,-1,18
 200 242 200 242 215 261.5 c 128,-1,19
 230 281 230 281 242 297 c 128,-1,20
 254 313 254 313 260 322 c 1,21,22
 221 376 221 376 176.5 438.5 c 128,-1,23
 132 501 132 501 84 561 c 0,24,25
 78 569 78 569 76 575 c 128,-1,26
 74 581 74 581 73 586 c 1,27,28
 73 594 73 594 79.5 598 c 128,-1,29
 86 602 86 602 95 602 c 0,30,31
 115 602 115 602 142 575 c 128,-1,32
 169 548 169 548 197 510.5 c 128,-1,33
 225 473 225 473 251 433 c 128,-1,34
 277 393 277 393 295 367 c 1,35,-1
 451 590 l 1,36,37
 457 603 457 603 469 603 c 0,38,39
 479 603 479 603 486.5 595 c 128,-1,40
 494 587 494 587 494 576 c 0,41,42
 494 568 494 568 486 552.5 c 128,-1,43
 478 537 478 537 466 518.5 c 128,-1,44
 454 500 454 500 439.5 480 c 128,-1,45
 425 460 425 460 413 442 c 0,46,47
 391 410 391 410 369.5 381 c 128,-1,48
 348 352 348 352 328 324 c 1,49,50
 379 252 379 252 431 182.5 c 128,-1,51
 483 113 483 113 535 47 c 2,52,-1
 549 29 l 1,53,54
 547 13 547 13 540 5 c 128,-1,55
 533 -3 533 -3 524 -3 c 0,56,57
 508 -3 508 -3 496 16 c 1,58,-1
 496 14 l 1,0,1
EndSplineSet
EndChar
StartChar: y
Encoding: 121 121 92
Width: 598
Flags: W
Fore
193 -274 m 0,0,1
 225 -196 225 -196 246 -142.5 c 128,-1,2
 267 -89 267 -89 279.5 -53 c 128,-1,3
 292 -17 292 -17 297 4 c 128,-1,4
 302 25 302 25 302 39 c 0,5,6
 302 44 302 44 293.5 51.5 c 128,-1,7
 285 59 285 59 272 70 c 128,-1,8
 259 81 259 81 244 95 c 128,-1,9
 229 109 229 109 217 127 c 0,10,11
 199 154 199 154 178.5 192 c 128,-1,12
 158 230 158 230 136 284 c 128,-1,13
 114 338 114 338 91.5 409.5 c 128,-1,14
 69 481 69 481 47 575 c 1,15,16
 52 596 52 596 69 596 c 0,17,18
 84 596 84 596 92 578 c 1,19,20
 127 441 127 441 159.5 351.5 c 128,-1,21
 192 262 192 262 221.5 208 c 128,-1,22
 251 154 251 154 275.5 128.5 c 128,-1,23
 300 103 300 103 319 94 c 1,24,25
 329 95 329 95 343 120 c 128,-1,26
 357 145 357 145 377 201 c 128,-1,27
 397 257 397 257 422.5 349.5 c 128,-1,28
 448 442 448 442 481 578 c 1,29,30
 490 599 490 599 508 599 c 0,31,32
 530 599 530 599 530 580 c 1,33,-1
 507 463 l 2,34,35
 498 417 498 417 481.5 356 c 128,-1,36
 465 295 465 295 436 208.5 c 128,-1,37
 407 122 407 122 361 3.5 c 128,-1,38
 315 -115 315 -115 248 -276 c 1,39,40
 232 -302 232 -302 213 -302 c 0,41,42
 202 -302 202 -302 196 -296.5 c 128,-1,43
 190 -291 190 -291 190 -285 c 0,44,45
 190 -280 190 -280 193 -274 c 0,0,1
EndSplineSet
EndChar
StartChar: z
Encoding: 122 122 93
Width: 647
Flags: W
Fore
111 39 m 0,0,1
 119 39 119 39 139 40 c 128,-1,2
 159 41 159 41 187 42 c 128,-1,3
 215 43 215 43 249.5 44 c 128,-1,4
 284 45 284 45 322 45 c 0,5,6
 377 45 377 45 434 42 c 128,-1,7
 491 39 491 39 543 31 c 1,8,9
 553 26 553 26 553 13 c 256,10,11
 553 0 553 0 542 0 c 2,12,-1
 539 0 l 2,13,14
 476 6 476 6 430.5 8 c 128,-1,15
 385 10 385 10 347 10 c 0,16,17
 317 10 317 10 289 9 c 128,-1,18
 261 8 261 8 232 7 c 128,-1,19
 203 6 203 6 169.5 5 c 128,-1,20
 136 4 136 4 94 4 c 0,21,22
 91 4 91 4 84.5 5.5 c 128,-1,23
 78 7 78 7 72 10.5 c 128,-1,24
 66 14 66 14 61.5 18.5 c 128,-1,25
 57 23 57 23 57 29 c 0,26,27
 57 37 57 37 66 45 c 0,28,29
 223 225 223 225 345 348 c 128,-1,30
 467 471 467 471 543 551 c 1,31,32
 515 546 515 546 466.5 543 c 128,-1,33
 418 540 418 540 362 540 c 0,34,35
 226 540 226 540 162.5 548 c 128,-1,36
 99 556 99 556 99 579 c 0,37,38
 99 592 99 592 119 592 c 2,39,-1
 125 592 l 1,40,41
 182 583 182 583 227.5 579 c 128,-1,42
 273 575 273 575 315 575 c 0,43,44
 367 575 367 575 423 581.5 c 128,-1,45
 479 588 479 588 556 588 c 0,46,47
 563 588 563 588 575.5 581.5 c 128,-1,48
 588 575 588 575 588 565 c 0,49,50
 588 558 588 558 582 551 c 0,51,52
 456 412 456 412 366.5 317.5 c 128,-1,53
 277 223 277 223 219.5 163.5 c 128,-1,54
 162 104 162 104 135 75.5 c 128,-1,55
 108 47 108 47 108 41 c 0,56,57
 108 39 108 39 111 39 c 0,0,1
EndSplineSet
EndChar
StartChar: braceleft
Encoding: 123 123 94
Width: 426
Flags: W
Fore
360 893 m 2,0,1
 371 893 371 893 376 889.5 c 128,-1,2
 381 886 381 886 381 875 c 256,3,4
 381 864 381 864 376 861 c 128,-1,5
 371 858 371 858 360 858 c 0,6,7
 355 858 355 858 349.5 858.5 c 128,-1,8
 344 859 344 859 339 859 c 0,9,10
 295 859 295 859 264 843 c 128,-1,11
 233 827 233 827 214 798 c 128,-1,12
 195 769 195 769 186.5 728 c 128,-1,13
 178 687 178 687 178 637 c 2,14,-1
 178 592 l 2,15,16
 178 562 178 562 175.5 526 c 128,-1,17
 173 490 173 490 166.5 455.5 c 128,-1,18
 160 421 160 421 148 392 c 128,-1,19
 136 363 136 363 117 348 c 1,20,21
 145 334 145 334 156.5 311 c 128,-1,22
 168 288 168 288 172 253.5 c 128,-1,23
 176 219 176 219 177.5 171 c 128,-1,24
 179 123 179 123 186 59 c 0,25,26
 191 24 191 24 200.5 -15 c 128,-1,27
 210 -54 210 -54 227 -87.5 c 128,-1,28
 244 -121 244 -121 270 -143 c 128,-1,29
 296 -165 296 -165 334 -165 c 0,30,31
 337 -165 337 -165 340 -164.5 c 128,-1,32
 343 -164 343 -164 346 -164 c 0,33,34
 361 -164 361 -164 368 -170 c 128,-1,35
 375 -176 375 -176 375 -184 c 256,36,37
 375 -192 375 -192 367 -198.5 c 128,-1,38
 359 -205 359 -205 344 -205 c 0,39,40
 295 -205 295 -205 260.5 -185 c 128,-1,41
 226 -165 226 -165 203.5 -132.5 c 128,-1,42
 181 -100 181 -100 168.5 -59 c 128,-1,43
 156 -18 156 -18 150 25 c 128,-1,44
 144 68 144 68 142.5 109 c 128,-1,45
 141 150 141 150 141 182 c 0,46,47
 141 194 141 194 139 213.5 c 128,-1,48
 137 233 137 233 132 252.5 c 128,-1,49
 127 272 127 272 116.5 288.5 c 128,-1,50
 106 305 106 305 90 311 c 0,51,52
 75 319 75 319 67.5 329.5 c 128,-1,53
 60 340 60 340 60 351 c 0,54,55
 60 361 60 361 66 369.5 c 128,-1,56
 72 378 72 378 86 383 c 1,57,-1
 86 385 l 1,58,59
 106 385 106 385 117 414 c 128,-1,60
 128 443 128 443 133.5 485 c 128,-1,61
 139 527 139 527 140 572.5 c 128,-1,62
 141 618 141 618 141 651 c 2,63,-1
 141 684 l 2,64,65
 141 730 141 730 154 768.5 c 128,-1,66
 167 807 167 807 191 835.5 c 128,-1,67
 215 864 215 864 249 880 c 128,-1,68
 283 896 283 896 325 896 c 0,69,70
 342 896 342 896 360 893 c 2,0,1
EndSplineSet
EndChar
StartChar: bar
Encoding: 124 124 95
Width: 285
Flags: W
Fore
121 1227 m 1,0,1
 121 1243 121 1243 141 1243 c 0,2,3
 151 1243 151 1243 160 1239 c 1,4,5
 165 1222 165 1222 166.5 1186.5 c 128,-1,6
 168 1151 168 1151 168 1106 c 0,7,8
 168 1072 168 1072 167.5 1033.5 c 128,-1,9
 167 995 167 995 166 956 c 128,-1,10
 165 917 165 917 164.5 878.5 c 128,-1,11
 164 840 164 840 164 805 c 2,12,-1
 164 596 l 2,13,14
 164 534 164 534 164 473 c 128,-1,15
 164 412 164 412 163 350 c 2,16,-1
 160 125 l 2,17,18
 159 84 159 84 160 53.5 c 128,-1,19
 161 23 161 23 159.5 2.5 c 128,-1,20
 158 -18 158 -18 152.5 -28.5 c 128,-1,21
 147 -39 147 -39 135 -39 c 0,22,23
 118 -37 118 -37 118 -23 c 0,24,25
 118 233 118 233 119 424 c 128,-1,26
 120 615 120 615 121.5 753.5 c 128,-1,27
 123 892 123 892 124 984 c 128,-1,28
 125 1076 125 1076 125 1133 c 0,29,30
 125 1168 125 1168 124 1193 c 128,-1,31
 123 1218 123 1218 121 1227 c 1,0,1
EndSplineSet
EndChar
StartChar: braceright
Encoding: 125 125 96
Width: 426
Flags: W
Fore
113 896 m 0,0,1
 155 896 155 896 189 880 c 128,-1,2
 223 864 223 864 247 835.5 c 128,-1,3
 271 807 271 807 284 768.5 c 128,-1,4
 297 730 297 730 297 684 c 2,5,-1
 297 651 l 2,6,7
 297 618 297 618 298 572.5 c 128,-1,8
 299 527 299 527 304 485 c 128,-1,9
 309 443 309 443 320.5 414 c 128,-1,10
 332 385 332 385 352 385 c 1,11,12
 378 374 378 374 378 351 c 0,13,14
 378 340 378 340 370.5 329.5 c 128,-1,15
 363 319 363 319 348 311 c 1,16,17
 331 305 331 305 321 288.5 c 128,-1,18
 311 272 311 272 306 252.5 c 128,-1,19
 301 233 301 233 299 213.5 c 128,-1,20
 297 194 297 194 297 182 c 0,21,22
 297 151 297 151 296 110.5 c 128,-1,23
 295 70 295 70 288.5 27 c 128,-1,24
 282 -16 282 -16 269.5 -58 c 128,-1,25
 257 -100 257 -100 233.5 -132.5 c 128,-1,26
 210 -165 210 -165 174.5 -185 c 128,-1,27
 139 -205 139 -205 88 -205 c 0,28,29
 76 -204 76 -204 69.5 -198 c 128,-1,30
 63 -192 63 -192 63 -184 c 256,31,32
 63 -176 63 -176 70 -170 c 128,-1,33
 77 -164 77 -164 92 -164 c 0,34,35
 95 -164 95 -164 98 -164.5 c 128,-1,36
 101 -165 101 -165 103 -165 c 0,37,38
 142 -165 142 -165 169 -143 c 128,-1,39
 196 -121 196 -121 213 -87.5 c 128,-1,40
 230 -54 230 -54 239.5 -14.5 c 128,-1,41
 249 25 249 25 253 59 c 128,-1,42
 257 93 257 93 257.5 116.5 c 128,-1,43
 258 140 258 140 258 141 c 0,44,45
 260 184 260 184 262 217.5 c 128,-1,46
 264 251 264 251 270 276 c 128,-1,47
 276 301 276 301 287.5 318.5 c 128,-1,48
 299 336 299 336 322 348 c 1,49,50
 299 365 299 365 286.5 398.5 c 128,-1,51
 274 432 274 432 268 471 c 128,-1,52
 262 510 262 510 261 549 c 128,-1,53
 260 588 260 588 260 616 c 2,54,-1
 260 638 l 2,55,56
 260 688 260 688 251.5 728.5 c 128,-1,57
 243 769 243 769 224 798 c 128,-1,58
 205 827 205 827 174.5 843 c 128,-1,59
 144 859 144 859 99 859 c 0,60,61
 93 859 93 859 87 858.5 c 128,-1,62
 81 858 81 858 75 858 c 0,63,64
 57 858 57 858 57 875 c 0,65,66
 57 884 57 884 63.5 888.5 c 128,-1,67
 70 893 70 893 79 894.5 c 128,-1,68
 88 896 88 896 97.5 896 c 128,-1,69
 107 896 107 896 113 896 c 0,0,1
EndSplineSet
EndChar
StartChar: asciitilde
Encoding: 126 126 97
Width: 555
Flags: W
Fore
82 489 m 0,0,1
 114 542 114 542 181 542 c 0,2,3
 201 542 201 542 218 538 c 128,-1,4
 235 534 235 534 253.5 528.5 c 128,-1,5
 272 523 272 523 294 516.5 c 128,-1,6
 316 510 316 510 345 505 c 0,7,8
 350 504 350 504 354 503.5 c 128,-1,9
 358 503 358 503 363 503 c 0,10,11
 375 503 375 503 385 507.5 c 128,-1,12
 395 512 395 512 404 517.5 c 128,-1,13
 413 523 413 523 420 527.5 c 128,-1,14
 427 532 427 532 433 532 c 0,15,16
 441 532 441 532 447.5 525.5 c 128,-1,17
 454 519 454 519 454 514 c 256,18,19
 454 509 454 509 449 504 c 0,20,21
 428 481 428 481 404.5 472 c 128,-1,22
 381 463 381 463 357 463 c 0,23,24
 334 463 334 463 311 469.5 c 128,-1,25
 288 476 288 476 265.5 484 c 128,-1,26
 243 492 243 492 220.5 498.5 c 128,-1,27
 198 505 198 505 175 505 c 0,28,29
 164 505 164 505 153.5 498.5 c 128,-1,30
 143 492 143 492 133.5 483.5 c 128,-1,31
 124 475 124 475 114.5 468.5 c 128,-1,32
 105 462 105 462 98 462 c 0,33,34
 90 462 90 462 84.5 468.5 c 128,-1,35
 79 475 79 475 79 480 c 0,36,37
 79 484 79 484 82 489 c 0,0,1
EndSplineSet
EndChar
StartChar: Euro
Encoding: 8364 8364 98
Width: 989
Flags: W
Fore
51 324 m 2,0,1
 33 324 33 324 24.5 332 c 128,-1,2
 16 340 16 340 16 349 c 128,-1,3
 16 358 16 358 24.5 366.5 c 128,-1,4
 33 375 33 375 51 375 c 2,5,-1
 135 381 l 1,6,7
 131 436 131 436 131 493.5 c 128,-1,8
 131 551 131 551 143 604 c 1,9,-1
 51 606 l 2,10,11
 33 606 33 606 24.5 614.5 c 128,-1,12
 16 623 16 623 16 633 c 128,-1,13
 16 643 16 643 24.5 651 c 128,-1,14
 33 659 33 659 51 659 c 2,15,-1
 162 657 l 1,16,17
 180 741 180 741 223 805.5 c 128,-1,18
 266 870 266 870 325.5 914 c 128,-1,19
 385 958 385 958 460 981 c 128,-1,20
 535 1004 535 1004 618 1004 c 0,21,22
 690 1004 690 1004 771 984.5 c 128,-1,23
 852 965 852 965 930 924 c 0,24,25
 948 913 948 913 951 902 c 128,-1,26
 954 891 954 891 950 880.5 c 128,-1,27
 946 870 946 870 935 866 c 128,-1,28
 924 862 924 862 911 868 c 0,29,30
 836 907 836 907 762 928.5 c 128,-1,31
 688 950 688 950 616 950 c 0,32,33
 475 950 475 950 365.5 874.5 c 128,-1,34
 256 799 256 799 213 657 c 1,35,-1
 727 653 l 2,36,37
 745 653 745 653 753.5 645 c 128,-1,38
 762 637 762 637 762 626.5 c 128,-1,39
 762 616 762 616 753.5 608 c 128,-1,40
 745 600 745 600 727 600 c 2,41,-1
 195 604 l 1,42,43
 182 543 182 543 182 465 c 0,44,45
 182 442 182 442 183 418.5 c 128,-1,46
 184 395 184 395 188 379 c 1,47,-1
 727 383 l 2,48,49
 743 381 743 381 751.5 373 c 128,-1,50
 760 365 760 365 760 355.5 c 128,-1,51
 760 346 760 346 751.5 339 c 128,-1,52
 743 332 743 332 727 332 c 2,53,-1
 205 326 l 1,54,55
 231 252 231 252 280.5 198.5 c 128,-1,56
 330 145 330 145 391.5 111.5 c 128,-1,57
 453 78 453 78 525.5 61.5 c 128,-1,58
 598 45 598 45 672 45 c 0,59,60
 737 45 737 45 800.5 57.5 c 128,-1,61
 864 70 864 70 911 98 c 0,62,63
 924 104 924 104 934 101 c 128,-1,64
 944 98 944 98 949 91 c 128,-1,65
 954 84 954 84 953 75 c 128,-1,66
 952 66 952 66 940 61 c 1,67,-1
 942 61 l 1,68,69
 883 31 883 31 809 14.5 c 128,-1,70
 735 -2 735 -2 657 -2 c 0,71,72
 580 -2 580 -2 501 15.5 c 128,-1,73
 422 33 422 33 354.5 72 c 128,-1,74
 287 111 287 111 234.5 173.5 c 128,-1,75
 182 236 182 236 156 324 c 1,76,-1
 51 324 l 2,0,1
EndSplineSet
EndChar
StartChar: quotesinglbase
Encoding: 8218 8218 99
Width: 258
Flags: W
Fore
88 -193 m 1,0,1
 72 -207 72 -207 60.5 -196.5 c 128,-1,2
 49 -186 49 -186 55 -176 c 0,3,4
 63 -166 63 -166 80.5 -146.5 c 128,-1,5
 98 -127 98 -127 116.5 -104.5 c 128,-1,6
 135 -82 135 -82 151.5 -58.5 c 128,-1,7
 168 -35 168 -35 174 -16 c 1,8,9
 156 -27 156 -27 134.5 -28 c 128,-1,10
 113 -29 113 -29 94.5 -20.5 c 128,-1,11
 76 -12 76 -12 63.5 5.5 c 128,-1,12
 51 23 51 23 51 49 c 0,13,14
 53 76 53 76 73.5 99.5 c 128,-1,15
 94 123 94 123 129 125 c 0,16,17
 166 129 166 129 188.5 104.5 c 128,-1,18
 211 80 211 80 215 51 c 0,19,20
 219 14 219 14 202.5 -26 c 128,-1,21
 186 -66 186 -66 163.5 -99.5 c 128,-1,22
 141 -133 141 -133 118.5 -157.5 c 128,-1,23
 96 -182 96 -182 88 -193 c 1,0,1
84 51 m 0,24,25
 84 29 84 29 96.5 14.5 c 128,-1,26
 109 0 109 0 131 2 c 1,27,28
 152 0 152 0 163 15.5 c 128,-1,29
 174 31 174 31 178 47 c 0,30,31
 182 61 182 61 171 75.5 c 128,-1,32
 160 90 160 90 133 92 c 0,33,34
 115 94 115 94 99.5 83 c 128,-1,35
 84 72 84 72 84 51 c 0,24,25
EndSplineSet
EndChar
StartChar: florin
Encoding: 402 402 100
Width: 782
Flags: W
Fore
686 907 m 0,0,1
 614 926 614 926 563 905.5 c 128,-1,2
 512 885 512 885 477 836.5 c 128,-1,3
 442 788 442 788 421.5 717.5 c 128,-1,4
 401 647 401 647 395 565 c 1,5,-1
 569 565 l 2,6,7
 590 565 590 565 591 546.5 c 128,-1,8
 592 528 592 528 569 528 c 2,9,-1
 393 528 l 1,10,11
 389 324 389 324 364.5 201 c 128,-1,12
 340 78 340 78 303 12.5 c 128,-1,13
 266 -53 266 -53 221 -75.5 c 128,-1,14
 176 -98 176 -98 129 -100 c 0,15,16
 100 -102 100 -102 68.5 -97 c 128,-1,17
 37 -92 37 -92 27 -80 c 0,18,19
 12 -63 12 -63 29 -51 c 1,20,21
 35 -45 35 -45 45 -41 c 1,22,23
 74 -55 74 -55 92.5 -56 c 128,-1,24
 111 -57 111 -57 137 -55 c 0,25,26
 236 -51 236 -51 289 96.5 c 128,-1,27
 342 244 342 244 342 528 c 1,28,-1
 186 528 l 2,29,30
 170 526 170 526 167 544.5 c 128,-1,31
 164 563 164 563 186 565 c 2,32,-1
 348 565 l 1,33,34
 352 651 352 651 372.5 731 c 128,-1,35
 393 811 393 811 434 866.5 c 128,-1,36
 475 922 475 922 540.5 946.5 c 128,-1,37
 606 971 606 971 702 948 c 1,38,39
 719 940 719 940 714 920.5 c 128,-1,40
 709 901 709 901 686 907 c 0,0,1
EndSplineSet
EndChar
StartChar: quotedblbase
Encoding: 8222 8222 101
Width: 549
Flags: W
Fore
88 -193 m 1,0,1
 72 -207 72 -207 60.5 -196.5 c 128,-1,2
 49 -186 49 -186 55 -176 c 0,3,4
 63 -166 63 -166 80.5 -146.5 c 128,-1,5
 98 -127 98 -127 116.5 -104.5 c 128,-1,6
 135 -82 135 -82 151.5 -58.5 c 128,-1,7
 168 -35 168 -35 174 -16 c 1,8,9
 156 -27 156 -27 134.5 -28 c 128,-1,10
 113 -29 113 -29 94.5 -20.5 c 128,-1,11
 76 -12 76 -12 63.5 5.5 c 128,-1,12
 51 23 51 23 51 49 c 0,13,14
 53 76 53 76 73.5 99.5 c 128,-1,15
 94 123 94 123 129 125 c 0,16,17
 166 129 166 129 188.5 104.5 c 128,-1,18
 211 80 211 80 215 51 c 0,19,20
 219 14 219 14 202.5 -26 c 128,-1,21
 186 -66 186 -66 163.5 -99.5 c 128,-1,22
 141 -133 141 -133 118.5 -157.5 c 128,-1,23
 96 -182 96 -182 88 -193 c 1,0,1
84 51 m 0,24,25
 84 29 84 29 96.5 14.5 c 128,-1,26
 109 0 109 0 131 2 c 1,27,28
 152 0 152 0 163 15.5 c 128,-1,29
 174 31 174 31 178 47 c 0,30,31
 182 61 182 61 171 75.5 c 128,-1,32
 160 90 160 90 133 92 c 0,33,34
 115 94 115 94 99.5 83 c 128,-1,35
 84 72 84 72 84 51 c 0,24,25
356 -193 m 1,36,37
 340 -207 340 -207 328.5 -196.5 c 128,-1,38
 317 -186 317 -186 324 -176 c 0,39,40
 332 -166 332 -166 349.5 -146.5 c 128,-1,41
 367 -127 367 -127 385 -104.5 c 128,-1,42
 403 -82 403 -82 419.5 -58.5 c 128,-1,43
 436 -35 436 -35 442 -16 c 1,44,45
 424 -27 424 -27 402.5 -28 c 128,-1,46
 381 -29 381 -29 362.5 -20.5 c 128,-1,47
 344 -12 344 -12 331.5 5.5 c 128,-1,48
 319 23 319 23 319 49 c 0,49,50
 322 76 322 76 342 99.5 c 128,-1,51
 362 123 362 123 397 125 c 0,52,53
 434 129 434 129 456.5 104.5 c 128,-1,54
 479 80 479 80 483 51 c 0,55,56
 487 14 487 14 471 -26 c 128,-1,57
 455 -66 455 -66 432.5 -99.5 c 128,-1,58
 410 -133 410 -133 387.5 -157.5 c 128,-1,59
 365 -182 365 -182 356 -193 c 1,36,37
352 51 m 0,60,61
 352 29 352 29 364.5 14.5 c 128,-1,62
 377 0 377 0 399 2 c 1,63,64
 420 0 420 0 431 15.5 c 128,-1,65
 442 31 442 31 446 47 c 0,66,67
 451 61 451 61 439.5 75.5 c 128,-1,68
 428 90 428 90 401 92 c 0,69,70
 383 94 383 94 367.5 83 c 128,-1,71
 352 72 352 72 352 51 c 0,60,61
EndSplineSet
EndChar
StartChar: ellipsis
Encoding: 8230 8230 102
Width: 1475
Flags: W
Fore
201 49 m 0,0,1
 201 68 201 68 216 83 c 128,-1,2
 231 98 231 98 252 98 c 0,3,4
 270 98 270 98 286.5 83 c 128,-1,5
 303 68 303 68 303 49 c 0,6,7
 303 29 303 29 286.5 13.5 c 128,-1,8
 270 -2 270 -2 252 -2 c 0,9,10
 231 -2 231 -2 216 13.5 c 128,-1,11
 201 29 201 29 201 49 c 0,0,1
680 49 m 0,12,13
 680 68 680 68 695.5 83 c 128,-1,14
 711 98 711 98 731 98 c 0,15,16
 750 98 750 98 766 83 c 128,-1,17
 782 68 782 68 782 49 c 0,18,19
 782 29 782 29 766 13.5 c 128,-1,20
 750 -2 750 -2 731 -2 c 0,21,22
 711 -2 711 -2 695.5 13.5 c 128,-1,23
 680 29 680 29 680 49 c 0,12,13
1163 49 m 0,24,25
 1163 68 1163 68 1178.5 83 c 128,-1,26
 1194 98 1194 98 1214 98 c 0,27,28
 1233 98 1233 98 1249.5 83 c 128,-1,29
 1266 68 1266 68 1266 49 c 0,30,31
 1266 29 1266 29 1249.5 13.5 c 128,-1,32
 1233 -2 1233 -2 1214 -2 c 0,33,34
 1194 -2 1194 -2 1178.5 13.5 c 128,-1,35
 1163 29 1163 29 1163 49 c 0,24,25
EndSplineSet
EndChar
StartChar: dagger
Encoding: 8224 8224 103
Width: 782
Flags: W
Fore
109 653 m 0,0,1
 160 655 160 655 207 657 c 0,2,3
 248 659 248 659 289 659 c 128,-1,4
 330 659 330 659 354 659 c 1,5,-1
 354 961 l 1,6,7
 352 973 352 973 360.5 980 c 128,-1,8
 369 987 369 987 380 987 c 128,-1,9
 391 987 391 987 400.5 980 c 128,-1,10
 410 973 410 973 410 958 c 2,11,-1
 410 662 l 1,12,13
 432 662 432 662 475 662 c 128,-1,14
 518 662 518 662 559 660.5 c 128,-1,15
 600 659 600 659 632 654 c 128,-1,16
 664 649 664 649 666 639 c 0,17,18
 668 631 668 631 668 623 c 1,19,20
 666 616 666 616 661.5 610 c 128,-1,21
 657 604 657 604 645 606 c 0,22,23
 625 608 625 608 594 609 c 128,-1,24
 563 610 563 610 529.5 612 c 128,-1,25
 496 614 496 614 463 614 c 128,-1,26
 430 614 430 614 408 614 c 1,27,-1
 418 -37 l 1,28,29
 412 -63 412 -63 388.5 -60 c 128,-1,30
 365 -57 365 -57 365 -41 c 2,31,-1
 352 610 l 1,32,33
 328 608 328 608 293 608 c 128,-1,34
 258 608 258 608 222 608 c 128,-1,35
 186 608 186 608 155.5 606 c 128,-1,36
 125 604 125 604 109 602 c 0,37,38
 98 602 98 602 93 609 c 128,-1,39
 88 616 88 616 87 625.5 c 128,-1,40
 86 635 86 635 91 643 c 128,-1,41
 96 651 96 651 109 653 c 0,0,1
EndSplineSet
EndChar
StartChar: daggerdbl
Encoding: 8225 8225 104
Width: 782
Flags: W
Fore
367 256 m 1,0,1
 283 260 283 260 211 256 c 0,2,3
 172 254 172 254 135 252 c 0,4,5
 125 252 125 252 120 258 c 128,-1,6
 115 264 115 264 116 273.5 c 128,-1,7
 117 283 117 283 124 290 c 128,-1,8
 131 297 131 297 147 297 c 0,9,10
 186 297 186 297 223 299 c 0,11,12
 256 299 256 299 294 300 c 128,-1,13
 332 301 332 301 362 297 c 1,14,-1
 360 623 l 1,15,16
 336 621 336 621 301 621 c 128,-1,17
 266 621 266 621 230.5 621 c 128,-1,18
 195 621 195 621 164 618.5 c 128,-1,19
 133 616 133 616 117 614 c 0,20,21
 106 614 106 614 101 621.5 c 128,-1,22
 96 629 96 629 95 638 c 128,-1,23
 94 647 94 647 99 655.5 c 128,-1,24
 104 664 104 664 117 666 c 0,25,26
 168 668 168 668 215 670 c 0,27,28
 256 672 256 672 297 672 c 128,-1,29
 338 672 338 672 362 672 c 1,30,-1
 362 973 l 1,31,32
 360 985 360 985 368.5 992 c 128,-1,33
 377 999 377 999 388 999 c 128,-1,34
 399 999 399 999 408.5 992 c 128,-1,35
 418 985 418 985 418 971 c 2,36,-1
 418 674 l 1,37,38
 440 674 440 674 483 674 c 128,-1,39
 526 674 526 674 567 673 c 128,-1,40
 608 672 608 672 640 667 c 128,-1,41
 672 662 672 662 674 651 c 0,42,43
 676 643 676 643 676 635 c 1,44,45
 674 629 674 629 670 622.5 c 128,-1,46
 666 616 666 616 653 618 c 0,47,48
 633 621 633 621 602 622 c 128,-1,49
 571 623 571 623 537.5 625 c 128,-1,50
 504 627 504 627 471 627 c 128,-1,51
 438 627 438 627 416 627 c 1,52,-1
 420 305 l 1,53,54
 455 305 455 305 491.5 304 c 128,-1,55
 528 303 528 303 561 301 c 0,56,57
 598 299 598 299 637 295 c 0,58,59
 651 295 651 295 657.5 287 c 128,-1,60
 664 279 664 279 663 269.5 c 128,-1,61
 662 260 662 260 653.5 253 c 128,-1,62
 645 246 645 246 629 248 c 0,63,64
 602 252 602 252 569 254 c 0,65,66
 541 256 541 256 504 257 c 128,-1,67
 467 258 467 258 422 254 c 1,68,-1
 426 -25 l 1,69,70
 420 -51 420 -51 396.5 -48 c 128,-1,71
 373 -45 373 -45 373 -29 c 2,72,-1
 367 256 l 1,0,1
EndSplineSet
EndChar
StartChar: circumflex
Encoding: 710 710 105
Width: 657
Flags: W
Fore
174 966 m 0,0,1
 158 949 158 949 142.5 957.5 c 128,-1,2
 127 966 127 966 141 984 c 1,3,4
 184 1025 184 1025 212 1050.5 c 128,-1,5
 240 1076 240 1076 259.5 1091.5 c 128,-1,6
 279 1107 279 1107 293 1112 c 128,-1,7
 307 1117 307 1117 319 1119 c 0,8,9
 334 1121 334 1121 349.5 1114 c 128,-1,10
 365 1107 365 1107 384 1088.5 c 128,-1,11
 403 1070 403 1070 431 1039.5 c 128,-1,12
 459 1009 459 1009 498 966 c 0,13,14
 506 955 506 955 488.5 949 c 128,-1,15
 471 943 471 943 457 959 c 0,16,17
 416 1000 416 1000 393.5 1025 c 128,-1,18
 371 1050 371 1050 357.5 1062 c 128,-1,19
 344 1074 344 1074 336 1077 c 128,-1,20
 328 1080 328 1080 319 1080 c 0,21,22
 307 1080 307 1080 296 1075 c 128,-1,23
 285 1070 285 1070 269.5 1056.5 c 128,-1,24
 254 1043 254 1043 231.5 1021.5 c 128,-1,25
 209 1000 209 1000 174 966 c 0,0,1
EndSplineSet
EndChar
StartChar: perthousand
Encoding: 8240 8240 106
Width: 1260
Flags: W
Fore
326 16 m 1,0,1
 307 -6 307 -6 287.5 -2 c 128,-1,2
 268 2 268 2 279 29 c 2,3,-1
 627 879 l 2,4,5
 633 891 633 891 643 894 c 128,-1,6
 653 897 653 897 661.5 893 c 128,-1,7
 670 889 670 889 673 878.5 c 128,-1,8
 676 868 676 868 668 856 c 1,9,-1
 326 16 l 1,0,1
428 678 m 0,10,11
 428 627 428 627 394 581 c 128,-1,12
 360 535 360 535 291 535 c 0,13,14
 219 535 219 535 180 582 c 128,-1,15
 141 629 141 629 141 682 c 256,16,17
 141 735 141 735 179 781 c 128,-1,18
 217 827 217 827 291 827 c 0,19,20
 328 827 328 827 353.5 813 c 128,-1,21
 379 799 379 799 395.5 777.5 c 128,-1,22
 412 756 412 756 420 729 c 128,-1,23
 428 702 428 702 428 678 c 0,10,11
391 676 m 0,24,25
 391 713 391 713 366.5 747.5 c 128,-1,26
 342 782 342 782 293 782 c 0,27,28
 246 782 246 782 216 753.5 c 128,-1,29
 186 725 186 725 186 684 c 0,30,31
 186 641 186 641 215 609.5 c 128,-1,32
 244 578 244 578 293 578 c 0,33,34
 334 578 334 578 360.5 606.5 c 128,-1,35
 387 635 387 635 391 676 c 0,24,25
817 203 m 0,36,37
 817 152 817 152 783.5 105.5 c 128,-1,38
 750 59 750 59 680 59 c 0,39,40
 608 59 608 59 569 106.5 c 128,-1,41
 530 154 530 154 530 207 c 256,42,43
 530 260 530 260 568 306 c 128,-1,44
 606 352 606 352 680 352 c 0,45,46
 717 352 717 352 742.5 338 c 128,-1,47
 768 324 768 324 784.5 302.5 c 128,-1,48
 801 281 801 281 809 254 c 128,-1,49
 817 227 817 227 817 203 c 0,36,37
780 201 m 0,50,51
 780 238 780 238 755.5 272.5 c 128,-1,52
 731 307 731 307 682 307 c 0,53,54
 635 307 635 307 605 278.5 c 128,-1,55
 575 250 575 250 575 209 c 0,56,57
 575 166 575 166 604 134 c 128,-1,58
 633 102 633 102 682 102 c 0,59,60
 723 102 723 102 749.5 131 c 128,-1,61
 776 160 776 160 780 201 c 0,50,51
1174 203 m 0,62,63
 1174 152 1174 152 1140 105.5 c 128,-1,64
 1106 59 1106 59 1036 59 c 0,65,66
 965 59 965 59 926 106.5 c 128,-1,67
 887 154 887 154 887 207 c 256,68,69
 887 260 887 260 925 306 c 128,-1,70
 963 352 963 352 1036 352 c 0,71,72
 1073 352 1073 352 1098.5 338 c 128,-1,73
 1124 324 1124 324 1140.5 302.5 c 128,-1,74
 1157 281 1157 281 1165.5 254 c 128,-1,75
 1174 227 1174 227 1174 203 c 0,62,63
1137 201 m 0,76,77
 1137 238 1137 238 1112 272.5 c 128,-1,78
 1087 307 1087 307 1038 307 c 0,79,80
 991 307 991 307 961.5 278.5 c 128,-1,81
 932 250 932 250 932 209 c 0,82,83
 932 166 932 166 960.5 134 c 128,-1,84
 989 102 989 102 1038 102 c 0,85,86
 1079 102 1079 102 1106 131 c 128,-1,87
 1133 160 1133 160 1137 201 c 0,76,77
EndSplineSet
EndChar
StartChar: guilsinglleft
Encoding: 8249 8249 108
Width: 383
Flags: W
Fore
322 178 m 0,0,1
 338 174 338 174 343 166 c 128,-1,2
 348 158 348 158 347 150.5 c 128,-1,3
 346 143 346 143 339 138 c 128,-1,4
 332 133 332 133 324 133 c 1,5,6
 272 145 272 145 227 176 c 128,-1,7
 182 207 182 207 148.5 244 c 128,-1,8
 115 281 115 281 94.5 315.5 c 128,-1,9
 74 350 74 350 74 371 c 0,10,11
 74 389 74 389 93.5 423 c 128,-1,12
 113 457 113 457 147.5 493.5 c 128,-1,13
 182 530 182 530 229 562 c 128,-1,14
 276 594 276 594 332 610 c 1,15,16
 367 608 367 608 364.5 589.5 c 128,-1,17
 362 571 362 571 338 567 c 1,18,19
 291 551 291 551 251 522.5 c 128,-1,20
 211 494 211 494 182.5 463 c 128,-1,21
 154 432 154 432 138.5 405.5 c 128,-1,22
 123 379 123 379 123 371 c 0,23,24
 123 358 123 358 137.5 331.5 c 128,-1,25
 152 305 152 305 178.5 275.5 c 128,-1,26
 205 246 205 246 240.5 218 c 128,-1,27
 276 190 276 190 322 178 c 0,0,1
EndSplineSet
EndChar
StartChar: OE
Encoding: 338 338 109
Width: 1419
Flags: W
Fore
866 76 m 1,0,1
 934 72 934 72 990.5 67.5 c 128,-1,2
 1047 63 1047 63 1101 62 c 128,-1,3
 1155 61 1155 61 1213.5 64.5 c 128,-1,4
 1272 68 1272 68 1348 78 c 0,5,6
 1364 78 1364 78 1372 70.5 c 128,-1,7
 1380 63 1380 63 1380 55 c 0,8,9
 1380 39 1380 39 1345.5 31 c 128,-1,10
 1311 23 1311 23 1255.5 20.5 c 128,-1,11
 1200 18 1200 18 1132.5 20.5 c 128,-1,12
 1065 23 1065 23 1000.5 26 c 128,-1,13
 936 29 936 29 881.5 31 c 128,-1,14
 827 33 827 33 801 31 c 0,15,16
 778 27 778 27 755.5 22.5 c 128,-1,17
 733 18 733 18 700.5 15 c 128,-1,18
 668 12 668 12 619.5 9 c 128,-1,19
 571 6 571 6 502 4 c 0,20,21
 424 2 424 2 347 28.5 c 128,-1,22
 270 55 270 55 206.5 112.5 c 128,-1,23
 143 170 143 170 104.5 262 c 128,-1,24
 66 354 66 354 66 483 c 256,25,26
 66 612 66 612 105.5 709.5 c 128,-1,27
 145 807 145 807 210.5 873.5 c 128,-1,28
 276 940 276 940 362.5 973 c 128,-1,29
 449 1006 449 1006 541 1006 c 0,30,31
 625 1006 625 1006 694.5 987.5 c 128,-1,32
 764 969 764 969 823 897 c 1,33,-1
 821 946 l 1,34,35
 807 946 807 946 799 952 c 128,-1,36
 791 958 791 958 789.5 965.5 c 128,-1,37
 788 973 788 973 796.5 980 c 128,-1,38
 805 987 805 987 821 987 c 0,39,40
 893 991 893 991 980 992 c 128,-1,41
 1067 993 1067 993 1148 992 c 128,-1,42
 1229 991 1229 991 1291.5 987 c 128,-1,43
 1354 983 1354 983 1376 977 c 0,44,45
 1393 973 1393 973 1389.5 954.5 c 128,-1,46
 1386 936 1386 936 1366 932 c 1,47,48
 1337 934 1337 934 1281 937 c 128,-1,49
 1225 940 1225 940 1156 942 c 128,-1,50
 1087 944 1087 944 1012.5 944 c 128,-1,51
 938 944 938 944 874 938 c 1,52,53
 877 889 877 889 877 822.5 c 128,-1,54
 877 756 877 756 877 696 c 0,55,56
 877 627 877 627 874 553 c 1,57,58
 911 551 911 551 959.5 551 c 128,-1,59
 1008 551 1008 551 1059 551 c 128,-1,60
 1110 551 1110 551 1159 550 c 128,-1,61
 1208 549 1208 549 1249 545 c 0,62,63
 1266 543 1266 543 1269 521.5 c 128,-1,64
 1272 500 1272 500 1255 500 c 1,65,66
 1251 496 1251 496 1209 498 c 128,-1,67
 1167 500 1167 500 1108 501 c 128,-1,68
 1049 502 1049 502 985.5 503 c 128,-1,69
 922 504 922 504 877 500 c 1,70,-1
 866 76 l 1,0,1
825 500 m 2,71,72
 825 549 825 549 825 596 c 128,-1,73
 825 643 825 643 825 685 c 128,-1,74
 825 727 825 727 824 759 c 128,-1,75
 823 791 823 791 821 809 c 1,76,77
 797 856 797 856 765 883.5 c 128,-1,78
 733 911 733 911 696 926.5 c 128,-1,79
 659 942 659 942 619.5 947 c 128,-1,80
 580 952 580 952 541 954 c 0,81,82
 457 956 457 956 380 926.5 c 128,-1,83
 303 897 303 897 244.5 838.5 c 128,-1,84
 186 780 186 780 150.5 692 c 128,-1,85
 115 604 115 604 115 487 c 0,86,87
 115 371 115 371 148.5 289 c 128,-1,88
 182 207 182 207 237.5 154.5 c 128,-1,89
 293 102 293 102 362.5 78.5 c 128,-1,90
 432 55 432 55 502 55 c 0,91,92
 557 55 557 55 597 55 c 128,-1,93
 637 55 637 55 671 58 c 128,-1,94
 705 61 705 61 737.5 67.5 c 128,-1,95
 770 74 770 74 811 88 c 1,96,-1
 825 500 l 2,71,72
EndSplineSet
EndChar
StartChar: quoteleft
Encoding: 8216 8216 110
Width: 354
Flags: W
Fore
174 836 m 1,0,1
 190 850 190 850 201.5 839.5 c 128,-1,2
 213 829 213 829 207 819 c 1,3,4
 188 799 188 799 167.5 775.5 c 128,-1,5
 147 752 147 752 133 717 c 1,6,7
 152 727 152 727 173.5 728 c 128,-1,8
 195 729 195 729 213 721 c 128,-1,9
 231 713 231 713 243.5 695.5 c 128,-1,10
 256 678 256 678 256 651 c 0,11,12
 254 625 254 625 233.5 601.5 c 128,-1,13
 213 578 213 578 178 575 c 0,14,15
 141 571 141 571 118.5 592.5 c 128,-1,16
 96 614 96 614 92 649 c 0,17,18
 88 682 88 682 97 711.5 c 128,-1,19
 106 741 106 741 120.5 766 c 128,-1,20
 135 791 135 791 150.5 808 c 128,-1,21
 166 825 166 825 174 836 c 1,0,1
223 649 m 0,22,23
 223 672 223 672 211 686 c 128,-1,24
 199 700 199 700 176 698 c 1,25,26
 156 700 156 700 142.5 685 c 128,-1,27
 129 670 129 670 129 653 c 0,28,29
 129 639 129 639 138 624.5 c 128,-1,30
 147 610 147 610 174 608 c 0,31,32
 193 606 193 606 208 617.5 c 128,-1,33
 223 629 223 629 223 649 c 0,22,23
EndSplineSet
EndChar
StartChar: quoteright
Encoding: 8217 8217 111
Width: 354
Flags: W
Fore
164 836 m 1,0,1
 172 825 172 825 187.5 808 c 128,-1,2
 203 791 203 791 217 766 c 128,-1,3
 231 741 231 741 240.5 711.5 c 128,-1,4
 250 682 250 682 246 649 c 0,5,6
 242 614 242 614 219.5 592.5 c 128,-1,7
 197 571 197 571 160 575 c 0,8,9
 125 578 125 578 104.5 601.5 c 128,-1,10
 84 625 84 625 82 651 c 0,11,12
 82 678 82 678 94 695.5 c 128,-1,13
 106 713 106 713 124.5 721 c 128,-1,14
 143 729 143 729 164.5 728 c 128,-1,15
 186 727 186 727 205 717 c 1,16,17
 190 752 190 752 170 775.5 c 128,-1,18
 150 799 150 799 131 819 c 1,19,20
 125 829 125 829 136 839.5 c 128,-1,21
 147 850 147 850 164 836 c 1,0,1
115 649 m 0,22,23
 115 629 115 629 130 617.5 c 128,-1,24
 145 606 145 606 164 608 c 0,25,26
 190 610 190 610 199.5 624.5 c 128,-1,27
 209 639 209 639 209 653 c 0,28,29
 209 670 209 670 195.5 685 c 128,-1,30
 182 700 182 700 162 698 c 1,31,32
 139 700 139 700 127 686 c 128,-1,33
 115 672 115 672 115 649 c 0,22,23
EndSplineSet
EndChar
StartChar: quotedblleft
Encoding: 8220 8220 112
Width: 530
Flags: W
Fore
369 836 m 1,0,1
 385 850 385 850 396.5 839.5 c 128,-1,2
 408 829 408 829 401 819 c 0,3,4
 383 799 383 799 362.5 775.5 c 128,-1,5
 342 752 342 752 328 717 c 1,6,7
 346 727 346 727 367.5 728 c 128,-1,8
 389 729 389 729 407.5 721 c 128,-1,9
 426 713 426 713 438.5 695.5 c 128,-1,10
 451 678 451 678 451 651 c 0,11,12
 449 625 449 625 428.5 601.5 c 128,-1,13
 408 578 408 578 373 575 c 0,14,15
 336 571 336 571 313.5 592.5 c 128,-1,16
 291 614 291 614 287 649 c 0,17,18
 283 682 283 682 292 711.5 c 128,-1,19
 301 741 301 741 315.5 766 c 128,-1,20
 330 791 330 791 345 808 c 128,-1,21
 360 825 360 825 369 836 c 1,0,1
418 649 m 0,22,23
 418 672 418 672 405.5 686 c 128,-1,24
 393 700 393 700 371 698 c 1,25,26
 350 700 350 700 337 685 c 128,-1,27
 324 670 324 670 324 653 c 0,28,29
 324 639 324 639 333 624.5 c 128,-1,30
 342 610 342 610 369 608 c 0,31,32
 387 606 387 606 402.5 617.5 c 128,-1,33
 418 629 418 629 418 649 c 0,22,23
174 829 m 1,34,35
 190 844 190 844 201.5 833.5 c 128,-1,36
 213 823 213 823 207 813 c 1,37,38
 188 793 188 793 167.5 769 c 128,-1,39
 147 745 147 745 133 711 c 1,40,41
 152 721 152 721 173.5 722 c 128,-1,42
 195 723 195 723 213 715 c 128,-1,43
 231 707 231 707 243.5 689.5 c 128,-1,44
 256 672 256 672 256 645 c 0,45,46
 254 618 254 618 233.5 594.5 c 128,-1,47
 213 571 213 571 178 569 c 0,48,49
 141 565 141 565 118.5 586.5 c 128,-1,50
 96 608 96 608 92 643 c 0,51,52
 88 676 88 676 97 705.5 c 128,-1,53
 106 735 106 735 120.5 759.5 c 128,-1,54
 135 784 135 784 150.5 801.5 c 128,-1,55
 166 819 166 819 174 829 c 1,34,35
223 643 m 0,56,57
 223 666 223 666 211 680 c 128,-1,58
 199 694 199 694 176 692 c 1,59,60
 156 694 156 694 142.5 679 c 128,-1,61
 129 664 129 664 129 647 c 0,62,63
 129 633 129 633 138 618.5 c 128,-1,64
 147 604 147 604 174 602 c 0,65,66
 193 600 193 600 208 611.5 c 128,-1,67
 223 623 223 623 223 643 c 0,56,57
EndSplineSet
EndChar
StartChar: quotedblright
Encoding: 8221 8221 113
Width: 530
Flags: W
Fore
164 579 m 1,0,1
 147 565 147 565 136 575.5 c 128,-1,2
 125 586 125 586 131 596 c 1,3,4
 150 616 150 616 170 639.5 c 128,-1,5
 190 663 190 663 205 698 c 1,6,7
 186 688 186 688 164.5 687 c 128,-1,8
 143 686 143 686 124.5 694 c 128,-1,9
 106 702 106 702 94 719.5 c 128,-1,10
 82 737 82 737 82 764 c 0,11,12
 84 790 84 790 104.5 813.5 c 128,-1,13
 125 837 125 837 160 840 c 0,14,15
 197 844 197 844 219.5 822.5 c 128,-1,16
 242 801 242 801 246 766 c 0,17,18
 250 733 250 733 240.5 703.5 c 128,-1,19
 231 674 231 674 217 649 c 128,-1,20
 203 624 203 624 187.5 607 c 128,-1,21
 172 590 172 590 164 579 c 1,0,1
115 766 m 0,22,23
 115 743 115 743 127 729 c 128,-1,24
 139 715 139 715 162 717 c 1,25,26
 182 715 182 715 195.5 730 c 128,-1,27
 209 745 209 745 209 762 c 0,28,29
 209 776 209 776 199.5 790.5 c 128,-1,30
 190 805 190 805 164 807 c 0,31,32
 145 809 145 809 130 797.5 c 128,-1,33
 115 786 115 786 115 766 c 0,22,23
358 586 m 0,34,35
 342 571 342 571 330.5 581.5 c 128,-1,36
 319 592 319 592 326 602 c 0,37,38
 344 622 344 622 364.5 646 c 128,-1,39
 385 670 385 670 399 704 c 1,40,41
 381 694 381 694 359.5 693 c 128,-1,42
 338 692 338 692 319.5 700 c 128,-1,43
 301 708 301 708 288.5 725.5 c 128,-1,44
 276 743 276 743 276 770 c 0,45,46
 279 797 279 797 299 820.5 c 128,-1,47
 319 844 319 844 354 846 c 0,48,49
 391 850 391 850 413.5 828.5 c 128,-1,50
 436 807 436 807 440 772 c 0,51,52
 444 739 444 739 435 709.5 c 128,-1,53
 426 680 426 680 411.5 655.5 c 128,-1,54
 397 631 397 631 382 613.5 c 128,-1,55
 367 596 367 596 358 586 c 0,34,35
309 772 m 0,56,57
 309 749 309 749 321.5 735 c 128,-1,58
 334 721 334 721 356 723 c 1,59,60
 377 721 377 721 390 736 c 128,-1,61
 403 751 403 751 403 768 c 0,62,63
 403 782 403 782 394 796.5 c 128,-1,64
 385 811 385 811 358 813 c 0,65,66
 340 815 340 815 324.5 803.5 c 128,-1,67
 309 792 309 792 309 772 c 0,56,57
EndSplineSet
EndChar
StartChar: bullet
Encoding: 8226 8226 114
Width: 664
Flags: W
Fore
287 172 m 1,0,1
 250 125 250 125 212 117 c 128,-1,2
 174 109 174 109 143.5 123 c 128,-1,3
 113 137 113 137 93.5 169 c 128,-1,4
 74 201 74 201 73 234.5 c 128,-1,5
 72 268 72 268 94.5 296 c 128,-1,6
 117 324 117 324 170 334 c 1,7,-1
 170 336 l 1,8,9
 131 381 131 381 127 419 c 128,-1,10
 123 457 123 457 141.5 484.5 c 128,-1,11
 160 512 160 512 193.5 526.5 c 128,-1,12
 227 541 227 541 260 538 c 128,-1,13
 293 535 293 535 319.5 511 c 128,-1,14
 346 487 346 487 350 440 c 1,15,16
 383 492 383 492 420 506 c 128,-1,17
 457 520 457 520 488.5 509 c 128,-1,18
 520 498 520 498 542.5 468 c 128,-1,19
 565 438 565 438 568 403.5 c 128,-1,20
 571 369 571 369 550.5 335 c 128,-1,21
 530 301 530 301 477 281 c 1,22,23
 512 246 512 246 516 211 c 128,-1,24
 520 176 520 176 502.5 148.5 c 128,-1,25
 485 121 485 121 454.5 104.5 c 128,-1,26
 424 88 424 88 391 87 c 128,-1,27
 358 86 358 86 328.5 105.5 c 128,-1,28
 299 125 299 125 287 172 c 1,0,1
328 403 m 0,29,30
 326 475 326 475 286 495.5 c 128,-1,31
 246 516 246 516 209 500.5 c 128,-1,32
 172 485 172 485 158.5 443 c 128,-1,33
 145 401 145 401 195 348 c 1,34,35
 205 344 205 344 203 326.5 c 128,-1,36
 201 309 201 309 188 307 c 0,37,38
 143 299 143 299 123.5 276.5 c 128,-1,39
 104 254 104 254 105 228.5 c 128,-1,40
 106 203 106 203 122.5 180.5 c 128,-1,41
 139 158 139 158 163.5 148.5 c 128,-1,42
 188 139 188 139 217 150.5 c 128,-1,43
 246 162 246 162 270 205 c 1,44,45
 274 219 274 219 289.5 217 c 128,-1,46
 305 215 305 215 305 205 c 1,47,48
 315 160 315 160 338.5 139.5 c 128,-1,49
 362 119 362 119 388 118 c 128,-1,50
 414 117 414 117 437.5 131 c 128,-1,51
 461 145 461 145 472 169 c 128,-1,52
 483 193 483 193 478 221.5 c 128,-1,53
 473 250 473 250 440 276 c 1,54,55
 442 276 442 276 439 286.5 c 128,-1,56
 436 297 436 297 451 299 c 1,57,58
 500 317 500 317 518.5 345 c 128,-1,59
 537 373 537 373 532.5 400.5 c 128,-1,60
 528 428 528 428 508.5 450.5 c 128,-1,61
 489 473 489 473 462.5 478 c 128,-1,62
 436 483 436 483 408.5 468 c 128,-1,63
 381 453 381 453 365 406 c 0,64,65
 358 387 358 387 343 390 c 128,-1,66
 328 393 328 393 328 403 c 0,29,30
233 297 m 0,67,68
 233 332 233 332 251.5 354.5 c 128,-1,69
 270 377 270 377 305 373 c 1,70,71
 336 377 336 377 357.5 354.5 c 128,-1,72
 379 332 379 332 379 305 c 0,73,74
 379 283 379 283 364.5 261.5 c 128,-1,75
 350 240 350 240 309 236 c 0,76,77
 281 231 281 231 257 248.5 c 128,-1,78
 233 266 233 266 233 297 c 0,67,68
264 301 m 0,79,80
 264 285 264 285 278.5 274.5 c 128,-1,81
 293 264 293 264 309 266 c 0,82,83
 332 268 332 268 339 281.5 c 128,-1,84
 346 295 346 295 346 305 c 0,85,86
 346 319 346 319 334 331.5 c 128,-1,87
 322 344 322 344 305 342 c 1,88,89
 289 344 289 344 276.5 331.5 c 128,-1,90
 264 319 264 319 264 301 c 0,79,80
EndSplineSet
EndChar
StartChar: endash
Encoding: 8211 8211 115
Width: 883
Flags: W
Fore
33 469 m 0,0,1
 125 459 125 459 227.5 458 c 128,-1,2
 330 457 330 457 436.5 460 c 128,-1,3
 543 463 543 463 647.5 466 c 128,-1,4
 752 469 752 469 850 465 c 0,5,6
 866 465 866 465 872.5 457 c 128,-1,7
 879 449 879 449 876.5 441.5 c 128,-1,8
 874 434 874 434 866 428 c 128,-1,9
 858 422 858 422 850 424 c 1,10,11
 758 428 758 428 645 425 c 128,-1,12
 532 422 532 422 419.5 419 c 128,-1,13
 307 416 307 416 204.5 416 c 128,-1,14
 102 416 102 416 31 426 c 0,15,16
 18 428 18 428 13 436 c 128,-1,17
 8 444 8 444 9 451.5 c 128,-1,18
 10 459 10 459 16.5 465 c 128,-1,19
 23 471 23 471 33 469 c 0,0,1
EndSplineSet
EndChar
StartChar: emdash
Encoding: 8212 8212 116
Width: 1767
Flags: W
Fore
33 473 m 0,0,1
 82 469 82 469 168 468 c 128,-1,2
 254 467 254 467 364.5 466 c 128,-1,3
 475 465 475 465 603 466 c 128,-1,4
 731 467 731 467 864 468 c 128,-1,5
 997 469 997 469 1127 470 c 128,-1,6
 1257 471 1257 471 1372 471 c 128,-1,7
 1487 471 1487 471 1578 469 c 128,-1,8
 1669 467 1669 467 1724 463 c 1,9,10
 1743 451 1743 451 1735 436 c 0,11,12
 1731 428 1731 428 1724 422 c 1,13,14
 1673 426 1673 426 1583 427 c 128,-1,15
 1493 428 1493 428 1377.5 428 c 128,-1,16
 1262 428 1262 428 1127.5 427 c 128,-1,17
 993 426 993 426 857 425 c 128,-1,18
 721 424 721 424 590 423 c 128,-1,19
 459 422 459 422 348.5 422 c 128,-1,20
 238 422 238 422 155 424 c 128,-1,21
 72 426 72 426 31 430 c 0,22,23
 18 432 18 432 13 439 c 128,-1,24
 8 446 8 446 9 454.5 c 128,-1,25
 10 463 10 463 16.5 468 c 128,-1,26
 23 473 23 473 33 473 c 0,0,1
EndSplineSet
EndChar
StartChar: tilde
Encoding: 732 732 117
Width: 442
Flags: W
Fore
12 891 m 0,0,1
 27 915 27 915 51.5 927.5 c 128,-1,2
 76 940 76 940 105.5 943 c 128,-1,3
 135 946 135 946 167 941 c 128,-1,4
 199 936 199 936 227 924 c 0,5,6
 240 918 240 918 261.5 912.5 c 128,-1,7
 283 907 283 907 305.5 906 c 128,-1,8
 328 905 328 905 348.5 908 c 128,-1,9
 369 911 369 911 381 924 c 1,10,11
 401 940 401 940 415.5 929 c 128,-1,12
 430 918 430 918 418 905 c 0,13,14
 395 881 395 881 368.5 872.5 c 128,-1,15
 342 864 342 864 313.5 865 c 128,-1,16
 285 866 285 866 256 873.5 c 128,-1,17
 227 881 227 881 203 889 c 0,18,19
 186 895 186 895 165.5 900 c 128,-1,20
 145 905 145 905 124.5 906 c 128,-1,21
 104 907 104 907 86 901 c 128,-1,22
 68 895 68 895 53 877 c 0,23,24
 33 856 33 856 18.5 867.5 c 128,-1,25
 4 879 4 879 12 891 c 0,0,1
EndSplineSet
EndChar
StartChar: trademark
Encoding: 8482 8482 118
Width: 1053
Flags: W
Fore
254 788 m 1,0,1
 252 770 252 770 251 732 c 128,-1,2
 250 694 250 694 249 648 c 128,-1,3
 248 602 248 602 247 553 c 128,-1,4
 246 504 246 504 245 461 c 128,-1,5
 244 418 244 418 243 386 c 128,-1,6
 242 354 242 354 242 346 c 0,7,8
 242 336 242 336 234.5 330 c 128,-1,9
 227 324 227 324 219 324 c 0,10,11
 197 324 197 324 197 346 c 0,12,13
 197 358 197 358 199 418.5 c 128,-1,14
 201 479 201 479 203 552 c 128,-1,15
 205 625 205 625 208 692.5 c 128,-1,16
 211 760 211 760 213 788 c 1,17,18
 174 788 174 788 136 784 c 128,-1,19
 98 780 98 780 53 780 c 0,20,21
 39 780 39 780 34 796.5 c 128,-1,22
 29 813 29 813 51 819 c 0,23,24
 72 825 72 825 129 828 c 128,-1,25
 186 831 186 831 252 831 c 0,26,27
 293 831 293 831 331 830 c 128,-1,28
 369 829 369 829 393 827 c 0,29,30
 406 825 406 825 404.5 805.5 c 128,-1,31
 403 786 403 786 395 786 c 2,32,-1
 367 786 l 2,33,34
 348 788 348 788 321.5 789.5 c 128,-1,35
 295 791 295 791 254 788 c 1,0,1
905 338 m 0,36,37
 907 322 907 322 901 316.5 c 128,-1,38
 895 311 895 311 885 311 c 0,39,40
 874 311 874 311 860 317 c 1,41,42
 858 362 858 362 855 438 c 128,-1,43
 852 514 852 514 849 589 c 128,-1,44
 846 664 846 664 843 721 c 128,-1,45
 840 778 840 778 838 788 c 1,46,47
 819 784 819 784 795.5 752.5 c 128,-1,48
 772 721 772 721 750.5 678 c 128,-1,49
 729 635 729 635 713.5 589 c 128,-1,50
 698 543 698 543 696 512 c 0,51,52
 696 483 696 483 680 484 c 128,-1,53
 664 485 664 485 657 508 c 0,54,55
 651 541 651 541 636 589 c 128,-1,56
 621 637 621 637 602.5 682 c 128,-1,57
 584 727 584 727 564.5 757.5 c 128,-1,58
 545 788 545 788 528 788 c 0,59,60
 522 788 522 788 517 750.5 c 128,-1,61
 512 713 512 713 507 650.5 c 128,-1,62
 502 588 502 588 500 505 c 128,-1,63
 498 422 498 422 498 330 c 1,64,65
 485 315 485 315 475 315 c 0,66,67
 467 315 467 315 459 319 c 1,68,69
 455 322 455 322 453 326 c 1,70,71
 455 580 455 580 471 707 c 128,-1,72
 487 834 487 834 526 834 c 0,73,74
 541 834 541 834 561.5 817.5 c 128,-1,75
 582 801 582 801 603.5 771 c 128,-1,76
 625 741 625 741 644.5 700 c 128,-1,77
 664 659 664 659 678 610 c 1,78,79
 692 659 692 659 715.5 701 c 128,-1,80
 739 743 739 743 765 773 c 128,-1,81
 791 803 791 803 812.5 819.5 c 128,-1,82
 834 836 834 836 846 834 c 0,83,84
 872 829 872 829 880.5 742 c 128,-1,85
 889 655 889 655 897 508 c 0,86,87
 899 469 899 469 900 427 c 128,-1,88
 901 385 901 385 905 338 c 0,36,37
EndSplineSet
EndChar
StartChar: guilsinglright
Encoding: 8250 8250 120
Width: 383
Flags: W
Fore
78 199 m 0,0,1
 123 211 123 211 159 238.5 c 128,-1,2
 195 266 195 266 221.5 296 c 128,-1,3
 248 326 248 326 262 352.5 c 128,-1,4
 276 379 276 379 276 391 c 0,5,6
 276 399 276 399 261 426 c 128,-1,7
 246 453 246 453 217 483.5 c 128,-1,8
 188 514 188 514 148.5 542.5 c 128,-1,9
 109 571 109 571 61 588 c 1,10,11
 37 592 37 592 35 610.5 c 128,-1,12
 33 629 33 629 68 631 c 1,13,14
 123 614 123 614 170 582.5 c 128,-1,15
 217 551 217 551 252 514 c 128,-1,16
 287 477 287 477 306.5 443.5 c 128,-1,17
 326 410 326 410 326 391 c 0,18,19
 326 371 326 371 305.5 336 c 128,-1,20
 285 301 285 301 251 264 c 128,-1,21
 217 227 217 227 172 196.5 c 128,-1,22
 127 166 127 166 76 154 c 1,23,24
 68 154 68 154 60.5 159 c 128,-1,25
 53 164 53 164 52 171 c 128,-1,26
 51 178 51 178 56 186.5 c 128,-1,27
 61 195 61 195 78 199 c 0,0,1
EndSplineSet
EndChar
StartChar: oe
Encoding: 339 339 121
Width: 1409
Flags: W
Fore
786 352 m 1,0,1
 784 295 784 295 798.5 241.5 c 128,-1,2
 813 188 813 188 848 148.5 c 128,-1,3
 883 109 883 109 939 85 c 128,-1,4
 995 61 995 61 1077 61 c 0,5,6
 1145 61 1145 61 1218.5 99 c 128,-1,7
 1292 137 1292 137 1329 217 c 1,8,9
 1337 227 1337 227 1348.5 226 c 128,-1,10
 1360 225 1360 225 1368 217 c 128,-1,11
 1376 209 1376 209 1379 194.5 c 128,-1,12
 1382 180 1382 180 1372 164 c 0,13,14
 1352 127 1352 127 1320 96.5 c 128,-1,15
 1288 66 1288 66 1248 44.5 c 128,-1,16
 1208 23 1208 23 1164 11.5 c 128,-1,17
 1120 0 1120 0 1077 0 c 0,18,19
 954 0 954 0 875.5 53 c 128,-1,20
 797 106 797 106 758 186 c 2,21,-1
 745 213 l 1,22,23
 741 199 741 199 735 184 c 0,24,25
 707 119 707 119 657.5 78 c 128,-1,26
 608 37 608 37 541.5 17.5 c 128,-1,27
 475 -2 475 -2 399 -2 c 0,28,29
 344 -2 344 -2 282.5 14.5 c 128,-1,30
 221 31 221 31 170 68.5 c 128,-1,31
 119 106 119 106 85 171 c 128,-1,32
 51 236 51 236 51 332 c 0,33,34
 51 516 51 516 142 620.5 c 128,-1,35
 233 725 233 725 410 725 c 0,36,37
 479 725 479 725 542.5 701.5 c 128,-1,38
 606 678 606 678 655.5 630 c 128,-1,39
 705 582 705 582 733 510 c 2,40,41
 739 500 739 500 741 487 c 1,42,43
 752 512 752 512 762 535 c 0,44,45
 803 616 803 616 880.5 669.5 c 128,-1,46
 958 723 958 723 1073 723 c 0,47,48
 1149 723 1149 723 1209.5 697.5 c 128,-1,49
 1270 672 1270 672 1313 633 c 128,-1,50
 1356 594 1356 594 1378.5 547 c 128,-1,51
 1401 500 1401 500 1401 457 c 0,52,53
 1401 410 1401 410 1390.5 388.5 c 128,-1,54
 1380 367 1380 367 1352 371 c 1,55,56
 1292 371 1292 371 1223.5 370 c 128,-1,57
 1155 369 1155 369 1081.5 367 c 128,-1,58
 1008 365 1008 365 932 361.5 c 128,-1,59
 856 358 856 358 786 352 c 1,0,1
705 328 m 0,60,61
 705 418 705 418 680 482.5 c 128,-1,62
 655 547 655 547 613 589 c 128,-1,63
 571 631 571 631 518 651.5 c 128,-1,64
 465 672 465 672 410 672 c 0,65,66
 266 672 266 672 188.5 589 c 128,-1,67
 111 506 111 506 111 332 c 0,68,69
 111 252 111 252 137.5 199.5 c 128,-1,70
 164 147 164 147 206 116.5 c 128,-1,71
 248 86 248 86 299 72.5 c 128,-1,72
 350 59 350 59 399 59 c 0,73,74
 463 59 463 59 519 72.5 c 128,-1,75
 575 86 575 86 616 118 c 128,-1,76
 657 150 657 150 681 201 c 128,-1,77
 705 252 705 252 705 328 c 0,60,61
786 414 m 1,78,79
 813 416 813 416 865.5 417 c 128,-1,80
 918 418 918 418 980 419 c 128,-1,81
 1042 420 1042 420 1108 420 c 128,-1,82
 1174 420 1174 420 1227 422 c 128,-1,83
 1280 424 1280 424 1314 426 c 128,-1,84
 1348 428 1348 428 1348 432 c 0,85,86
 1348 457 1348 457 1334.5 496 c 128,-1,87
 1321 535 1321 535 1288 571.5 c 128,-1,88
 1255 608 1255 608 1202 636 c 128,-1,89
 1149 664 1149 664 1071 664 c 0,90,91
 958 664 958 664 881.5 594 c 128,-1,92
 805 524 805 524 786 414 c 1,78,79
EndSplineSet
EndChar
StartChar: exclamdown
Encoding: 161 161 125
Width: 317
Flags: W
Fore
207 -182 m 2,0,1
 205 -205 205 -205 189.5 -216 c 128,-1,2
 174 -227 174 -227 155.5 -227 c 128,-1,3
 137 -227 137 -227 120.5 -217 c 128,-1,4
 104 -207 104 -207 104 -182 c 2,5,-1
 133 420 l 1,6,7
 137 438 137 438 155.5 437 c 128,-1,8
 174 436 174 436 178 420 c 1,9,-1
 207 -182 l 2,0,1
211 555 m 0,10,11
 211 535 211 535 198.5 516.5 c 128,-1,12
 186 498 186 498 158 498 c 0,13,14
 131 498 131 498 115.5 513 c 128,-1,15
 100 528 100 528 100 551 c 0,16,17
 100 573 100 573 115.5 590.5 c 128,-1,18
 131 608 131 608 158 608 c 0,19,20
 180 608 180 608 194.5 593 c 128,-1,21
 209 578 209 578 211 555 c 0,10,11
EndSplineSet
EndChar
StartChar: cent
Encoding: 162 162 126
Width: 782
Flags: W
Fore
649 652 m 0,0,1
 609 724 609 724 555.5 758 c 128,-1,2
 502 792 502 792 445.5 795.5 c 128,-1,3
 389 799 389 799 334 775 c 128,-1,4
 279 751 279 751 236.5 706.5 c 128,-1,5
 194 662 194 662 169 601 c 128,-1,6
 144 540 144 540 147 469 c 0,7,8
 149 412 149 412 166 358 c 128,-1,9
 183 304 183 304 217 262.5 c 128,-1,10
 251 221 251 221 303.5 196 c 128,-1,11
 356 171 356 171 429 171 c 0,12,13
 535 171 535 171 600.5 225 c 128,-1,14
 666 279 666 279 689 370 c 0,15,16
 693 391 693 391 700.5 401.5 c 128,-1,17
 708 412 708 412 715 412 c 128,-1,18
 722 412 722 412 727.5 401.5 c 128,-1,19
 733 391 733 391 732 372 c 0,20,21
 731 346 731 346 714.5 308 c 128,-1,22
 698 270 698 270 663.5 233 c 128,-1,23
 629 196 629 196 576 167.5 c 128,-1,24
 523 139 523 139 450 132 c 1,25,-1
 451 32 l 2,26,27
 451 15 451 15 444 5.5 c 128,-1,28
 437 -4 437 -4 428 -5 c 128,-1,29
 419 -6 419 -6 411.5 2 c 128,-1,30
 404 10 404 10 403 28 c 2,31,-1
 399 130 l 1,32,33
 319 136 319 136 263 167 c 128,-1,34
 207 198 207 198 172 244.5 c 128,-1,35
 137 291 137 291 120.5 349.5 c 128,-1,36
 104 408 104 408 104 469 c 256,37,38
 104 530 104 530 121 591 c 128,-1,39
 138 652 138 652 174 703 c 128,-1,40
 210 754 210 754 266 789.5 c 128,-1,41
 322 825 322 825 399 836 c 1,42,-1
 399 930 l 2,43,44
 399 948 399 948 405 956.5 c 128,-1,45
 411 965 411 965 418.5 965 c 128,-1,46
 426 965 426 965 432.5 956.5 c 128,-1,47
 439 948 439 948 439 930 c 2,48,-1
 439 836 l 1,49,50
 484 835 484 835 530 817 c 0,51,52
 549 809 549 809 570 796.5 c 128,-1,53
 591 784 591 784 612.5 764.5 c 128,-1,54
 634 745 634 745 654 718.5 c 128,-1,55
 674 692 674 692 692 657 c 1,56,57
 698 649 698 649 696 641 c 128,-1,58
 694 633 694 633 687 629.5 c 128,-1,59
 680 626 680 626 669.5 630.5 c 128,-1,60
 659 635 659 635 649 652 c 0,0,1
EndSplineSet
EndChar
StartChar: sterling
Encoding: 163 163 127
Width: 776
Flags: W
Fore
662 106 m 0,0,1
 643 59 643 59 610.5 35.5 c 128,-1,2
 578 12 578 12 514 8 c 0,3,4
 467 6 467 6 419 25.5 c 128,-1,5
 371 45 371 45 323.5 59.5 c 128,-1,6
 276 74 276 74 231 67.5 c 128,-1,7
 186 61 186 61 147 10 c 0,8,9
 137 -2 137 -2 124 2 c 128,-1,10
 111 6 111 6 121 29 c 1,11,12
 145 59 145 59 182 82.5 c 128,-1,13
 219 106 219 106 266 109 c 1,14,15
 305 170 305 170 310 223 c 128,-1,16
 315 276 315 276 291 338 c 1,17,-1
 156 338 l 2,18,19
 135 340 135 340 131 356.5 c 128,-1,20
 127 373 127 373 156 373 c 2,21,-1
 268 373 l 1,22,23
 227 444 227 444 200.5 501.5 c 128,-1,24
 174 559 174 559 174 612 c 0,25,26
 174 657 174 657 192.5 697 c 128,-1,27
 211 737 211 737 241.5 767 c 128,-1,28
 272 797 272 797 313 813 c 128,-1,29
 354 829 354 829 401 829 c 0,30,31
 498 829 498 829 551 774 c 128,-1,32
 604 719 604 719 614 627 c 0,33,34
 616 604 616 604 601 602 c 128,-1,35
 586 600 586 600 582 629 c 0,36,37
 569 696 569 696 528 744.5 c 128,-1,38
 487 793 487 793 401 793 c 0,39,40
 365 793 365 793 331 778.5 c 128,-1,41
 297 764 297 764 271.5 739.5 c 128,-1,42
 246 715 246 715 230.5 681 c 128,-1,43
 215 647 215 647 215 610 c 0,44,45
 215 580 215 580 226.5 548 c 128,-1,46
 238 516 238 516 253 485.5 c 128,-1,47
 268 455 268 455 285.5 426 c 128,-1,48
 303 397 303 397 317 373 c 1,49,-1
 485 369 l 2,50,51
 520 371 520 371 514 353.5 c 128,-1,52
 508 336 508 336 485 334 c 2,53,-1
 334 338 l 1,54,55
 356 272 356 272 348 218 c 128,-1,56
 340 164 340 164 309 106 c 1,57,58
 360 94 360 94 409.5 67.5 c 128,-1,59
 459 41 459 41 512 39 c 0,60,61
 561 37 561 37 585.5 61.5 c 128,-1,62
 610 86 610 86 629 115 c 0,63,64
 641 137 641 137 654.5 130 c 128,-1,65
 668 123 668 123 662 106 c 0,0,1
EndSplineSet
EndChar
StartChar: currency
Encoding: 164 164 128
Width: 995
Flags: W
Fore
221 238 m 1,0,1
 133 346 133 346 133 471 c 0,2,3
 133 530 133 530 153.5 591.5 c 128,-1,4
 174 653 174 653 221 709 c 1,5,-1
 139 793 l 2,6,7
 129 801 129 801 130 811 c 128,-1,8
 131 821 131 821 138 828.5 c 128,-1,9
 145 836 145 836 154.5 837 c 128,-1,10
 164 838 164 838 174 829 c 2,11,-1
 258 743 l 1,12,13
 313 791 313 791 375.5 813.5 c 128,-1,14
 438 836 438 836 496 836 c 0,15,16
 621 836 621 836 737 748 c 1,17,18
 754 764 754 764 778.5 788.5 c 128,-1,19
 803 813 803 813 821 829 c 0,20,21
 840 842 840 842 856 826.5 c 128,-1,22
 872 811 872 811 858 793 c 2,23,-1
 774 709 l 1,24,25
 819 657 819 657 839.5 596 c 128,-1,26
 860 535 860 535 860 471 c 0,27,28
 860 412 860 412 839.5 351.5 c 128,-1,29
 819 291 819 291 774 238 c 1,30,31
 791 219 791 219 814.5 195.5 c 128,-1,32
 838 172 838 172 858 152 c 1,33,34
 866 141 866 141 864 131 c 128,-1,35
 862 121 862 121 855 115 c 128,-1,36
 848 109 848 109 837.5 107.5 c 128,-1,37
 827 106 827 106 821 115 c 1,38,-1
 735 203 l 1,39,40
 682 156 682 156 620.5 132.5 c 128,-1,41
 559 109 559 109 496 109 c 0,42,43
 432 109 432 109 373.5 130.5 c 128,-1,44
 315 152 315 152 260 205 c 1,45,46
 244 186 244 186 219.5 162.5 c 128,-1,47
 195 139 195 139 174 117 c 0,48,49
 166 109 166 109 155.5 110 c 128,-1,50
 145 111 145 111 138 117 c 128,-1,51
 131 123 131 123 130 132 c 128,-1,52
 129 141 129 141 139 152 c 2,53,-1
 221 238 l 1,0,1
496 784 m 0,54,55
 432 784 432 784 375.5 759.5 c 128,-1,56
 319 735 319 735 277.5 692 c 128,-1,57
 236 649 236 649 211 592 c 128,-1,58
 186 535 186 535 186 471 c 0,59,60
 186 406 186 406 211 349.5 c 128,-1,61
 236 293 236 293 279 251 c 128,-1,62
 322 209 322 209 378 184.5 c 128,-1,63
 434 160 434 160 496 160 c 0,64,65
 561 160 561 160 617.5 185.5 c 128,-1,66
 674 211 674 211 716 254 c 128,-1,67
 758 297 758 297 782.5 353.5 c 128,-1,68
 807 410 807 410 807 471 c 0,69,70
 807 535 807 535 782.5 591 c 128,-1,71
 758 647 758 647 716 690 c 128,-1,72
 674 733 674 733 616.5 758.5 c 128,-1,73
 559 784 559 784 496 784 c 0,54,55
EndSplineSet
EndChar
StartChar: yen
Encoding: 165 165 129
Width: 770
Flags: W
Fore
680 539 m 1,0,1
 692 537 692 537 698.5 531 c 128,-1,2
 705 525 705 525 705 521.5 c 128,-1,3
 705 518 705 518 698.5 511.5 c 128,-1,4
 692 505 692 505 680 505 c 2,5,-1
 500 503 l 1,6,7
 479 457 479 457 461 434 c 0,8,9
 426 391 426 391 401 391 c 1,10,-1
 401 341 l 1,11,-1
 680 345 l 1,12,13
 692 343 692 343 698.5 336 c 128,-1,14
 705 329 705 329 705 325.5 c 128,-1,15
 705 322 705 322 698.5 314.5 c 128,-1,16
 692 307 692 307 680 307 c 2,17,-1
 403 303 l 1,18,-1
 412 31 l 2,19,20
 412 18 412 18 403.5 12 c 128,-1,21
 395 6 395 6 386 6 c 128,-1,22
 377 6 377 6 369.5 11 c 128,-1,23
 362 16 362 16 362 27 c 2,24,-1
 362 303 l 1,25,-1
 96 301 l 1,26,27
 84 303 84 303 78 310 c 128,-1,28
 72 317 72 317 72 321 c 128,-1,29
 72 325 72 325 78 332 c 128,-1,30
 84 339 84 339 96 339 c 2,31,-1
 362 341 l 1,32,-1
 362 391 l 1,33,34
 334 397 334 397 295 446 c 0,35,36
 281 465 281 465 264 501 c 1,37,-1
 96 499 l 1,38,39
 84 501 84 501 78 506.5 c 128,-1,40
 72 512 72 512 72 515.5 c 128,-1,41
 72 519 72 519 78 525.5 c 128,-1,42
 84 532 84 532 96 532 c 2,43,-1
 231 532 l 1,44,-1
 215 561 l 2,45,46
 176 629 176 629 142.5 698.5 c 128,-1,47
 109 768 109 768 92 817 c 0,48,49
 90 825 90 825 96 830.5 c 128,-1,50
 102 836 102 836 111.5 836 c 128,-1,51
 121 836 121 836 129 831.5 c 128,-1,52
 137 827 137 827 139 819 c 0,53,54
 152 776 152 776 182.5 712.5 c 128,-1,55
 213 649 213 649 248 588 c 0,56,57
 264 559 264 559 281 535 c 1,58,-1
 477 537 l 1,59,60
 487 551 487 551 498 569 c 0,61,62
 535 629 535 629 570.5 695.5 c 128,-1,63
 606 762 606 762 629 815 c 1,64,65
 631 823 631 823 639 828.5 c 128,-1,66
 647 834 647 834 656.5 834 c 128,-1,67
 666 834 666 834 672 827.5 c 128,-1,68
 678 821 678 821 676 809 c 1,69,70
 647 748 647 748 610 675 c 128,-1,71
 573 602 573 602 535 539 c 1,72,-1
 532 537 l 1,73,-1
 680 539 l 1,0,1
319 497 m 1,74,75
 349 431 349 431 381 434 c 1,76,77
 408 425 408 425 446 501 c 1,78,-1
 315 501 l 1,79,-1
 319 497 l 1,74,75
EndSplineSet
EndChar
StartChar: brokenbar
Encoding: 166 166 130
Width: 324
Flags: W
Fore
125 958 m 1,0,1
 127 971 127 971 134 977 c 128,-1,2
 141 983 141 983 150.5 983 c 128,-1,3
 160 983 160 983 167 977 c 128,-1,4
 174 971 174 971 174 958 c 2,5,-1
 184 492 l 1,6,7
 182 479 182 479 175 473 c 128,-1,8
 168 467 168 467 159 467 c 128,-1,9
 150 467 150 467 142.5 473 c 128,-1,10
 135 479 135 479 135 492 c 2,11,-1
 125 958 l 1,0,1
125 -219 m 1,12,13
 127 -231 127 -231 134 -237.5 c 128,-1,14
 141 -244 141 -244 150.5 -244 c 128,-1,15
 160 -244 160 -244 167 -237.5 c 128,-1,16
 174 -231 174 -231 174 -219 c 2,17,-1
 184 248 l 1,18,19
 182 260 182 260 175 266 c 128,-1,20
 168 272 168 272 159 272 c 128,-1,21
 150 272 150 272 142.5 266 c 128,-1,22
 135 260 135 260 135 248 c 2,23,-1
 125 -219 l 1,12,13
EndSplineSet
EndChar
StartChar: section
Encoding: 167 167 131
Width: 782
Flags: W
Fore
211 702 m 1,0,1
 197 723 197 723 187.5 746.5 c 128,-1,2
 178 770 178 770 176 799 c 0,3,4
 172 842 172 842 187.5 881 c 128,-1,5
 203 920 203 920 234.5 949.5 c 128,-1,6
 266 979 266 979 312 995.5 c 128,-1,7
 358 1012 358 1012 414 1012 c 0,8,9
 508 1010 508 1010 566.5 956.5 c 128,-1,10
 625 903 625 903 629 815 c 1,11,12
 625 793 625 793 607.5 792 c 128,-1,13
 590 791 590 791 588 809 c 0,14,15
 586 838 586 838 575.5 866.5 c 128,-1,16
 565 895 565 895 544.5 918.5 c 128,-1,17
 524 942 524 942 491.5 957.5 c 128,-1,18
 459 973 459 973 414 973 c 0,19,20
 315 975 315 975 266 922.5 c 128,-1,21
 217 870 217 870 221 799 c 0,22,23
 223 776 223 776 230.5 754.5 c 128,-1,24
 238 733 238 733 259.5 712.5 c 128,-1,25
 281 692 281 692 318.5 673.5 c 128,-1,26
 356 655 356 655 418 639 c 0,27,28
 494 625 494 625 540 598 c 128,-1,29
 586 571 586 571 609.5 540.5 c 128,-1,30
 633 510 633 510 639 476 c 128,-1,31
 645 442 645 442 643 416 c 0,32,33
 639 379 639 379 612.5 340 c 128,-1,34
 586 301 586 301 537 279 c 1,35,36
 584 238 584 238 596 191.5 c 128,-1,37
 608 145 608 145 606 104 c 0,38,39
 604 76 604 76 591 45 c 128,-1,40
 578 14 578 14 552 -11.5 c 128,-1,41
 526 -37 526 -37 486 -54.5 c 128,-1,42
 446 -72 446 -72 391 -74 c 0,43,44
 330 -76 330 -76 283 -57.5 c 128,-1,45
 236 -39 236 -39 202 -5 c 128,-1,46
 168 29 168 29 150.5 74 c 128,-1,47
 133 119 133 119 133 170 c 1,48,49
 131 180 131 180 137 185 c 128,-1,50
 143 190 143 190 152.5 191.5 c 128,-1,51
 162 193 162 193 171 187.5 c 128,-1,52
 180 182 180 182 180 172 c 0,53,54
 182 131 182 131 194.5 94 c 128,-1,55
 207 57 207 57 231.5 29.5 c 128,-1,56
 256 2 256 2 296 -14.5 c 128,-1,57
 336 -31 336 -31 391 -31 c 0,58,59
 442 -31 442 -31 476 -15.5 c 128,-1,60
 510 0 510 0 528.5 21.5 c 128,-1,61
 547 43 547 43 554 66.5 c 128,-1,62
 561 90 561 90 563 104 c 0,63,64
 571 178 571 178 525 231.5 c 128,-1,65
 479 285 479 285 356 313 c 0,66,67
 258 336 258 336 198.5 385 c 128,-1,68
 139 434 139 434 131 522 c 0,69,70
 127 575 127 575 147.5 622.5 c 128,-1,71
 168 670 168 670 209 702 c 1,72,-1
 211 702 l 1,0,1
395 606 m 0,73,74
 348 616 348 616 309 630.5 c 128,-1,75
 270 645 270 645 242 668 c 1,76,77
 201 649 201 649 187.5 608 c 128,-1,78
 174 567 174 567 178 522 c 0,79,80
 180 498 180 498 188.5 475.5 c 128,-1,81
 197 453 197 453 219.5 431.5 c 128,-1,82
 242 410 242 410 282 390.5 c 128,-1,83
 322 371 322 371 385 352 c 0,84,85
 459 330 459 330 502 303 c 1,86,87
 555 324 555 324 576.5 358.5 c 128,-1,88
 598 393 598 393 602 416 c 0,89,90
 610 483 610 483 562 531.5 c 128,-1,91
 514 580 514 580 395 606 c 0,73,74
EndSplineSet
EndChar
StartChar: dieresis
Encoding: 168 168 132
Width: 442
Flags: W
Fore
41 849 m 0,0,1
 41 867 41 867 56.5 882.5 c 128,-1,2
 72 898 72 898 92 898 c 0,3,4
 111 898 111 898 127 882.5 c 128,-1,5
 143 867 143 867 143 849 c 0,6,7
 143 828 143 828 127 813 c 128,-1,8
 111 798 111 798 92 798 c 0,9,10
 72 798 72 798 56.5 813 c 128,-1,11
 41 828 41 828 41 849 c 0,0,1
295 849 m 0,12,13
 295 867 295 867 310.5 882.5 c 128,-1,14
 326 898 326 898 346 898 c 0,15,16
 365 898 365 898 381 882.5 c 128,-1,17
 397 867 397 867 397 849 c 0,18,19
 397 828 397 828 381 813 c 128,-1,20
 365 798 365 798 346 798 c 0,21,22
 326 798 326 798 310.5 813 c 128,-1,23
 295 828 295 828 295 849 c 0,12,13
EndSplineSet
EndChar
StartChar: copyright
Encoding: 169 169 133
Width: 1034
Flags: W
Fore
922 414 m 0,0,1
 922 338 922 338 897.5 263 c 128,-1,2
 873 188 873 188 823.5 128 c 128,-1,3
 774 68 774 68 698.5 31 c 128,-1,4
 623 -6 623 -6 522 -6 c 0,5,6
 418 -6 418 -6 338 32.5 c 128,-1,7
 258 71 258 71 204 132 c 128,-1,8
 150 193 150 193 122 269 c 128,-1,9
 94 345 94 345 94 420 c 0,10,11
 94 496 94 496 121 570.5 c 128,-1,12
 148 645 148 645 202 704.5 c 128,-1,13
 256 764 256 764 336 801 c 128,-1,14
 416 838 416 838 522 838 c 0,15,16
 593 838 593 838 650 819 c 128,-1,17
 707 800 707 800 751.5 767.5 c 128,-1,18
 796 735 796 735 828.5 692.5 c 128,-1,19
 861 650 861 650 881.5 602.5 c 128,-1,20
 902 555 902 555 912 506.5 c 128,-1,21
 922 458 922 458 922 414 c 0,0,1
872 414 m 0,22,23
 872 476 872 476 850.5 541.5 c 128,-1,24
 829 607 829 607 785 661 c 128,-1,25
 741 715 741 715 675.5 749.5 c 128,-1,26
 610 784 610 784 522 784 c 0,27,28
 440 784 440 784 371.5 755.5 c 128,-1,29
 303 727 303 727 253 679 c 128,-1,30
 203 631 203 631 175 567.5 c 128,-1,31
 147 504 147 504 147 434 c 0,32,33
 147 356 147 356 173.5 285.5 c 128,-1,34
 200 215 200 215 248.5 161.5 c 128,-1,35
 297 108 297 108 366.5 76.5 c 128,-1,36
 436 45 436 45 522 45 c 0,37,38
 596 45 596 45 658.5 73.5 c 128,-1,39
 721 102 721 102 767 151.5 c 128,-1,40
 813 201 813 201 840.5 268.5 c 128,-1,41
 868 336 868 336 872 414 c 0,22,23
684 580 m 2,42,-1
 684 528 l 1,43,44
 680 506 680 506 665.5 504 c 128,-1,45
 651 502 651 502 639 510 c 1,46,47
 606 547 606 547 580.5 566.5 c 128,-1,48
 555 586 555 586 524 586 c 0,49,50
 492 588 492 588 461 576.5 c 128,-1,51
 430 565 430 565 406 541 c 128,-1,52
 382 517 382 517 367 481.5 c 128,-1,53
 352 446 352 446 352 399 c 256,54,55
 352 352 352 352 367.5 319.5 c 128,-1,56
 383 287 383 287 406.5 267 c 128,-1,57
 430 247 430 247 458.5 238 c 128,-1,58
 487 229 487 229 514 229 c 0,59,60
 569 229 569 229 606 254 c 128,-1,61
 643 279 643 279 653 344 c 0,62,63
 659 374 659 374 682 369 c 0,64,65
 706 364 706 364 707 338 c 1,66,67
 697 257 697 257 641 216 c 0,68,69
 586 176 586 176 514 176 c 0,70,71
 478 176 478 176 439.5 187 c 128,-1,72
 401 198 401 198 370 224 c 128,-1,73
 339 250 339 250 319 292.5 c 128,-1,74
 299 335 299 335 299 397 c 0,75,76
 299 457 299 457 317.5 503 c 128,-1,77
 336 549 336 549 367.5 579.5 c 128,-1,78
 399 610 399 610 439.5 625.5 c 128,-1,79
 480 641 480 641 524 641 c 0,80,81
 583 641 583 641 635 600 c 1,82,83
 633 615 633 615 640 621 c 128,-1,84
 647 627 647 627 657 624.5 c 128,-1,85
 667 622 667 622 675.5 610.5 c 128,-1,86
 684 599 684 599 684 580 c 2,42,-1
EndSplineSet
EndChar
StartChar: ordfeminine
Encoding: 170 170 134
Width: 516
Flags: W
Fore
412 694 m 1,0,1
 406 727 406 727 390 751.5 c 128,-1,2
 374 776 374 776 353 792.5 c 128,-1,3
 332 809 332 809 308 817 c 128,-1,4
 284 825 284 825 262 825 c 0,5,6
 211 825 211 825 177 801 c 128,-1,7
 143 777 143 777 123 744.5 c 128,-1,8
 103 712 103 712 95 679.5 c 128,-1,9
 87 647 87 647 86 629 c 0,10,11
 86 597 86 597 92.5 560.5 c 128,-1,12
 99 524 99 524 117.5 493.5 c 128,-1,13
 136 463 136 463 169.5 442.5 c 128,-1,14
 203 422 203 422 256 422 c 0,15,16
 296 422 296 422 326 430.5 c 128,-1,17
 356 439 356 439 375.5 461.5 c 128,-1,18
 395 484 395 484 404.5 524.5 c 128,-1,19
 414 565 414 565 414 629 c 2,20,-1
 412 694 l 1,0,1
510 393 m 1,21,22
 503 392 503 392 497 392 c 128,-1,23
 491 392 491 392 486 392 c 0,24,25
 452 392 452 392 436.5 404.5 c 128,-1,26
 421 417 421 417 416 451 c 1,27,28
 393 414 393 414 352.5 398.5 c 128,-1,29
 312 383 312 383 258 383 c 0,30,31
 190 383 190 383 149 408 c 128,-1,32
 108 433 108 433 86 470.5 c 128,-1,33
 64 508 64 508 56.5 551 c 128,-1,34
 49 594 49 594 49 631 c 0,35,36
 49 657 49 657 59 696 c 128,-1,37
 69 735 69 735 93.5 771 c 128,-1,38
 118 807 118 807 158.5 832.5 c 128,-1,39
 199 858 199 858 260 858 c 0,40,41
 308 858 308 858 344.5 840.5 c 128,-1,42
 381 823 381 823 416 780 c 1,43,-1
 420 836 l 2,44,45
 423 853 423 853 441 853 c 0,46,47
 455 853 455 853 462 848.5 c 128,-1,48
 469 844 469 844 469 838 c 1,49,50
 463 816 463 816 459.5 777.5 c 128,-1,51
 456 739 456 739 454.5 692.5 c 128,-1,52
 453 646 453 646 453 595.5 c 128,-1,53
 453 545 453 545 453 499 c 0,54,55
 453 486 453 486 454 473.5 c 128,-1,56
 455 461 455 461 460.5 451 c 128,-1,57
 466 441 466 441 476 434.5 c 128,-1,58
 486 428 486 428 504 428 c 1,59,60
 519 422 519 422 519 412 c 256,61,62
 519 402 519 402 510 393 c 1,21,22
EndSplineSet
EndChar
StartChar: guillemotleft
Encoding: 171 171 135
Width: 690
Flags: W
Fore
371 281 m 0,0,1
 387 276 387 276 392 268.5 c 128,-1,2
 397 261 397 261 395.5 253.5 c 128,-1,3
 394 246 394 246 387.5 241 c 128,-1,4
 381 236 381 236 373 236 c 1,5,6
 320 252 320 252 274.5 277 c 128,-1,7
 229 302 229 302 195 330 c 128,-1,8
 161 358 161 358 142 385 c 128,-1,9
 123 412 123 412 123 432 c 0,10,11
 123 453 123 453 143 479 c 128,-1,12
 163 505 163 505 198 532.5 c 128,-1,13
 233 560 233 560 280 585.5 c 128,-1,14
 327 611 327 611 381 631 c 1,15,16
 415 629 415 629 414 610 c 0,17,18
 413 593 413 593 387 588 c 0,19,20
 339 572 339 572 299.5 549 c 128,-1,21
 260 526 260 526 231.5 503 c 128,-1,22
 203 480 203 480 187.5 460.5 c 128,-1,23
 172 441 172 441 172 432 c 0,24,25
 172 421 172 421 186.5 401 c 128,-1,26
 201 381 201 381 227 358 c 128,-1,27
 253 335 253 335 290 314 c 128,-1,28
 327 293 327 293 371 281 c 0,0,1
580 274 m 0,29,30
 596 270 596 270 601 262.5 c 128,-1,31
 606 255 606 255 604.5 247.5 c 128,-1,32
 603 240 603 240 596.5 234.5 c 128,-1,33
 590 229 590 229 582 229 c 1,34,35
 529 245 529 245 483.5 270.5 c 128,-1,36
 438 296 438 296 404 324 c 128,-1,37
 370 352 370 352 351 379 c 128,-1,38
 332 406 332 406 332 426 c 0,39,40
 331 445 331 445 351.5 472 c 128,-1,41
 372 499 372 499 407 527 c 128,-1,42
 442 555 442 555 489.5 581 c 128,-1,43
 537 607 537 607 590 625 c 1,44,45
 624 623 624 623 623 604 c 0,46,47
 622 587 622 587 596 582 c 0,48,49
 548 566 548 566 508.5 543 c 128,-1,50
 469 520 469 520 440.5 497 c 128,-1,51
 412 474 412 474 396.5 454.5 c 128,-1,52
 381 435 381 435 381 426 c 0,53,54
 381 415 381 415 395.5 394.5 c 128,-1,55
 410 374 410 374 436 351.5 c 128,-1,56
 462 329 462 329 499 308 c 128,-1,57
 536 287 536 287 580 274 c 0,29,30
EndSplineSet
EndChar
StartChar: logicalnot
Encoding: 172 172 136
Width: 879
Flags: W
Fore
76 504 m 0,0,1
 61 504 61 504 54 513 c 128,-1,2
 47 522 47 522 46 532.5 c 128,-1,3
 45 543 45 543 51 551 c 128,-1,4
 57 559 57 559 70 559 c 0,5,6
 254 551 254 551 381 549 c 128,-1,7
 508 547 508 547 590 547 c 128,-1,8
 672 547 672 547 716 549 c 128,-1,9
 760 551 760 551 778 553 c 0,10,11
 782 553 782 553 788.5 552 c 128,-1,12
 795 551 795 551 795 537 c 0,13,14
 795 496 795 496 795 445.5 c 128,-1,15
 795 395 795 395 797 352 c 0,16,17
 797 301 797 301 799 252 c 1,18,19
 795 227 795 227 773.5 229 c 128,-1,20
 752 231 752 231 756 254 c 1,21,22
 754 297 754 297 754 340 c 0,23,24
 754 377 754 377 754 419 c 128,-1,25
 754 461 754 461 756 496 c 1,26,27
 662 494 662 494 553 496 c 0,28,29
 459 496 459 496 337 498 c 128,-1,30
 215 500 215 500 76 504 c 0,0,1
EndSplineSet
EndChar
StartChar: registered
Encoding: 174 174 137
Width: 1034
Flags: W
Fore
922 414 m 0,0,1
 922 338 922 338 897 263 c 128,-1,2
 872 188 872 188 823 128 c 128,-1,3
 774 68 774 68 698.5 31 c 128,-1,4
 623 -6 623 -6 522 -6 c 0,5,6
 418 -6 418 -6 338 32 c 128,-1,7
 258 70 258 70 204 131.5 c 128,-1,8
 150 193 150 193 122 268.5 c 128,-1,9
 94 344 94 344 94 420 c 256,10,11
 94 496 94 496 120.5 570.5 c 128,-1,12
 147 645 147 645 201.5 704.5 c 128,-1,13
 256 764 256 764 336 801 c 128,-1,14
 416 838 416 838 522 838 c 0,15,16
 629 838 629 838 704.5 797 c 128,-1,17
 780 756 780 756 828.5 692.5 c 128,-1,18
 877 629 877 629 899.5 555 c 128,-1,19
 922 481 922 481 922 414 c 0,0,1
872 414 m 0,20,21
 872 475 872 475 850.5 541.5 c 128,-1,22
 829 608 829 608 785 661.5 c 128,-1,23
 741 715 741 715 675.5 749.5 c 128,-1,24
 610 784 610 784 522 784 c 0,25,26
 440 784 440 784 371.5 755.5 c 128,-1,27
 303 727 303 727 253 679 c 128,-1,28
 203 631 203 631 175 567.5 c 128,-1,29
 147 504 147 504 147 434 c 0,30,31
 147 356 147 356 174 285.5 c 128,-1,32
 201 215 201 215 249 162 c 128,-1,33
 297 109 297 109 366.5 77 c 128,-1,34
 436 45 436 45 522 45 c 0,35,36
 596 45 596 45 658.5 73.5 c 128,-1,37
 721 102 721 102 767 151.5 c 128,-1,38
 813 201 813 201 840.5 268.5 c 128,-1,39
 868 336 868 336 872 414 c 0,20,21
381 616 m 1,40,41
 375 627 375 627 379 634 c 128,-1,42
 383 641 383 641 391 645 c 128,-1,43
 399 649 399 649 407.5 648 c 128,-1,44
 416 647 416 647 418 639 c 1,45,-1
 432 629 l 1,46,47
 500 641 500 641 551 634 c 128,-1,48
 602 627 602 627 637 606.5 c 128,-1,49
 672 586 672 586 690.5 556 c 128,-1,50
 709 526 709 526 709 494 c 0,51,52
 709 461 709 461 689.5 436.5 c 128,-1,53
 670 412 670 412 641 395.5 c 128,-1,54
 612 379 612 379 576.5 369.5 c 128,-1,55
 541 360 541 360 510 360 c 1,56,-1
 559 326 l 1,57,-1
 692 231 l 1,58,59
 698 225 698 225 696 216 c 128,-1,60
 694 207 694 207 688 198.5 c 128,-1,61
 682 190 682 190 672 187 c 128,-1,62
 662 184 662 184 651 190 c 1,63,-1
 444 346 l 1,64,-1
 444 190 l 1,65,66
 442 180 442 180 434 175 c 128,-1,67
 426 170 426 170 417 170 c 128,-1,68
 408 170 408 170 399.5 175 c 128,-1,69
 391 180 391 180 391 188 c 0,70,71
 391 223 391 223 393 262 c 128,-1,72
 395 301 395 301 395 336 c 0,73,74
 395 408 395 408 393 479.5 c 128,-1,75
 391 551 391 551 381 616 c 1,40,41
436 584 m 1,76,77
 436 549 436 549 438 495.5 c 128,-1,78
 440 442 440 442 444 403 c 1,79,80
 473 399 473 399 509 400 c 128,-1,81
 545 401 545 401 576.5 411.5 c 128,-1,82
 608 422 608 422 630.5 443.5 c 128,-1,83
 653 465 653 465 655 500 c 0,84,85
 657 520 657 520 641 540.5 c 128,-1,86
 625 561 625 561 595 574.5 c 128,-1,87
 565 588 565 588 524 592 c 128,-1,88
 483 596 483 596 436 584 c 1,76,77
EndSplineSet
EndChar
StartChar: macron
Encoding: 175 175 138
Width: 442
Flags: W
Fore
47 922 m 0,0,1
 92 913 92 913 131 914 c 128,-1,2
 170 915 170 915 208 917.5 c 128,-1,3
 246 920 246 920 287 922 c 128,-1,4
 328 924 328 924 377 918 c 0,5,6
 387 918 387 918 392 912.5 c 128,-1,7
 397 907 397 907 397 900 c 128,-1,8
 397 893 397 893 391 888 c 128,-1,9
 385 883 385 883 377 885 c 1,10,11
 324 887 324 887 284 886 c 128,-1,12
 244 885 244 885 207 883 c 128,-1,13
 170 881 170 881 132 881 c 128,-1,14
 94 881 94 881 45 887 c 0,15,16
 29 891 29 891 30 908.5 c 128,-1,17
 31 926 31 926 47 922 c 0,0,1
EndSplineSet
EndChar
StartChar: degree
Encoding: 176 176 139
Width: 442
Flags: W
Fore
393 836 m 0,0,1
 393 795 393 795 377.5 763 c 128,-1,2
 362 731 362 731 336.5 708.5 c 128,-1,3
 311 686 311 686 280.5 675 c 128,-1,4
 250 664 250 664 219 664 c 0,5,6
 139 664 139 664 95 712 c 128,-1,7
 51 760 51 760 51 825 c 0,8,9
 51 901 51 901 101.5 951 c 128,-1,10
 152 1001 152 1001 223 1001 c 0,11,12
 311 1001 311 1001 352 951 c 128,-1,13
 393 901 393 901 393 836 c 0,0,1
350 834 m 0,14,15
 350 850 350 850 344 872.5 c 128,-1,16
 338 895 338 895 323.5 915.5 c 128,-1,17
 309 936 309 936 283.5 950.5 c 128,-1,18
 258 965 258 965 219 965 c 0,19,20
 184 965 184 965 160.5 951.5 c 128,-1,21
 137 938 137 938 121.5 917.5 c 128,-1,22
 106 897 106 897 100 872.5 c 128,-1,23
 94 848 94 848 94 825 c 0,24,25
 94 770 94 770 130 734 c 128,-1,26
 166 698 166 698 219 698 c 0,27,28
 279 698 279 698 314.5 736 c 128,-1,29
 350 774 350 774 350 834 c 0,14,15
EndSplineSet
EndChar
StartChar: plusminus
Encoding: 177 177 140
Width: 635
Flags: W
Fore
295 438 m 1,0,1
 293 445 293 445 291 468.5 c 128,-1,2
 289 492 289 492 290 517.5 c 128,-1,3
 291 543 291 543 297 563.5 c 128,-1,4
 303 584 303 584 316 584 c 0,5,6
 334 584 334 584 334 569 c 0,7,8
 331 537 331 537 331.5 504 c 128,-1,9
 332 471 332 471 332 439 c 1,10,-1
 448 439 l 1,11,12
 455 438 455 438 465.5 437 c 128,-1,13
 476 436 476 436 476 426 c 0,14,15
 476 414 476 414 457.5 409.5 c 128,-1,16
 439 405 439 405 414.5 404 c 128,-1,17
 390 403 390 403 366.5 404.5 c 128,-1,18
 343 406 343 406 334 406 c 1,19,20
 334 381 334 381 333.5 366.5 c 128,-1,21
 333 352 333 352 332 339.5 c 128,-1,22
 331 327 331 327 330.5 312.5 c 128,-1,23
 330 298 330 298 330 272 c 0,24,25
 330 263 330 263 325 260 c 128,-1,26
 320 257 320 257 313.5 257.5 c 128,-1,27
 307 258 307 258 302 263 c 128,-1,28
 297 268 297 268 297 276 c 2,29,-1
 297 403 l 1,30,-1
 158 408 l 2,31,32
 143 409 143 409 143 426 c 0,33,34
 143 430 143 430 146 433 c 128,-1,35
 149 436 149 436 164 437.5 c 128,-1,36
 179 439 179 439 209.5 439 c 128,-1,37
 240 439 240 439 295 438 c 1,0,1
137 47 m 1,38,-1
 487 47 l 1,39,40
 498 53 498 53 498 63 c 0,41,42
 498 74 498 74 487 80 c 1,43,-1
 137 80 l 1,44,45
 131 74 131 74 131 63 c 256,46,47
 131 52 131 52 137 45 c 1,48,-1
 137 47 l 1,38,-1
EndSplineSet
EndChar
StartChar: twosuperior
Encoding: 178 178 141
Width: 530
Flags: W
Fore
160 440 m 1,0,1
 201 442 201 442 232.5 444 c 128,-1,2
 264 446 264 446 293 446 c 128,-1,3
 322 446 322 446 351.5 445 c 128,-1,4
 381 444 381 444 420 442 c 0,5,6
 436 440 436 440 433 424 c 128,-1,7
 430 408 430 408 420 408 c 1,8,9
 399 412 399 412 351 412 c 128,-1,10
 303 412 303 412 252 412 c 0,11,12
 193 412 193 412 123 410 c 0,13,14
 117 410 117 410 117 412 c 2,15,-1
 117 414 l 2,16,17
 121 465 121 465 163 522.5 c 128,-1,18
 205 580 205 580 295 633 c 0,19,20
 344 662 344 662 369.5 708 c 128,-1,21
 395 754 395 754 395 799 c 256,22,23
 395 844 395 844 364.5 881 c 128,-1,24
 334 918 334 918 270 918 c 0,25,26
 211 918 211 918 183.5 883 c 128,-1,27
 156 848 156 848 152 795 c 0,28,29
 150 784 150 784 136.5 785 c 128,-1,30
 123 786 123 786 123 803 c 0,31,32
 123 860 123 860 166 902 c 128,-1,33
 209 944 209 944 270 944 c 0,34,35
 348 944 348 944 387 900 c 128,-1,36
 426 856 426 856 426 799 c 0,37,38
 426 750 426 750 397.5 698.5 c 128,-1,39
 369 647 369 647 315 612 c 0,40,41
 248 571 248 571 204 523 c 128,-1,42
 160 475 160 475 160 440 c 1,0,1
EndSplineSet
EndChar
StartChar: threesuperior
Encoding: 179 179 142
Width: 502
Flags: W
Fore
88 780 m 1,0,1
 78 821 78 821 87 856 c 128,-1,2
 96 891 96 891 118.5 916.5 c 128,-1,3
 141 942 141 942 176 956.5 c 128,-1,4
 211 971 211 971 252 971 c 0,5,6
 313 971 313 971 363.5 930 c 128,-1,7
 414 889 414 889 414 823 c 0,8,9
 414 788 414 788 394.5 749.5 c 128,-1,10
 375 711 375 711 322 696 c 1,11,12
 352 690 352 690 371.5 672.5 c 128,-1,13
 391 655 391 655 403.5 632.5 c 128,-1,14
 416 610 416 610 421 585.5 c 128,-1,15
 426 561 426 561 426 541 c 0,16,17
 426 520 426 520 417 493.5 c 128,-1,18
 408 467 408 467 387.5 444.5 c 128,-1,19
 367 422 367 422 332 405.5 c 128,-1,20
 297 389 297 389 246 389 c 0,21,22
 199 389 199 389 157 398.5 c 128,-1,23
 115 408 115 408 83 430.5 c 128,-1,24
 51 453 51 453 32.5 494 c 128,-1,25
 14 535 14 535 14 596 c 0,26,27
 14 618 14 618 29 618 c 0,28,29
 45 618 45 618 45 602 c 0,30,31
 45 549 45 549 61.5 514 c 128,-1,32
 78 479 78 479 104.5 457.5 c 128,-1,33
 131 436 131 436 166 427 c 128,-1,34
 201 418 201 418 238 418 c 0,35,36
 283 418 283 418 312.5 430 c 128,-1,37
 342 442 342 442 360.5 459.5 c 128,-1,38
 379 477 379 477 387 497.5 c 128,-1,39
 395 518 395 518 395 537 c 0,40,41
 395 612 395 612 352 645 c 128,-1,42
 309 678 309 678 242 678 c 0,43,44
 231 678 231 678 226 691.5 c 128,-1,45
 221 705 221 705 236 707 c 0,46,47
 313 717 313 717 348 749.5 c 128,-1,48
 383 782 383 782 383 834 c 0,49,50
 383 870 383 870 350 905 c 128,-1,51
 317 940 317 940 252 940 c 0,52,53
 221 940 221 940 193.5 929 c 128,-1,54
 166 918 166 918 146.5 898.5 c 128,-1,55
 127 879 127 879 119 850 c 128,-1,56
 111 821 111 821 119 786 c 1,57,58
 117 774 117 774 104.5 771 c 128,-1,59
 92 768 92 768 90 780 c 1,60,-1
 88 780 l 1,0,1
EndSplineSet
EndChar
StartChar: acute
Encoding: 180 180 143
Width: 442
Flags: W
Fore
225 797 m 2,0,1
 199 774 199 774 184.5 783.5 c 128,-1,2
 170 793 170 793 186 827 c 1,3,-1
 319 1006 l 1,4,5
 340 1026 340 1026 357.5 1027 c 128,-1,6
 375 1028 375 1028 384 1019 c 128,-1,7
 393 1010 393 1010 392 993.5 c 128,-1,8
 391 977 391 977 375 963 c 2,9,-1
 225 797 l 2,0,1
EndSplineSet
EndChar
StartChar: mu
Encoding: 181 181 144
Width: 864
Flags: W
Fore
647 139 m 1,0,1
 625 80 625 80 567.5 42 c 128,-1,2
 510 4 510 4 408 2 c 0,3,4
 322 0 322 0 266.5 33 c 128,-1,5
 211 66 211 66 180 113 c 1,6,-1
 180 -272 l 2,7,8
 180 -285 180 -285 172 -292 c 128,-1,9
 164 -299 164 -299 154.5 -299 c 128,-1,10
 145 -299 145 -299 138 -292 c 128,-1,11
 131 -285 131 -285 131 -272 c 0,12,13
 129 -31 129 -31 128 209 c 128,-1,14
 127 449 127 449 137 694 c 0,15,16
 137 702 137 702 145.5 707.5 c 128,-1,17
 154 713 154 713 164 712 c 128,-1,18
 174 711 174 711 183.5 705.5 c 128,-1,19
 193 700 193 700 193 692 c 2,20,-1
 184 356 l 2,21,22
 182 307 182 307 190.5 254 c 128,-1,23
 199 201 199 201 223.5 156 c 128,-1,24
 248 111 248 111 294 81 c 128,-1,25
 340 51 340 51 414 53 c 0,26,27
 487 55 487 55 532.5 83 c 128,-1,28
 578 111 578 111 603.5 156 c 128,-1,29
 629 201 629 201 638 256 c 128,-1,30
 647 311 647 311 647 367 c 2,31,-1
 647 698 l 2,32,33
 647 709 647 709 655.5 714 c 128,-1,34
 664 719 664 719 673 719 c 128,-1,35
 682 719 682 719 691 714 c 128,-1,36
 700 709 700 709 700 700 c 2,37,-1
 709 20 l 2,38,39
 709 10 709 10 700.5 4 c 128,-1,40
 692 -2 692 -2 682 -3 c 128,-1,41
 672 -4 672 -4 662.5 1 c 128,-1,42
 653 6 653 6 651 23 c 1,43,44
 653 55 653 55 653 82 c 0,45,46
 653 104 653 104 652 122.5 c 128,-1,47
 651 141 651 141 647 139 c 1,0,1
EndSplineSet
EndChar
StartChar: paragraph
Encoding: 182 182 145
Width: 782
Flags: W
Fore
436 922 m 1,0,1
 439 825 439 825 440 689 c 0,2,3
 441 571 441 571 439 397 c 128,-1,4
 437 223 437 223 430 -14 c 0,5,6
 430 -27 430 -27 422.5 -34.5 c 128,-1,7
 415 -42 415 -42 405 -42.5 c 128,-1,8
 395 -43 395 -43 387 -36 c 128,-1,9
 379 -29 379 -29 379 -14 c 0,10,11
 383 75 383 75 384 147 c 128,-1,12
 385 219 385 219 385 270 c 0,13,14
 385 330 385 330 383 377 c 1,15,16
 317 377 317 377 260 395.5 c 128,-1,17
 203 414 203 414 156 450.5 c 128,-1,18
 109 487 109 487 80.5 541.5 c 128,-1,19
 52 596 52 596 52 670 c 0,20,21
 52 725 52 725 68 782.5 c 128,-1,22
 84 840 84 840 130 887 c 128,-1,23
 176 934 176 934 256 963.5 c 128,-1,24
 336 993 336 993 438 993 c 0,25,26
 518 993 518 993 554.5 990 c 128,-1,27
 591 987 591 987 591 955 c 0,28,29
 584 736 584 736 584 558.5 c 128,-1,30
 584 381 584 381 587 253 c 0,31,32
 591 103 591 103 597 -14 c 0,33,34
 599 -30 599 -30 591 -38.5 c 128,-1,35
 583 -47 583 -47 573 -48 c 128,-1,36
 563 -49 563 -49 554 -40.5 c 128,-1,37
 545 -32 545 -32 545 -14 c 0,38,39
 543 191 543 191 542 374 c 0,40,41
 542 452 542 452 541.5 532.5 c 128,-1,42
 541 613 541 613 541 687 c 128,-1,43
 541 761 541 761 541.5 823.5 c 128,-1,44
 542 886 542 886 543 928 c 1,45,46
 539 934 539 934 526.5 939 c 128,-1,47
 514 944 514 944 498 945 c 128,-1,48
 482 946 482 946 465 941 c 128,-1,49
 448 936 448 936 436 922 c 1,0,1
EndSplineSet
EndChar
StartChar: periodcentered
Encoding: 183 183 146
Width: 471
Flags: W
Fore
369 483 m 0,0,1
 369 428 369 428 330 390 c 128,-1,2
 291 352 291 352 236 352 c 0,3,4
 182 352 182 352 142 390 c 128,-1,5
 102 428 102 428 102 483 c 0,6,7
 102 539 102 539 142 577.5 c 128,-1,8
 182 616 182 616 236 616 c 0,9,10
 291 616 291 616 330 577.5 c 128,-1,11
 369 539 369 539 369 483 c 0,0,1
EndSplineSet
EndChar
